<svg width="1089" height="937" viewBox="0 0 1089 937" fill="none" xmlns="http://www.w3.org/2000/svg">
<path d="M-97.7442 807.742C-97.7442 807.742 -175.656 746.72 -176.655 554.181C-177.655 361.642 -42.8081 279.576 92.0359 285.889C226.88 292.203 301.813 138.566 509.588 101.753C717.363 64.9411 910.124 152.255 953.076 353.218C996.027 554.181 937.092 759.338 895.134 806.685C836.22 806.676 -97.7442 807.742 -97.7442 807.742Z" fill="#F0F5FF"/>
<path d="M283.466 316.07C224.546 330.801 134.065 445.483 134.065 445.483C203.504 580.153 539.131 626.446 471.805 534.914C404.479 443.381 342.383 301.341 283.466 316.07Z" fill="#AFCDF9"/>
<path d="M55.0371 306.04C-36.498 297.634 -157.493 429.127 -157.493 429.127C-239.557 678.491 -130.138 806.841 -130.138 806.841L560.054 804.74L649.487 585.905C649.487 585.905 481.148 562.759 312.81 472.277C144.471 381.796 146.572 314.458 55.0371 306.04Z" fill="#CCE3FF"/>
<path d="M742.772 410.202C691.571 323.926 571.626 330.24 523.931 383.546C476.237 436.852 470.626 490.863 316.313 544.16C162 597.457 -188.71 615.716 -188.71 615.716L-145.614 801.59C-145.614 801.59 863.404 807.895 912.192 801.59C957.461 764.415 986.161 609.402 986.161 609.402C986.161 609.402 793.977 496.474 742.772 410.202Z" fill="#DEE4F2"/>
<path d="M777.988 142.786H680.853C670.911 142.786 662.853 150.845 662.853 160.786V475.586C662.853 485.527 670.911 493.586 680.853 493.586H777.988C787.929 493.586 795.988 485.527 795.988 475.586V160.786C795.988 150.845 787.929 142.786 777.988 142.786Z" fill="#8398B2"/>
<path d="M781.578 142.786H648.442V493.586H781.578V142.786Z" fill="#BCC7DD"/>
<path d="M674.999 164.571H662.666V484.935H674.999V164.571Z" fill="white"/>
<path d="M705.831 164.571H693.498V484.935H705.831V164.571Z" fill="white"/>
<path d="M736.663 164.571H724.33V484.935H736.663V164.571Z" fill="white"/>
<path d="M767.498 164.571H755.165V484.935H767.498V164.571Z" fill="white"/>
<path d="M870.127 166.468H756.428C746.487 166.468 738.428 174.526 738.428 184.468V590.721C738.428 600.662 746.487 608.721 756.428 608.721H870.127C880.068 608.721 888.127 600.662 888.127 590.721V184.468C888.127 174.526 880.068 166.468 870.127 166.468Z" fill="#8398B2"/>
<path d="M873.717 166.468H724.018V608.721H873.717V166.468Z" fill="#CFDAE8"/>
<path d="M863.293 191.595H734.285V209.734H863.293V191.595Z" fill="#F0F6FF"/>
<path d="M863.293 210.335H734.285C734.126 210.335 733.974 210.272 733.861 210.159C733.748 210.047 733.685 209.894 733.685 209.735V191.596C733.685 191.437 733.748 191.284 733.861 191.171C733.974 191.059 734.126 190.995 734.285 190.995H863.293C863.453 190.995 863.605 191.059 863.718 191.171C863.83 191.284 863.894 191.437 863.894 191.596V209.735C863.894 209.814 863.878 209.892 863.848 209.964C863.818 210.037 863.774 210.104 863.718 210.159C863.662 210.215 863.596 210.259 863.523 210.289C863.45 210.32 863.372 210.335 863.293 210.335ZM734.886 209.134H862.693V192.196H734.886V209.134Z" fill="#6A93CE"/>
<path d="M863.293 222.962H734.285V241.101H863.293V222.962Z" fill="#F0F6FF"/>
<path d="M863.293 241.701H734.285C734.126 241.701 733.974 241.638 733.861 241.525C733.748 241.413 733.685 241.26 733.685 241.101V222.962C733.685 222.803 733.748 222.65 733.861 222.537C733.974 222.425 734.126 222.362 734.285 222.362H863.293C863.453 222.362 863.605 222.425 863.718 222.537C863.83 222.65 863.894 222.803 863.894 222.962V241.101C863.894 241.18 863.878 241.258 863.848 241.331C863.818 241.404 863.774 241.47 863.718 241.525C863.662 241.581 863.596 241.625 863.523 241.656C863.45 241.686 863.372 241.701 863.293 241.701ZM734.886 240.5H862.693V223.562H734.886V240.5Z" fill="#6A93CE"/>
<path d="M863.293 254.328H734.285V272.467H863.293V254.328Z" fill="#F0F6FF"/>
<path d="M863.293 273.062H734.285C734.126 273.062 733.974 272.998 733.861 272.886C733.748 272.773 733.685 272.62 733.685 272.461V254.328C733.685 254.169 733.748 254.016 733.861 253.904C733.974 253.791 734.126 253.728 734.285 253.728H863.293C863.453 253.728 863.605 253.791 863.718 253.904C863.83 254.016 863.894 254.169 863.894 254.328V272.461C863.894 272.54 863.878 272.618 863.848 272.691C863.818 272.764 863.774 272.83 863.718 272.886C863.662 272.941 863.596 272.986 863.523 273.016C863.45 273.046 863.372 273.062 863.293 273.062ZM734.886 271.861H862.693V254.929H734.886V271.861Z" fill="#6A93CE"/>
<path d="M863.293 285.697H734.285V303.836H863.293V285.697Z" fill="#F0F6FF"/>
<path d="M863.293 304.436H734.285C734.126 304.436 733.974 304.373 733.861 304.261C733.748 304.148 733.685 303.995 733.685 303.836V285.697C733.685 285.538 733.748 285.385 733.861 285.273C733.974 285.16 734.126 285.097 734.285 285.097H863.293C863.453 285.097 863.605 285.16 863.718 285.273C863.83 285.385 863.894 285.538 863.894 285.697V303.836C863.894 303.915 863.878 303.993 863.848 304.066C863.818 304.139 863.774 304.205 863.718 304.261C863.662 304.316 863.596 304.361 863.523 304.391C863.45 304.421 863.372 304.436 863.293 304.436ZM734.886 303.236H862.693V286.298H734.886V303.236Z" fill="#6A93CE"/>
<path d="M863.293 317.064H734.285V335.203H863.293V317.064Z" fill="#F0F6FF"/>
<path d="M863.293 335.806H734.285C734.126 335.806 733.974 335.743 733.861 335.63C733.748 335.517 733.685 335.365 733.685 335.205V317.066C733.685 316.907 733.748 316.755 733.861 316.642C733.974 316.529 734.126 316.466 734.285 316.466H863.293C863.453 316.466 863.605 316.529 863.718 316.642C863.83 316.755 863.894 316.907 863.894 317.066V335.205C863.894 335.284 863.878 335.362 863.848 335.435C863.818 335.508 863.774 335.574 863.718 335.63C863.662 335.686 863.596 335.73 863.523 335.76C863.45 335.79 863.372 335.806 863.293 335.806ZM734.886 334.605H862.693V317.667H734.886V334.605Z" fill="#6A93CE"/>
<path d="M863.293 348.43H734.285V366.569H863.293V348.43Z" fill="#F0F6FF"/>
<path d="M863.293 367.17H734.285C734.126 367.17 733.974 367.106 733.861 366.994C733.748 366.881 733.685 366.728 733.685 366.569V348.43C733.685 348.271 733.748 348.118 733.861 348.006C733.974 347.893 734.126 347.83 734.285 347.83H863.293C863.453 347.83 863.605 347.893 863.718 348.006C863.83 348.118 863.894 348.271 863.894 348.43V366.569C863.894 366.648 863.878 366.726 863.848 366.799C863.818 366.872 863.774 366.938 863.718 366.994C863.662 367.049 863.596 367.094 863.523 367.124C863.45 367.154 863.372 367.17 863.293 367.17ZM734.886 365.969H862.693V349.031H734.886V365.969Z" fill="#6A93CE"/>
<path d="M863.293 379.796H734.285V397.935H863.293V379.796Z" fill="#F0F6FF"/>
<path d="M863.293 398.55H734.285C734.126 398.55 733.974 398.487 733.861 398.374C733.748 398.262 733.685 398.109 733.685 397.95V379.808C733.685 379.649 733.748 379.496 733.861 379.383C733.974 379.271 734.126 379.208 734.285 379.208H863.293C863.453 379.208 863.605 379.271 863.718 379.383C863.83 379.496 863.894 379.649 863.894 379.808V397.95C863.894 398.029 863.878 398.107 863.848 398.18C863.818 398.253 863.774 398.319 863.718 398.374C863.662 398.43 863.596 398.474 863.523 398.505C863.45 398.535 863.372 398.55 863.293 398.55ZM734.886 397.349H862.693V380.408H734.886V397.349Z" fill="#6A93CE"/>
<path d="M863.293 411.166H734.285V429.305H863.293V411.166Z" fill="#F0F6FF"/>
<path d="M863.293 429.905H734.285C734.126 429.905 733.974 429.841 733.861 429.729C733.748 429.616 733.685 429.463 733.685 429.304V411.159C733.685 411 733.748 410.847 733.861 410.735C733.974 410.622 734.126 410.559 734.285 410.559H863.293C863.453 410.559 863.605 410.622 863.718 410.735C863.83 410.847 863.894 411 863.894 411.159V429.298C863.895 429.378 863.88 429.456 863.85 429.53C863.82 429.603 863.776 429.67 863.72 429.727C863.664 429.783 863.598 429.828 863.524 429.858C863.451 429.889 863.373 429.905 863.293 429.905ZM734.886 428.704H862.693V411.76H734.886V428.704Z" fill="#6A93CE"/>
<path d="M863.293 442.532H734.285V460.671H863.293V442.532Z" fill="#F0F6FF"/>
<path d="M863.293 461.271H734.285C734.126 461.271 733.974 461.208 733.861 461.095C733.748 460.983 733.685 460.83 733.685 460.671V442.532C733.685 442.373 733.748 442.22 733.861 442.107C733.974 441.995 734.126 441.931 734.285 441.931H863.293C863.453 441.931 863.605 441.995 863.718 442.107C863.83 442.22 863.894 442.373 863.894 442.532V460.671C863.894 460.75 863.878 460.828 863.848 460.901C863.818 460.973 863.774 461.04 863.718 461.095C863.662 461.151 863.596 461.195 863.523 461.225C863.45 461.256 863.372 461.271 863.293 461.271ZM734.886 460.07H862.693V443.132H734.886V460.07Z" fill="#6A93CE"/>
<path d="M863.293 473.899H734.285V492.038H863.293V473.899Z" fill="#F0F6FF"/>
<path d="M863.293 492.641H734.285C734.126 492.641 733.974 492.578 733.861 492.465C733.748 492.352 733.685 492.2 733.685 492.041V473.905C733.685 473.745 733.748 473.593 733.861 473.48C733.974 473.367 734.126 473.304 734.285 473.304H863.293C863.453 473.304 863.605 473.367 863.718 473.48C863.83 473.593 863.894 473.745 863.894 473.905V492.047C863.892 492.205 863.828 492.356 863.716 492.467C863.603 492.579 863.451 492.641 863.293 492.641ZM734.886 491.44H862.693V474.505H734.886V491.44Z" fill="#6A93CE"/>
<path d="M863.293 505.265H734.285V523.404H863.293V505.265Z" fill="#F0F6FF"/>
<path d="M863.293 524.007H734.285C734.126 524.007 733.974 523.944 733.861 523.831C733.748 523.718 733.685 523.566 733.685 523.406V505.264C733.685 505.105 733.748 504.953 733.861 504.84C733.974 504.727 734.126 504.664 734.285 504.664H863.293C863.453 504.664 863.605 504.727 863.718 504.84C863.83 504.953 863.894 505.105 863.894 505.264V523.406C863.894 523.485 863.878 523.563 863.848 523.636C863.818 523.709 863.774 523.775 863.718 523.831C863.662 523.887 863.596 523.931 863.523 523.961C863.45 523.991 863.372 524.007 863.293 524.007ZM734.886 522.806H862.693V505.865H734.886V522.806Z" fill="#6A93CE"/>
<path d="M863.293 536.634H734.285V554.773H863.293V536.634Z" fill="#F0F6FF"/>
<path d="M863.293 555.373H734.285C734.126 555.373 733.974 555.31 733.861 555.197C733.748 555.085 733.685 554.932 733.685 554.773V536.649C733.685 536.49 733.748 536.337 733.861 536.224C733.974 536.112 734.126 536.048 734.285 536.048H863.293C863.453 536.048 863.605 536.112 863.718 536.224C863.83 536.337 863.894 536.49 863.894 536.649V554.788C863.89 554.944 863.825 555.093 863.713 555.203C863.6 555.312 863.45 555.373 863.293 555.373ZM734.886 554.172H862.693V537.249H734.886V554.172Z" fill="#6A93CE"/>
<path d="M863.293 568H734.285V586.139H863.293V568Z" fill="#F0F6FF"/>
<path d="M863.293 586.74H734.285C734.126 586.74 733.974 586.676 733.861 586.564C733.748 586.451 733.685 586.298 733.685 586.139V568C733.685 567.841 733.748 567.688 733.861 567.576C733.974 567.463 734.126 567.4 734.285 567.4H863.293C863.453 567.4 863.605 567.463 863.718 567.576C863.83 567.688 863.894 567.841 863.894 568V586.139C863.894 586.218 863.878 586.296 863.848 586.369C863.818 586.442 863.774 586.508 863.718 586.564C863.662 586.62 863.596 586.664 863.523 586.694C863.45 586.724 863.372 586.74 863.293 586.74ZM734.886 585.539H862.693V568.601H734.886V585.539Z" fill="#6A93CE"/>
<path d="M828.996 256.943H811.068V716.477H942.732V370.679C942.732 307.865 891.81 256.943 828.996 256.943Z" fill="#8398B2"/>
<path d="M816.577 256.943H798.651V716.477H930.316V370.679C930.316 307.865 879.394 256.943 816.577 256.943Z" fill="#C7D5EA"/>
<path d="M915.521 343.386H902.888V703.823H915.521V343.386Z" fill="white"/>
<path d="M883.942 343.386H871.309V703.823H883.942V343.386Z" fill="white"/>
<path d="M852.36 343.386H839.727V703.823H852.36V343.386Z" fill="white"/>
<path d="M820.777 343.386H808.144V703.823H820.777V343.386Z" fill="white"/>
<path d="M793.695 633.585C765.775 631.396 746.336 612.603 753.229 587.427C760.122 562.251 782.304 562.848 779.005 545.163C775.706 527.477 773.301 521.332 786.949 507.993C800.596 494.655 821.269 489.11 825.016 513.697C828.762 538.285 819.471 563.305 820.212 576.643C820.954 589.982 833.101 602.423 827.718 618.007C822.335 633.591 801.338 634.185 793.695 633.585Z" fill="#BBD7FF"/>
<mask id="mask0_54_7331" style="mask-type:luminance" maskUnits="userSpaceOnUse" x="751" y="496" width="79" height="138">
<path d="M793.695 633.585C765.775 631.396 746.336 612.603 753.229 587.427C760.122 562.251 782.304 562.848 779.005 545.163C775.706 527.477 773.301 521.332 786.949 507.993C800.596 494.655 821.269 489.11 825.016 513.697C828.762 538.285 819.471 563.305 820.212 576.643C820.954 589.982 833.101 602.423 827.718 618.007C822.335 633.591 801.338 634.185 793.695 633.585Z" fill="white"/>
</mask>
<g mask="url(#mask0_54_7331)">
<path d="M749.458 604.848C748.93 603.547 748.455 602.201 748.032 600.81C748.417 602.187 748.894 603.536 749.458 604.848ZM821.269 489.11C821.269 489.11 825.586 531.332 809.768 558.937C793.95 586.541 817.832 599.261 805.115 612.909C793.055 625.851 759.515 628.19 749.47 604.848C762.98 638.064 810.077 642.375 810.077 642.375L843.887 623.762C843.887 623.762 848.541 597.397 845.44 573.824C842.338 550.251 821.269 489.11 821.269 489.11Z" fill="#93B8E5"/>
</g>
<path d="M702.718 344.134C711.124 344.257 721.751 373.66 724.3 393.741C726.849 413.822 719.197 440.499 697.473 440.499C675.75 440.499 672.303 414.873 674.405 396.587C676.506 378.301 692.379 343.984 702.718 344.134Z" fill="#9AB6E2"/>
<mask id="mask1_54_7331" style="mask-type:luminance" maskUnits="userSpaceOnUse" x="673" y="344" width="52" height="97">
<path d="M702.718 344.134C711.124 344.257 721.751 373.66 724.3 393.741C726.849 413.822 719.197 440.499 697.473 440.499C675.75 440.499 672.303 414.873 674.405 396.587C676.506 378.301 692.379 343.984 702.718 344.134Z" fill="white"/>
</mask>
<g mask="url(#mask1_54_7331)">
<g opacity="0.43">
<path d="M704.525 338.658C709.487 348.895 713.21 394.954 699.721 416.668C686.233 438.383 670.255 407.518 670.255 407.518C670.255 407.518 673.51 424.423 674.759 429.695C676.007 434.967 681.117 439.776 689.025 444.582C696.932 449.389 714.615 442.568 719.268 440.079C723.922 437.59 730.28 404.564 730.589 391.847C730.899 379.13 718.794 346.412 704.525 338.658Z" fill="#668BBF"/>
</g>
</g>
<path d="M700.172 363.017C700.172 363.017 696.726 393.441 697.026 403.933C693.528 399.13 687.434 380.553 687.434 380.553C687.434 380.553 687.932 397.539 696.125 407.23C695.225 422.916 694.624 551.404 694.624 551.404L706.014 549.303C706.014 549.303 701.667 456.984 702.112 434.801C702.412 421.913 702.412 419.665 702.412 419.665C702.412 419.665 712.004 419.217 718.296 410.223C712.751 413.225 708.257 414.87 701.061 415.471C700.773 403.933 699.572 383.999 700.172 363.017Z" fill="#4E4E6B"/>
<mask id="mask2_54_7331" style="mask-type:luminance" maskUnits="userSpaceOnUse" x="687" y="363" width="32" height="189">
<path d="M700.172 363.017C700.172 363.017 696.726 393.441 697.026 403.933C693.528 399.13 687.434 380.553 687.434 380.553C687.434 380.553 687.932 397.539 696.125 407.23C695.225 422.916 694.624 551.404 694.624 551.404L706.014 549.303C706.014 549.303 701.667 456.984 702.112 434.801C702.412 421.913 702.412 419.665 702.412 419.665C702.412 419.665 712.004 419.217 718.296 410.223C712.751 413.225 708.257 414.87 701.061 415.471C700.773 403.933 699.572 383.999 700.172 363.017Z" fill="white"/>
</mask>
<g mask="url(#mask2_54_7331)">
<g opacity="0.43">
<path d="M700.172 363.017L684.726 363.885L672.717 435.123L691.03 561.053C691.652 560.123 701.886 552.047 701.886 552.047C701.886 552.047 698.884 448.242 698.68 417.638C698.476 387.034 700.172 363.017 700.172 363.017Z" fill="#668BBF"/>
</g>
</g>
<path d="M790.995 737.297C790.995 737.297 787.597 683.258 787.624 630.289C787.624 630.289 773.412 622.696 767.615 609.106C772.61 616.311 779.704 622.195 788.098 625.494C787.3 605.212 788.597 590.922 790.5 573.137C792.403 555.352 793.397 549.159 793.397 549.159C793.397 549.159 787.003 543.065 786.702 530.576C789.801 536.97 793.007 540.567 796.093 542.464C798.591 526.58 807.285 508.894 807.285 508.894C807.285 508.894 800.38 538.369 797.792 567.343C797.792 567.343 809.981 561.747 814.778 543.164C813.379 557.352 805.385 567.943 798.192 572.738C797.192 590.324 796.792 605.71 796.792 605.71C796.792 605.71 807.783 607.511 814.379 595.32C810.776 605.311 804.586 609.907 796.792 609.907C797.192 625.494 799.591 716.813 804.187 738.195C796.39 737.996 790.995 737.297 790.995 737.297Z" fill="#668BBF"/>
<mask id="mask3_54_7331" style="mask-type:luminance" maskUnits="userSpaceOnUse" x="767" y="508" width="48" height="231">
<path d="M790.995 737.297C790.995 737.297 787.597 683.258 787.624 630.289C787.624 630.289 773.412 622.696 767.615 609.106C772.61 616.311 779.704 622.195 788.098 625.494C787.3 605.212 788.597 590.922 790.5 573.137C792.403 555.352 793.397 549.159 793.397 549.159C793.397 549.159 787.003 543.065 786.702 530.576C789.801 536.97 793.007 540.567 796.093 542.464C798.591 526.58 807.285 508.894 807.285 508.894C807.285 508.894 800.38 538.369 797.792 567.343C797.792 567.343 809.981 561.747 814.778 543.164C813.379 557.352 805.385 567.943 798.192 572.738C797.192 590.324 796.792 605.71 796.792 605.71C796.792 605.71 807.783 607.511 814.379 595.32C810.776 605.311 804.586 609.907 796.792 609.907C797.192 625.494 799.591 716.813 804.187 738.195C796.39 737.996 790.995 737.297 790.995 737.297Z" fill="white"/>
</mask>
<g mask="url(#mask3_54_7331)">
<path d="M806.904 509.516C806.904 509.516 805.25 501.866 803.803 501.866C802.356 501.866 757.69 518.408 757.69 518.408L752.625 611.357L780.023 736.564H797.807C797.807 736.564 786.435 663.156 790.984 601.534C795.532 539.913 806.904 509.516 806.904 509.516Z" fill="#8AB2E2"/>
</g>
<path d="M410.652 272.833V618.608H542.311V159.094H524.388C461.574 159.094 410.652 210.017 410.652 272.833Z" fill="#BCC7DD"/>
<path d="M438.077 245.541H425.444V605.977H438.077V245.541Z" fill="white"/>
<path d="M469.659 245.541H457.026V605.977H469.659V245.541Z" fill="white"/>
<path d="M501.241 245.541H488.608V605.977H501.241V245.541Z" fill="white"/>
<path d="M532.824 245.541H520.191V605.977H532.824V245.541Z" fill="white"/>
<path d="M781.481 811.585C781.481 811.585 752.724 806.676 760.088 775.463C767.452 744.25 799.368 749.158 804.628 751.614C802.526 735.132 815.502 728.819 822.515 731.974C817.255 703.216 840.401 682.174 866.703 690.244C872.665 675.864 888.799 674.462 895.824 682.877C905.995 664.993 944.573 656.926 956.497 693.384C956.497 757.564 896.878 808.768 896.878 808.768L781.481 811.585Z" fill="#BBD7FF"/>
<mask id="mask4_54_7331" style="mask-type:luminance" maskUnits="userSpaceOnUse" x="758" y="667" width="199" height="145">
<path d="M781.481 811.585C781.481 811.585 752.724 806.676 760.088 775.463C767.452 744.25 799.368 749.158 804.628 751.614C802.526 735.132 815.502 728.819 822.515 731.974C817.255 703.216 840.401 682.174 866.703 690.244C872.665 675.864 888.799 674.462 895.824 682.877C905.995 664.993 944.573 656.926 956.497 693.384C956.497 757.564 896.878 808.768 896.878 808.768L781.481 811.585Z" fill="white"/>
</mask>
<g mask="url(#mask4_54_7331)">
<path d="M913.375 722.064C913.375 722.064 908.088 714.477 901.417 714.937C894.746 715.396 894.059 724.826 894.059 724.826C894.059 724.826 879.348 712.406 862.558 723.445C845.767 734.484 852.209 757.936 852.209 757.936C852.209 757.936 840.711 754.034 834.962 761.158C829.213 768.282 832.893 774.724 832.893 774.724C832.893 774.724 808.06 757.936 787.591 776.793C767.123 795.649 789.891 813.119 789.891 813.119C789.891 813.119 895.14 806.67 896.13 806.451C897.121 806.232 913.147 794.034 946.029 732.406C938.893 710.106 913.375 722.064 913.375 722.064Z" fill="#92BEF4"/>
</g>
<path d="M723.066 238.537H707.386C715.394 238.537 723.073 241.718 728.735 247.38C734.398 253.042 737.579 260.722 737.579 268.729V769.116C737.579 777.124 734.398 784.804 728.736 790.467C723.074 796.129 715.394 799.311 707.386 799.312H723.066C731.075 799.312 738.755 796.13 744.418 790.468C750.081 784.805 753.262 777.125 753.262 769.116V268.723C753.259 260.716 750.077 253.038 744.415 247.377C738.752 241.717 731.073 238.537 723.066 238.537Z" fill="#BF8932"/>
<path d="M707.387 238.537H491.131C483.123 238.537 475.443 241.718 469.78 247.38C464.118 253.042 460.936 260.721 460.935 268.729V769.116C460.935 777.125 464.116 784.805 469.779 790.468C475.442 796.13 483.122 799.312 491.131 799.312H707.387C715.394 799.311 723.074 796.129 728.736 790.467C734.398 784.804 737.579 777.124 737.579 769.116V268.723C737.577 260.717 734.396 253.039 728.734 247.378C723.072 241.717 715.393 238.537 707.387 238.537ZM725.949 767.558C725.949 773.074 723.758 778.363 719.858 782.263C715.958 786.163 710.668 788.354 705.153 788.354H493.376C487.862 788.351 482.574 786.159 478.675 782.26C474.776 778.36 472.584 773.073 472.58 767.558V270.377C472.584 264.863 474.776 259.575 478.675 255.676C482.574 251.777 487.862 249.585 493.376 249.581H705.165C710.68 249.581 715.97 251.772 719.87 255.672C723.77 259.572 725.961 264.862 725.961 270.377L725.949 767.558Z" fill="#EAC77A"/>
<path d="M476.618 268.723C476.61 263.625 477.9 258.61 480.365 254.148C477.93 256.091 475.964 258.557 474.613 261.363C473.262 264.17 472.56 267.244 472.559 270.359V767.552C472.557 770.687 473.265 773.782 474.631 776.605C475.996 779.427 477.983 781.903 480.443 783.848C477.922 779.347 476.602 774.274 476.609 769.116L476.618 268.723Z" fill="#BF8932"/>
<path d="M725.949 270.377V767.552C725.949 773.068 723.758 778.357 719.858 782.257C715.958 786.157 710.668 788.348 705.153 788.348H493.376C488.687 788.351 484.136 786.764 480.467 783.845C477.946 779.345 476.626 774.272 476.633 769.113V268.723C476.621 263.627 477.905 258.611 480.365 254.148C484.049 251.184 488.636 249.572 493.364 249.579H575.073C575.073 264.589 586.397 276.742 600.366 276.742C614.335 276.742 625.656 264.58 625.656 249.579H705.153C707.884 249.579 710.589 250.117 713.112 251.162C715.635 252.207 717.928 253.739 719.859 255.671C721.79 257.602 723.322 259.895 724.366 262.418C725.411 264.942 725.949 267.646 725.949 270.377Z" fill="white"/>
<mask id="mask5_54_7331" style="mask-type:luminance" maskUnits="userSpaceOnUse" x="476" y="249" width="250" height="540">
<path d="M725.949 270.377V767.552C725.949 773.068 723.758 778.357 719.858 782.257C715.958 786.157 710.668 788.348 705.153 788.348H493.376C488.687 788.351 484.136 786.764 480.467 783.845C477.946 779.345 476.626 774.272 476.633 769.113V268.723C476.621 263.627 477.905 258.611 480.365 254.148C484.049 251.184 488.636 249.572 493.364 249.579H575.073C575.073 264.589 586.397 276.742 600.366 276.742C614.335 276.742 625.656 264.58 625.656 249.579H705.153C707.884 249.579 710.589 250.117 713.112 251.162C715.635 252.207 717.928 253.739 719.859 255.671C721.79 257.602 723.322 259.895 724.366 262.418C725.411 264.942 725.949 267.646 725.949 270.377Z" fill="white"/>
</mask>
<g mask="url(#mask5_54_7331)">
<g opacity="0.73">
<path d="M395.206 806.148C395.206 806.148 427.029 838.421 427.95 835.662C428.872 832.903 668.938 218.473 668.938 218.473L629.388 219.392C626.626 234.109 395.206 806.148 395.206 806.148Z" fill="white"/>
</g>
<g opacity="0.73">
<path d="M473.021 816.346H530.969L762.758 300.335L714.928 229.509L473.021 816.346Z" fill="white"/>
</g>
</g>
<path d="M278.918 125.737C222.631 113.2 130.337 191.184 85.3286 196.474C51.1342 200.505 11.6801 182.595 -10.4156 202.295C-32.5113 221.995 -28.2993 264.976 43.2446 270.359C114.789 275.742 138.986 267.225 215.792 228.275C292.599 189.326 335.208 138.265 278.918 125.737Z" fill="#F0F5FF"/>
<path d="M588.595 403.712C588.595 403.712 541.248 468.945 575.968 523.128C610.687 577.31 650.67 620.451 619.105 686.744C587.541 753.037 497.06 788.273 391.321 806.157H651.721C651.721 806.157 715.366 768.282 723.79 696.213C732.214 624.144 697.461 593.011 649.337 544.398C601.213 495.784 597.55 460.002 614.896 424.228C632.243 388.455 635.413 343.741 635.413 343.741L588.595 403.712Z" fill="#C9D3E2"/>
<mask id="mask6_54_7331" style="mask-type:luminance" maskUnits="userSpaceOnUse" x="391" y="343" width="335" height="464">
<path d="M588.595 403.712C588.595 403.712 541.248 468.945 575.968 523.128C610.687 577.31 650.67 620.451 619.105 686.744C587.541 753.037 497.06 788.273 391.321 806.157H651.721C651.721 806.157 715.366 768.282 723.79 696.213C732.214 624.144 697.461 593.011 649.337 544.398C601.213 495.784 597.55 460.002 614.896 424.228C632.243 388.455 635.413 343.741 635.413 343.741L588.595 403.712Z" fill="white"/>
</mask>
<g mask="url(#mask6_54_7331)">
<path d="M562.701 416.23C526.376 460.38 565.001 522.926 565.001 524.307C565.001 525.688 605.932 569.838 611.45 617.674C616.968 665.51 412.772 781.858 412.772 781.858C412.772 781.858 398.962 800.714 445.426 805.313C549.363 784.617 624.789 718.852 635.824 663.204C646.86 607.557 620.649 579.961 582.017 526.607C543.386 473.253 562.701 416.23 562.701 416.23Z" fill="#7C8DA5"/>
<g opacity="0.2">
<path d="M611.297 481.536L578.796 559.72L620.496 615.521L660.046 528.447L632.453 475.712L611.297 481.536Z" fill="white"/>
</g>
<g opacity="0.2">
<path d="M580.087 400.772C580.087 401.691 555.484 481.485 555.484 481.485L561.693 492.983L601.474 385.825C601.474 385.825 580.087 399.854 580.087 400.772Z" fill="white"/>
</g>
</g>
<path d="M597.412 417.605C596.956 417.606 596.509 417.485 596.115 417.254C595.722 417.024 595.398 416.692 595.176 416.294C594.955 415.895 594.844 415.445 594.856 414.989C594.867 414.533 595 414.089 595.242 413.702C600.06 405.87 604.02 401.189 604.185 400.994C604.623 400.477 605.249 400.154 605.924 400.098C606.6 400.042 607.27 400.256 607.788 400.694C608.305 401.132 608.628 401.757 608.684 402.433C608.74 403.109 608.526 403.779 608.088 404.297C608.052 404.342 604.185 408.902 599.604 416.374C599.376 416.751 599.054 417.062 598.67 417.278C598.286 417.494 597.853 417.606 597.412 417.605ZM587.487 786.754C586.943 786.754 586.414 786.581 585.975 786.26C585.537 785.938 585.213 785.485 585.05 784.966C584.887 784.448 584.894 783.89 585.07 783.376C585.246 782.862 585.582 782.417 586.028 782.107C594.818 775.997 603.194 769.744 610.922 763.52C611.181 763.296 611.483 763.127 611.809 763.022C612.135 762.918 612.478 762.88 612.819 762.91C613.16 762.941 613.492 763.04 613.793 763.202C614.095 763.364 614.361 763.584 614.576 763.851C614.791 764.117 614.95 764.425 615.044 764.754C615.137 765.083 615.164 765.428 615.121 765.768C615.079 766.108 614.969 766.435 614.797 766.732C614.625 767.028 614.396 767.286 614.122 767.492C606.317 773.797 597.83 780.119 588.943 786.297C588.516 786.595 588.008 786.755 587.487 786.754ZM635.954 747.399C635.446 747.399 634.949 747.248 634.528 746.965C634.106 746.682 633.779 746.28 633.587 745.809C633.396 745.339 633.349 744.822 633.453 744.325C633.557 743.828 633.807 743.373 634.17 743.019C642.102 735.288 649.043 727.57 654.801 720.079C655.213 719.543 655.822 719.192 656.493 719.104C657.164 719.016 657.843 719.199 658.38 719.611C658.916 720.023 659.267 720.632 659.355 721.303C659.443 721.974 659.26 722.653 658.848 723.19C652.943 730.872 645.837 738.774 637.734 746.672C637.258 747.138 636.619 747.398 635.954 747.399ZM672.973 697.545C672.55 697.544 672.133 697.438 671.761 697.237C671.388 697.035 671.072 696.744 670.84 696.39C670.608 696.035 670.468 695.629 670.432 695.207C670.396 694.785 670.466 694.361 670.634 693.973C673.402 687.617 675.276 681.334 676.203 675.296C676.745 671.77 677.071 668.214 677.179 664.648C677.189 664.313 677.265 663.983 677.403 663.677C677.541 663.372 677.737 663.096 677.982 662.866C678.226 662.637 678.513 662.457 678.826 662.338C679.14 662.22 679.474 662.164 679.809 662.174C680.144 662.184 680.474 662.26 680.779 662.398C681.085 662.536 681.361 662.732 681.59 662.977C681.82 663.221 681.999 663.508 682.118 663.822C682.237 664.135 682.293 664.469 682.283 664.804C682.167 668.578 681.822 672.342 681.25 676.074C680.256 682.541 678.248 689.25 675.318 696.011C675.119 696.468 674.791 696.856 674.375 697.129C673.958 697.401 673.471 697.546 672.973 697.545ZM675.675 636.461C675.12 636.46 674.581 636.28 674.138 635.945C673.696 635.611 673.374 635.142 673.222 634.608C670.613 625.464 666.795 616.199 661.547 606.289C661.228 605.692 661.16 604.993 661.357 604.345C661.554 603.698 662 603.155 662.598 602.837C663.195 602.518 663.894 602.45 664.541 602.647C665.189 602.844 665.732 603.29 666.05 603.888C671.454 614.119 675.414 623.702 678.122 633.197C678.214 633.52 678.241 633.857 678.203 634.189C678.165 634.522 678.061 634.844 677.899 635.137C677.736 635.43 677.517 635.688 677.254 635.896C676.992 636.104 676.691 636.258 676.368 636.35C676.144 636.419 675.91 636.457 675.675 636.461ZM647.386 581.08C646.973 581.082 646.566 580.983 646.2 580.792C645.834 580.601 645.519 580.324 645.284 579.985C638.8 570.678 631.943 561.768 626.692 555.067C626.3 554.531 626.132 553.865 626.223 553.207C626.314 552.55 626.657 551.954 627.179 551.545C627.702 551.136 628.363 550.947 629.023 551.017C629.683 551.087 630.29 551.411 630.715 551.921C636.005 558.687 642.919 567.658 649.475 577.085C649.741 577.468 649.898 577.916 649.927 578.382C649.956 578.848 649.856 579.312 649.64 579.726C649.423 580.139 649.097 580.485 648.698 580.726C648.298 580.967 647.84 581.093 647.374 581.092L647.386 581.08ZM609.391 531.473C609 531.473 608.615 531.384 608.264 531.212C607.913 531.041 607.607 530.791 607.367 530.482C599.168 519.864 593.557 511.935 589.159 504.772C588.81 504.195 588.702 503.504 588.861 502.848C589.02 502.193 589.432 501.627 590.007 501.274C590.582 500.921 591.273 500.81 591.929 500.966C592.586 501.121 593.154 501.53 593.509 502.103C597.803 509.104 603.323 516.892 611.408 527.36C611.7 527.737 611.88 528.189 611.928 528.664C611.977 529.138 611.891 529.617 611.681 530.045C611.471 530.473 611.145 530.834 610.74 531.087C610.335 531.339 609.868 531.473 609.391 531.473ZM581.141 476.78C580.508 476.779 579.899 476.543 579.43 476.118C578.961 475.693 578.667 475.11 578.604 474.481C578.373 472.139 578.256 469.734 578.256 467.335C578.256 459.401 579.532 451.094 582.05 442.652C582.144 442.328 582.301 442.027 582.512 441.764C582.723 441.502 582.984 441.284 583.279 441.123C583.575 440.961 583.9 440.86 584.234 440.825C584.569 440.79 584.908 440.821 585.231 440.918C585.553 441.014 585.854 441.173 586.114 441.386C586.375 441.599 586.591 441.861 586.75 442.158C586.909 442.455 587.008 442.78 587.041 443.116C587.073 443.451 587.039 443.789 586.941 444.111C584.563 452.079 583.359 459.893 583.359 467.335C583.359 469.566 583.467 471.803 583.683 473.976C583.75 474.65 583.546 475.322 583.117 475.845C582.688 476.369 582.069 476.701 581.396 476.768C581.321 476.783 581.234 476.789 581.15 476.789L581.141 476.78ZM548.264 811.344C547.695 811.344 547.142 811.154 546.694 810.804C546.245 810.454 545.927 809.963 545.789 809.411C545.651 808.859 545.701 808.277 545.932 807.757C546.163 807.237 546.561 806.809 547.063 806.541C547.111 806.514 552.137 803.797 560.063 798.997C560.641 798.646 561.336 798.539 561.993 798.701C562.651 798.862 563.217 799.278 563.568 799.857C563.918 800.435 564.025 801.13 563.863 801.787C563.702 802.445 563.286 803.011 562.708 803.362C554.662 808.237 549.693 810.921 549.498 811.035C549.12 811.241 548.695 811.347 548.264 811.344Z" fill="white"/>
<path d="M618.316 256.108C618.316 256.108 618.316 256.129 618.316 256.138C608.346 254.136 600.177 255.616 597.169 256.33C596.409 256.54 595.653 256.759 594.899 256.994C572.701 263.938 558.168 288.264 560.231 313.995C562.332 340.114 571.26 363.464 583.026 385.53C586.875 392.735 593.233 403.27 598.61 411.907C603.344 419.508 613.434 419.616 618.202 412.039C618.232 411.988 618.265 411.937 618.298 411.889C632.456 389.322 644.852 365.707 651.907 339.06C655.482 325.55 657.74 311.861 655.209 297.7C651.448 276.799 636.878 260.521 618.316 256.108ZM607.508 332.716C595.434 332.716 585.644 321.768 585.644 308.261C585.644 294.754 595.434 283.806 607.508 283.806C619.583 283.806 629.373 294.754 629.373 308.261C629.373 321.768 619.592 332.716 607.517 332.716H607.508Z" fill="#FF8308"/>
<path d="M605.842 256.108C605.841 256.118 605.841 256.128 605.842 256.138C595.872 254.136 587.7 255.616 584.695 256.33C583.936 256.54 583.194 256.759 582.426 256.994C560.228 263.938 545.691 288.264 547.757 313.995C549.858 340.114 558.787 363.464 570.552 385.53C574.401 392.735 580.759 403.27 586.136 411.907C590.868 419.508 600.958 419.616 605.725 412.039L605.821 411.889C619.982 389.322 632.375 365.707 639.445 339.06C643.021 325.55 645.278 311.861 642.748 297.7C638.98 276.799 624.39 260.521 605.842 256.108ZM595.035 332.716C582.957 332.716 573.17 321.768 573.17 308.261C573.17 294.754 582.957 283.806 595.035 283.806C607.112 283.806 616.899 294.754 616.899 308.261C616.899 321.768 607.118 332.716 595.044 332.716H595.035Z" fill="#FFCC66"/>
<path d="M898.44 798.258H-108.024C-112.27 798.258 -115.712 801.701 -115.712 805.947V806.352C-115.712 810.598 -112.27 814.041 -108.024 814.041H898.44C902.686 814.041 906.128 810.598 906.128 806.352V805.947C906.128 801.701 902.686 798.258 898.44 798.258Z" fill="#677B99"/>
<mask id="mask7_54_7331" style="mask-type:luminance" maskUnits="userSpaceOnUse" x="-116" y="798" width="1023" height="17">
<path d="M898.44 798.258H-108.024C-112.27 798.258 -115.712 801.701 -115.712 805.947V806.352C-115.712 810.598 -112.27 814.041 -108.024 814.041H898.44C902.686 814.041 906.128 810.598 906.128 806.352V805.947C906.128 801.701 902.686 798.258 898.44 798.258Z" fill="white"/>
</mask>
<g mask="url(#mask7_54_7331)">
<path d="M918.205 804.389H-130.372V822.786H918.205V804.389Z" fill="#4A5F7C"/>
</g>
<path d="M569.156 674.72C576.63 674.72 582.689 667.197 582.689 657.917C582.689 648.637 576.63 641.114 569.156 641.114C561.681 641.114 555.622 648.637 555.622 657.917C555.622 667.197 561.681 674.72 569.156 674.72Z" fill="#FFD28E"/>
<path d="M242.499 798.402C268.275 798.402 289.171 773.849 289.171 743.562C289.171 713.275 268.275 688.722 242.499 688.722C216.724 688.722 195.828 713.275 195.828 743.562C195.828 773.849 216.724 798.402 242.499 798.402Z" fill="#00325B"/>
<path d="M257.126 798.402C282.902 798.402 303.797 773.849 303.797 743.562C303.797 713.275 282.902 688.722 257.126 688.722C231.35 688.722 210.455 713.275 210.455 743.562C210.455 773.849 231.35 798.402 257.126 798.402Z" fill="#344058"/>
<path d="M567.571 657.917H120.835V741.524H567.571V657.917Z" fill="#00325B"/>
<path d="M475.859 798.402C501.635 798.402 522.53 773.849 522.53 743.562C522.53 713.275 501.635 688.722 475.859 688.722C450.083 688.722 429.188 713.275 429.188 743.562C429.188 773.849 450.083 798.402 475.859 798.402Z" fill="#344058"/>
<path d="M490.485 798.402C516.261 798.402 537.156 773.849 537.156 743.562C537.156 713.275 516.261 688.722 490.485 688.722C464.709 688.722 443.814 713.275 443.814 743.562C443.814 773.849 464.709 798.402 490.485 798.402Z" fill="#495870"/>
<path d="M490.485 766.045C501.053 766.045 509.621 755.979 509.621 743.562C509.621 731.145 501.053 721.079 490.485 721.079C479.917 721.079 471.349 731.145 471.349 743.562C471.349 755.979 479.917 766.045 490.485 766.045Z" fill="#212C3F"/>
<mask id="mask8_54_7331" style="mask-type:luminance" maskUnits="userSpaceOnUse" x="471" y="721" width="39" height="46">
<path d="M490.485 766.045C501.053 766.045 509.621 755.979 509.621 743.562C509.621 731.145 501.053 721.079 490.485 721.079C479.917 721.079 471.349 731.145 471.349 743.562C471.349 755.979 479.917 766.045 490.485 766.045Z" fill="white"/>
</mask>
<g mask="url(#mask8_54_7331)">
<path d="M485.832 766.045C496.4 766.045 504.968 755.979 504.968 743.562C504.968 731.145 496.4 721.079 485.832 721.079C475.264 721.079 466.696 731.145 466.696 743.562C466.696 755.979 475.264 766.045 485.832 766.045Z" fill="#344058"/>
</g>
<path d="M490.485 758.003C497.273 758.003 502.776 751.538 502.776 743.563C502.776 735.587 497.273 729.122 490.485 729.122C483.697 729.122 478.194 735.587 478.194 743.563C478.194 751.538 483.697 758.003 490.485 758.003Z" fill="#798DAA"/>
<path d="M173.583 798.402C199.358 798.402 220.254 773.849 220.254 743.562C220.254 713.275 199.358 688.722 173.583 688.722C147.807 688.722 126.911 713.275 126.911 743.562C126.911 773.849 147.807 798.402 173.583 798.402Z" fill="#344058"/>
<path d="M188.206 798.402C213.982 798.402 234.877 773.849 234.877 743.562C234.877 713.275 213.982 688.722 188.206 688.722C162.43 688.722 141.535 713.275 141.535 743.562C141.535 773.849 162.43 798.402 188.206 798.402Z" fill="#495870"/>
<path d="M-45.1532 798.402C-19.3774 798.402 1.51799 773.849 1.51799 743.562C1.51799 713.275 -19.3774 688.722 -45.1532 688.722C-70.929 688.722 -91.8245 713.275 -91.8245 743.562C-91.8245 773.849 -70.929 798.402 -45.1532 798.402Z" fill="#344058"/>
<path d="M188.206 766.045C198.774 766.045 207.342 755.979 207.342 743.562C207.342 731.145 198.774 721.079 188.206 721.079C177.638 721.079 169.071 731.145 169.071 743.562C169.071 755.979 177.638 766.045 188.206 766.045Z" fill="#212C3F"/>
<mask id="mask9_54_7331" style="mask-type:luminance" maskUnits="userSpaceOnUse" x="169" y="721" width="39" height="46">
<path d="M188.206 766.045C198.774 766.045 207.342 755.979 207.342 743.562C207.342 731.145 198.774 721.079 188.206 721.079C177.638 721.079 169.071 731.145 169.071 743.562C169.071 755.979 177.638 766.045 188.206 766.045Z" fill="white"/>
</mask>
<g mask="url(#mask9_54_7331)">
<path d="M184.658 766.894C195.226 766.894 203.793 756.829 203.793 744.412C203.793 731.994 195.226 721.928 184.658 721.928C174.089 721.928 165.522 731.994 165.522 744.412C165.522 756.829 174.089 766.894 184.658 766.894Z" fill="#344058"/>
</g>
<path d="M188.206 758.003C194.994 758.003 200.497 751.538 200.497 743.563C200.497 735.587 194.994 729.122 188.206 729.122C181.418 729.122 175.915 735.587 175.915 743.563C175.915 751.538 181.418 758.003 188.206 758.003Z" fill="#798DAA"/>
<path d="M94.9416 716.258H102.642V421.748H389.046V470.602H465.339C467.37 470.603 469.359 471.178 471.077 472.262C472.794 473.346 474.17 474.894 475.045 476.726L520.077 571.075C520.676 572.323 521.51 573.444 522.533 574.377L565.863 613.945C566.968 614.956 567.85 616.187 568.452 617.558C569.055 618.93 569.364 620.412 569.36 621.91V716.033H578.694C581.974 716.034 585.12 717.337 587.439 719.656C589.758 721.976 591.062 725.121 591.063 728.402V728.654C591.062 731.934 589.758 735.08 587.439 737.399C585.12 739.718 581.974 741.022 578.694 741.023H541.35C541.134 709.8 518.447 684.534 490.485 684.534C462.523 684.534 439.836 709.782 439.617 741.02H239.374C239.152 709.782 216.465 684.54 188.509 684.54C160.553 684.54 137.863 709.782 137.641 741.014H94.9386C91.6587 741.013 88.5134 739.709 86.1945 737.39C83.8755 735.07 82.5728 731.925 82.5728 728.645C82.5704 727.019 82.8886 725.409 83.5091 723.906C84.1296 722.403 85.0404 721.037 86.1891 719.887C87.3379 718.737 88.7022 717.824 90.2041 717.201C91.7059 716.578 93.3157 716.258 94.9416 716.258Z" fill="#F86748"/>
<mask id="mask10_54_7331" style="mask-type:luminance" maskUnits="userSpaceOnUse" x="82" y="421" width="510" height="321">
<path d="M94.9416 716.258H102.642V421.748H389.046V470.602H465.339C467.37 470.603 469.359 471.178 471.077 472.262C472.794 473.346 474.17 474.894 475.045 476.726L520.077 571.075C520.676 572.323 521.51 573.444 522.533 574.377L565.863 613.945C566.968 614.956 567.85 616.187 568.452 617.558C569.055 618.93 569.364 620.412 569.36 621.91V716.033H578.694C581.974 716.034 585.12 717.337 587.439 719.656C589.758 721.976 591.062 725.121 591.063 728.402V728.654C591.062 731.934 589.758 735.08 587.439 737.399C585.12 739.718 581.974 741.022 578.694 741.023H541.35C541.134 709.8 518.447 684.534 490.485 684.534C462.523 684.534 439.836 709.782 439.617 741.02H239.374C239.152 709.782 216.465 684.54 188.509 684.54C160.553 684.54 137.863 709.782 137.641 741.014H94.9386C91.6587 741.013 88.5134 739.709 86.1945 737.39C83.8755 735.07 82.5728 731.925 82.5728 728.645C82.5704 727.019 82.8886 725.409 83.5091 723.906C84.1296 722.403 85.0404 721.037 86.1891 719.887C87.3379 718.737 88.7022 717.824 90.2041 717.201C91.7059 716.578 93.3157 716.258 94.9416 716.258Z" fill="white"/>
</mask>
<g mask="url(#mask10_54_7331)">
<path d="M605.037 441.166H386.178V618.791H605.037V441.166Z" fill="#FF8976"/>
<path d="M386.178 455.757C386.178 456.471 384.515 473.839 384.515 473.839H469.44L529.864 575.179L543.187 567.565L504.649 457.423C504.649 457.423 386.178 455.045 386.178 455.757Z" fill="white"/>
<path d="M389.192 395.312H85.061V737.57H389.192V395.312Z" fill="#5B9FDD"/>
<path d="M376.824 433.396H121.33V704.591H376.824V433.396Z" fill="#82C3ED"/>
<mask id="mask11_54_7331" style="mask-type:luminance" maskUnits="userSpaceOnUse" x="121" y="433" width="256" height="272">
<path d="M376.824 433.396H121.33V704.591H376.824V433.396Z" fill="white"/>
</mask>
<g mask="url(#mask11_54_7331)">
<g opacity="0.2">
<path d="M387.289 585.17H178.899L302.602 672.397H103.41L87.0728 691.743H350.654L225.525 602.775H401.565L387.289 585.17Z" fill="white"/>
</g>
</g>
<path d="M376.824 433.396H373.017V704.591H376.824V433.396Z" fill="#1D64CC"/>
<path d="M604.984 716.102H77.9043V742.86H604.984V716.102Z" fill="#1D64CC"/>
<mask id="mask12_54_7331" style="mask-type:luminance" maskUnits="userSpaceOnUse" x="77" y="716" width="528" height="27">
<path d="M604.984 716.102H77.9043V742.86H604.984V716.102Z" fill="white"/>
</mask>
<g mask="url(#mask12_54_7331)">
<path d="M615.981 726.633H65.98V745.03H615.981V726.633Z" fill="#0E56AD"/>
</g>
<path d="M501.635 691.211H498.933V575.013L489.281 573.056L489.819 570.408L501.635 572.804V691.211Z" fill="#CC3B23"/>
</g>
<path d="M389.205 491.532L388.505 573.908H500.284L460.148 491.532H389.205Z" fill="#CC3B23"/>
<path d="M455.246 498.533H389.439V567.141H488.618L455.246 498.533Z" fill="#CBDEFF"/>
<mask id="mask13_54_7331" style="mask-type:luminance" maskUnits="userSpaceOnUse" x="389" y="498" width="100" height="70">
<path d="M455.246 498.533H389.439V567.141H488.618L455.246 498.533Z" fill="white"/>
</mask>
<g mask="url(#mask13_54_7331)">
<path d="M419.067 494.94L467.137 578.793H479.428L430.89 490.74L419.067 494.94Z" fill="white"/>
<path d="M392.462 494.94L440.536 578.793H452.826L404.288 490.74L392.462 494.94Z" fill="white"/>
</g>
<path d="M425.609 585.109H396.983C396.2 585.11 395.448 585.422 394.894 585.977C394.34 586.531 394.029 587.283 394.029 588.066C394.029 588.85 394.341 589.601 394.895 590.155C395.449 590.709 396.2 591.021 396.983 591.021H425.609C425.997 591.021 426.381 590.945 426.74 590.797C427.099 590.648 427.425 590.431 427.7 590.156C427.974 589.882 428.192 589.556 428.341 589.198C428.489 588.839 428.566 588.455 428.566 588.066C428.566 587.282 428.254 586.53 427.7 585.975C427.145 585.421 426.393 585.109 425.609 585.109Z" fill="#CBDEFF"/>
<path d="M530.882 520.393H512.938C509.989 520.393 507.598 522.784 507.598 525.733V603.107C507.598 606.057 509.989 608.448 512.938 608.448H530.882C533.832 608.448 536.223 606.057 536.223 603.107V525.733C536.223 522.784 533.832 520.393 530.882 520.393Z" fill="#F86748"/>
<path d="M524.659 520.393H506.715C503.765 520.393 501.374 522.784 501.374 525.733V603.107C501.374 606.057 503.765 608.448 506.715 608.448H524.659C527.608 608.448 529.999 606.057 529.999 603.107V525.733C529.999 522.784 527.608 520.393 524.659 520.393Z" fill="#CC3B23"/>
<path d="M522.316 523.319H509.056C506.534 523.319 504.49 525.364 504.49 527.886V600.955C504.49 603.476 506.534 605.521 509.056 605.521H522.316C524.838 605.521 526.883 603.476 526.883 600.955V527.886C526.883 525.364 524.838 523.319 522.316 523.319Z" fill="#CBDEFF"/>
<g opacity="0.8">
<path d="M352.549 456.606H137.278C132.584 456.606 128.779 460.411 128.779 465.105V543.317C128.779 548.011 132.584 551.816 137.278 551.816H352.549C357.243 551.816 361.048 548.011 361.048 543.317V465.105C361.048 460.411 357.243 456.606 352.549 456.606Z" fill="white"/>
</g>
<path d="M-133.053 716.723V421.76H112.753V740.371H108.397V740.761H-142.177C-145.361 740.761 -148.416 739.496 -150.668 737.244C-152.92 734.992 -154.185 731.938 -154.185 728.753C-154.185 725.568 -152.92 722.513 -150.668 720.261C-148.416 718.009 -145.361 716.744 -142.177 716.744L-133.053 716.723Z" fill="#227FC4"/>
<mask id="mask14_54_7331" style="mask-type:luminance" maskUnits="userSpaceOnUse" x="-155" y="421" width="268" height="320">
<path d="M-133.053 716.723V421.76H112.753V740.371H108.397V740.761H-142.177C-145.361 740.761 -148.416 739.496 -150.668 737.244C-152.92 734.992 -154.185 731.938 -154.185 728.753C-154.185 725.568 -152.92 722.513 -150.668 720.261C-148.416 718.009 -145.361 716.744 -142.177 716.744L-133.053 716.723Z" fill="white"/>
</mask>
<g mask="url(#mask14_54_7331)">
<path d="M120.219 716.414H-165.101V755.619H120.219V716.414Z" fill="#2C4B9E"/>
<mask id="mask15_54_7331" style="mask-type:luminance" maskUnits="userSpaceOnUse" x="-166" y="716" width="287" height="40">
<path d="M120.219 716.414H-165.101V755.619H120.219V716.414Z" fill="white"/>
</mask>
<g mask="url(#mask15_54_7331)">
<path d="M112.29 728.536H-171.907V772.941H112.29V728.536Z" fill="#133787"/>
</g>
</g>
<path d="M103.72 430.16H-124.971V708.635H103.72V430.16Z" fill="#344058"/>
<path d="M103.72 430.16H-124.971V711.487H103.72V430.16Z" fill="#5B9FDD"/>
<g opacity="0.6">
<path d="M89.2525 439.244H-111.891C-112.386 439.244 -112.861 439.441 -113.211 439.791C-113.561 440.141 -113.758 440.616 -113.758 441.112C-113.758 441.607 -113.561 442.082 -113.211 442.432C-112.861 442.782 -112.386 442.979 -111.891 442.979H89.2525C89.7477 442.979 90.2227 442.782 90.5729 442.432C90.923 442.082 91.1198 441.607 91.1198 441.112C91.1198 440.616 90.923 440.141 90.5729 439.791C90.2227 439.441 89.7477 439.244 89.2525 439.244Z" fill="white"/>
</g>
<g opacity="0.6">
<path d="M89.2529 454.492H-111.89C-112.142 454.482 -112.392 454.523 -112.628 454.612C-112.863 454.702 -113.077 454.837 -113.259 455.012C-113.44 455.186 -113.585 455.395 -113.683 455.626C-113.782 455.858 -113.833 456.107 -113.833 456.358C-113.833 456.61 -113.782 456.859 -113.683 457.09C-113.585 457.322 -113.44 457.531 -113.259 457.705C-113.077 457.879 -112.863 458.015 -112.628 458.104C-112.392 458.193 -112.142 458.234 -111.89 458.224H89.2529C89.5042 458.234 89.7549 458.193 89.9901 458.104C90.2253 458.015 90.44 457.879 90.6214 457.705C90.8027 457.531 90.9471 457.322 91.0456 457.09C91.1442 456.859 91.195 456.61 91.195 456.358C91.195 456.107 91.1442 455.858 91.0456 455.626C90.9471 455.395 90.8027 455.186 90.6214 455.012C90.44 454.837 90.2253 454.702 89.9901 454.612C89.7549 454.523 89.5042 454.482 89.2529 454.492Z" fill="white"/>
</g>
<g opacity="0.6">
<path d="M89.2522 469.737H-111.903C-112.934 469.737 -113.77 470.573 -113.77 471.605C-113.77 472.636 -112.934 473.472 -111.903 473.472H89.2522C90.2835 473.472 91.1195 472.636 91.1195 471.605C91.1195 470.573 90.2835 469.737 89.2522 469.737Z" fill="white"/>
</g>
<g opacity="0.6">
<path d="M89.2529 484.985H-111.89C-112.142 484.975 -112.392 485.016 -112.628 485.105C-112.863 485.194 -113.077 485.33 -113.259 485.504C-113.44 485.678 -113.585 485.887 -113.683 486.119C-113.782 486.35 -113.833 486.599 -113.833 486.851C-113.833 487.102 -113.782 487.351 -113.683 487.583C-113.585 487.814 -113.44 488.023 -113.259 488.197C-113.077 488.372 -112.863 488.507 -112.628 488.597C-112.392 488.686 -112.142 488.727 -111.89 488.717H89.2529C89.5042 488.727 89.7549 488.686 89.9901 488.597C90.2253 488.507 90.44 488.372 90.6214 488.197C90.8027 488.023 90.9471 487.814 91.0456 487.583C91.1442 487.351 91.195 487.102 91.195 486.851C91.195 486.599 91.1442 486.35 91.0456 486.119C90.9471 485.887 90.8027 485.678 90.6214 485.504C90.44 485.33 90.2253 485.194 89.9901 485.105C89.7549 485.016 89.5042 484.975 89.2529 484.985Z" fill="white"/>
</g>
<g opacity="0.6">
<path d="M89.2525 500.23H-111.891C-112.386 500.23 -112.861 500.427 -113.211 500.777C-113.561 501.127 -113.758 501.602 -113.758 502.097C-113.758 502.593 -113.561 503.068 -113.211 503.418C-112.861 503.768 -112.386 503.965 -111.891 503.965H89.2525C89.7477 503.965 90.2227 503.768 90.5729 503.418C90.923 503.068 91.1198 502.593 91.1198 502.097C91.1198 501.602 90.923 501.127 90.5729 500.777C90.2227 500.427 89.7477 500.23 89.2525 500.23Z" fill="white"/>
</g>
<g opacity="0.6">
<path d="M89.2525 517.435H-111.891C-112.386 517.435 -112.861 517.632 -113.211 517.982C-113.561 518.332 -113.758 518.807 -113.758 519.302C-113.758 519.798 -113.561 520.273 -113.211 520.623C-112.861 520.973 -112.386 521.17 -111.891 521.17H89.2525C89.7477 521.17 90.2227 520.973 90.5729 520.623C90.923 520.273 91.1198 519.798 91.1198 519.302C91.1198 518.807 90.923 518.332 90.5729 517.982C90.2227 517.632 89.7477 517.435 89.2525 517.435Z" fill="white"/>
</g>
<g opacity="0.6">
<path d="M89.2525 532.674H-111.891C-112.386 532.674 -112.861 532.871 -113.211 533.221C-113.561 533.571 -113.758 534.046 -113.758 534.541C-113.758 535.036 -113.561 535.511 -113.211 535.862C-112.861 536.212 -112.386 536.408 -111.891 536.408H89.2525C89.7477 536.408 90.2227 536.212 90.5729 535.862C90.923 535.511 91.1198 535.036 91.1198 534.541C91.1198 534.046 90.923 533.571 90.5729 533.221C90.2227 532.871 89.7477 532.674 89.2525 532.674Z" fill="white"/>
</g>
<g opacity="0.6">
<path d="M89.2529 547.922H-111.89C-112.142 547.912 -112.392 547.953 -112.628 548.042C-112.863 548.131 -113.077 548.267 -113.259 548.441C-113.44 548.615 -113.585 548.824 -113.683 549.056C-113.782 549.287 -113.833 549.536 -113.833 549.788C-113.833 550.039 -113.782 550.288 -113.683 550.52C-113.585 550.751 -113.44 550.96 -113.259 551.134C-113.077 551.309 -112.863 551.444 -112.628 551.534C-112.392 551.623 -112.142 551.664 -111.89 551.654H89.2529C89.5042 551.664 89.7549 551.623 89.9901 551.534C90.2253 551.444 90.44 551.309 90.6214 551.134C90.8027 550.96 90.9471 550.751 91.0456 550.52C91.1442 550.288 91.195 550.039 91.195 549.788C91.195 549.536 91.1442 549.287 91.0456 549.056C90.9471 548.824 90.8027 548.615 90.6214 548.441C90.44 548.267 90.2253 548.131 89.9901 548.042C89.7549 547.953 89.5042 547.912 89.2529 547.922Z" fill="white"/>
</g>
<g opacity="0.6">
<path d="M89.2525 563.167H-111.891C-112.386 563.167 -112.861 563.363 -113.211 563.713C-113.561 564.064 -113.758 564.539 -113.758 565.034C-113.758 565.529 -113.561 566.004 -113.211 566.354C-112.861 566.704 -112.386 566.901 -111.891 566.901H89.2525C89.7477 566.901 90.2227 566.704 90.5729 566.354C90.923 566.004 91.1198 565.529 91.1198 565.034C91.1198 564.539 90.923 564.064 90.5729 563.713C90.2227 563.363 89.7477 563.167 89.2525 563.167Z" fill="white"/>
</g>
<g opacity="0.6">
<path d="M89.2529 578.415H-111.89C-112.142 578.405 -112.392 578.446 -112.628 578.535C-112.863 578.624 -113.077 578.76 -113.259 578.934C-113.44 579.108 -113.585 579.317 -113.683 579.549C-113.782 579.78 -113.833 580.029 -113.833 580.281C-113.833 580.532 -113.782 580.781 -113.683 581.013C-113.585 581.244 -113.44 581.453 -113.259 581.627C-113.077 581.802 -112.863 581.937 -112.628 582.027C-112.392 582.116 -112.142 582.157 -111.89 582.147H89.2529C89.5042 582.157 89.7549 582.116 89.9901 582.027C90.2253 581.937 90.44 581.802 90.6214 581.627C90.8027 581.453 90.9471 581.244 91.0456 581.013C91.1442 580.781 91.195 580.532 91.195 580.281C91.195 580.029 91.1442 579.78 91.0456 579.549C90.9471 579.317 90.8027 579.108 90.6214 578.934C90.44 578.76 90.2253 578.624 89.9901 578.535C89.7549 578.446 89.5042 578.405 89.2529 578.415Z" fill="white"/>
</g>
<g opacity="0.65">
<path d="M397.722 786.871C397.353 787.063 396.935 787.143 396.521 787.102C396.806 787.409 397.035 787.762 397.2 788.147C397.377 787.724 397.551 787.297 397.722 786.871ZM420.95 788.708C419.163 786.748 417.284 784.902 415.327 783.133C416.452 785.559 417.71 787.937 418.887 790.299L420.95 788.708ZM396.803 797.414V795.883C396.629 796.04 396.415 796.144 396.184 796.184C395.954 796.223 395.717 796.197 395.5 796.109C395.942 796.535 396.377 796.967 396.803 797.414Z" fill="white"/>
<path d="M433.744 777.838C430.976 772.71 427.503 767.964 424.239 763.148C422.981 761.296 421.405 759.507 419.067 759.147C416.92 758.813 414.897 759.945 413.663 761.662C411.384 764.851 411.504 769.468 412.066 773.173C412.594 776.658 413.843 779.942 415.323 783.134C417.28 784.902 419.16 786.736 420.946 788.709L418.884 790.3C417.707 787.934 416.449 785.559 415.323 783.134C413.574 781.551 411.766 780.03 409.901 778.57C408.115 777.162 406.326 775.815 404.713 774.205C403.176 772.671 401.711 771.044 400.036 769.663C397.701 767.748 394.152 765.637 391.519 768.291C389.46 770.366 389.349 773.836 390.099 776.484C390.748 778.762 391.666 780.955 392.834 783.017C393.369 783.972 394.053 784.837 394.86 785.577C395.44 786.057 395.994 786.566 396.521 787.103C396.935 787.144 397.352 787.063 397.721 786.871C397.55 787.298 397.376 787.724 397.202 788.147C397.038 787.763 396.808 787.409 396.524 787.103C395.623 787.066 394.602 786.76 393.927 786.688C392.666 786.55 391.225 786.514 390.204 787.427C389.746 787.853 389.432 788.411 389.304 789.024C389.024 790.225 389.475 790.678 390.339 791.462C392.056 793.02 393.831 794.503 395.497 796.109C395.713 796.198 395.95 796.224 396.181 796.184C396.411 796.144 396.626 796.04 396.8 795.884V797.415C396.374 796.968 395.938 796.535 395.497 796.109C395.272 796.04 395.038 795.947 394.791 795.866C394.217 795.716 393.623 795.648 393.029 795.665C391.468 795.607 389.908 795.538 388.349 795.457C385.425 795.301 382.503 795.101 379.583 794.857C373.957 794.389 368.316 794.049 362.723 793.263C350.993 791.612 339.099 791.387 327.267 791.315C326.066 791.315 326.066 793.134 327.267 793.185C337.069 793.608 346.838 794.049 356.598 795.043C361.402 795.533 366.148 796.244 370.954 796.625C375.68 796.992 380.405 797.379 385.134 797.655C387.859 797.814 390.597 797.832 393.32 798.018C394.281 798.081 395.122 798.565 396.109 798.493C396.959 798.422 397.751 798.037 398.331 797.412C398.529 797.206 398.64 796.932 398.64 796.646C398.64 796.361 398.529 796.086 398.331 795.881C396.199 793.608 393.792 791.636 391.504 789.525C391.456 789.655 391.428 789.792 391.42 789.931L391.096 789.147L391.504 789.525C391.918 788.39 393.732 788.895 394.755 789.045C396.094 789.24 397.628 789.57 398.862 788.823C399.25 788.586 399.568 788.006 399.382 787.544C398.583 785.568 396.872 784.65 395.59 783.065C394.089 781.194 393.158 778.582 392.474 776.301C391.72 773.785 391.936 767.826 396.076 769.828C398.247 770.879 399.994 772.83 401.639 774.542C403.341 776.316 405.165 777.969 407.097 779.489C411.372 782.836 415.614 786.379 419.106 790.564C420.138 791.801 421.724 790.222 421.168 788.97C419.217 784.563 417.031 780.21 415.707 775.553C414.75 772.176 414.206 768.093 415.428 764.701C416.047 763.004 417.605 761.371 419.532 762.275C421.607 763.245 422.9 765.922 424.197 767.7C427.139 771.729 429.772 775.962 432.684 780.009C435.864 784.425 438.881 788.829 442.892 792.557C442.974 792.619 443.076 792.648 443.179 792.64C443.281 792.633 443.378 792.588 443.45 792.516C443.523 792.443 443.567 792.347 443.575 792.244C443.583 792.142 443.553 792.04 443.492 791.957C439.532 787.766 436.464 782.881 433.744 777.838Z" fill="white"/>
<path d="M391.423 789.933C391.431 789.794 391.459 789.658 391.507 789.528L391.099 789.149L391.423 789.933Z" fill="white"/>
</g>
<g opacity="0.65">
<path d="M114.704 793.49C114.927 792.674 115.146 791.857 115.368 791.044C113.471 791.128 112.18 790.197 110.817 788.987C109.445 787.743 107.934 786.662 106.313 785.766C105.134 785.124 103.936 784.52 102.738 783.917C106.1 787.948 110.144 791.461 114.704 793.49ZM79.9817 778.702C80.2038 778.624 80.426 778.561 80.6482 778.501C80.6798 778.298 80.7249 778.097 80.7833 777.9L79.9817 778.702Z" fill="white"/>
<path d="M128.079 774.766C124.284 768.798 121.198 762.046 115.341 757.756C112.591 755.742 109.505 754.529 106.079 754.52C102.93 754.52 99.2856 755.289 97.1601 757.804C95.0856 760.257 94.4011 763.761 94.4762 766.901C94.5543 770.146 95.7731 773.067 97.3102 775.88C98.8634 778.726 100.685 781.417 102.75 783.917C103.951 784.517 105.152 785.118 106.326 785.766C107.946 786.663 109.457 787.744 110.829 788.988C112.192 790.188 113.483 791.128 115.38 791.044C115.158 791.858 114.939 792.674 114.717 793.491C110.156 791.461 106.1 787.949 102.762 783.917C101.861 783.473 100.985 783.016 100.105 782.557C98.2679 781.578 96.5026 780.456 94.6743 779.474C91.2939 777.673 87.5833 776.036 83.6955 775.871C82.3926 775.814 79.6606 775.775 78.772 776.904C77.9374 777.961 78.3457 780.02 78.6909 781.185C79.5495 784.094 81.6931 787.258 84.374 788.795C85.0255 789.171 87.7904 789.843 87.7124 790.762C87.6403 791.599 85.6739 791.461 85.1275 791.443C82.4256 791.359 79.7477 790.543 77.1298 789.912C72.3264 788.768 67.523 787.673 62.6415 786.91C57.3428 786.085 52.056 786.31 46.7302 786.547C43.9112 786.664 41.0892 786.643 38.2732 786.766C37.0589 786.801 35.8515 786.962 34.6706 787.246C33.3196 787.595 32.1248 788.147 30.6958 788.063C29.675 788 29.6991 789.546 30.6958 789.639C32.0918 789.765 33.3227 789.366 34.6586 789.018C36.4209 788.561 38.2101 788.57 40.0174 788.612C43.3828 788.693 46.7332 788.612 50.0986 788.528C57.0425 788.348 63.7043 789.108 70.5131 790.477C75.0644 791.395 79.6516 792.878 84.305 793.209C85.6529 793.302 87.3701 793.365 88.5289 792.533C88.7831 792.347 88.9961 792.111 89.1545 791.839C89.3129 791.567 89.4133 791.265 89.4494 790.952C89.4855 790.64 89.4565 790.323 89.3642 790.022C89.272 789.721 89.1184 789.442 88.9132 789.204C88.2197 788.39 87.0789 788.003 86.1423 787.562C85.1623 787.084 84.2923 786.409 83.5874 785.577C82.0143 783.815 80.2641 781.017 80.6543 778.507C80.4322 778.567 80.21 778.63 79.9879 778.708L80.7894 777.904C80.7311 778.101 80.686 778.301 80.6543 778.504C87.0369 776.814 93.3534 781.653 98.6432 784.541C101.801 786.265 105.431 787.616 108.154 790.011C110.339 791.933 112.285 793.782 115.389 793.674C116.59 793.632 117.31 791.801 116.053 791.224C110.066 788.486 105.245 783.07 101.726 777.642C98.6312 772.878 95.9713 767.282 98.3369 761.602C99.4928 758.831 102.021 757.846 104.864 757.561C108.04 757.24 110.784 758.063 113.435 759.807C118.772 763.319 121.784 769.315 125.143 774.547C127.491 778.216 129.892 781.833 132.183 785.541C133.084 787.009 134.038 788.42 135.041 789.819C136.002 791.158 137.395 792.779 137.17 794.529C137.119 794.944 137.77 795.004 137.881 794.626C138.698 791.825 136.209 789.048 134.981 786.754C132.765 782.683 130.556 778.663 128.079 774.766Z" fill="white"/>
</g>
<g opacity="0.91">
<path d="M376.984 777.831C376.134 777.693 375.065 778.063 374.804 778.852C374.777 778.934 374.758 779.019 374.747 779.104C374.903 778.984 375.047 778.882 375.14 778.804C375.7 778.385 376.322 778.057 376.984 777.831ZM378.004 776.853C378.072 777.109 378.119 777.37 378.145 777.633C378.386 777.63 378.626 777.655 378.86 777.708L378.004 776.853ZM378.124 778.573C378.067 779.041 377.85 779.475 377.511 779.803C377.171 780.131 376.73 780.333 376.26 780.374C375.407 780.506 374.633 779.942 374.759 779.098C374.354 779.417 373.858 779.867 373.858 780.254C373.837 780.831 374.585 781.371 374.951 781.707C375.123 781.842 375.249 782.027 375.312 782.235C375.375 782.444 375.373 782.668 375.305 782.875C375.419 782.889 375.533 782.895 375.648 782.893C377.347 782.824 379.106 780.089 378.124 778.573Z" fill="white"/>
<path d="M378.124 778.573C378.171 778.262 378.178 777.947 378.145 777.634C377.75 777.641 377.359 777.708 376.984 777.832C377.216 777.864 377.439 777.947 377.635 778.075C377.831 778.206 377.997 778.376 378.124 778.573Z" fill="white"/>
<path d="M377.193 775.253C376.785 775.318 376.383 775.418 375.993 775.553C377.058 776.592 375.458 778.603 374.227 777.676C372.726 776.547 372.801 779.897 372.984 780.558C373.285 781.671 374.101 782.752 375.293 782.89C375.361 782.683 375.363 782.46 375.3 782.251C375.236 782.042 375.11 781.858 374.939 781.723C374.573 781.386 373.825 780.846 373.846 780.269C373.846 779.882 374.356 779.432 374.747 779.114C374.758 779.028 374.777 778.944 374.804 778.862C375.065 778.072 376.134 777.703 376.983 777.841C377.358 777.717 377.75 777.65 378.145 777.643C378.119 777.379 378.072 777.118 378.004 776.862L378.86 777.718C378.625 777.665 378.385 777.639 378.145 777.643C378.177 777.955 378.17 778.271 378.124 778.582C379.106 780.083 377.347 782.845 375.62 782.908C375.506 782.91 375.392 782.904 375.278 782.89C375.262 782.938 375.243 782.984 375.221 783.028C376.145 783.146 377.083 782.995 377.923 782.593C378.594 782.301 379.183 781.846 379.634 781.269C380.086 780.693 380.387 780.013 380.511 779.291C380.319 777.357 379.181 775.586 377.193 775.253Z" fill="white"/>
<path d="M377.917 782.584C377.077 782.986 376.139 783.137 375.215 783.019C375.122 783.198 374.991 783.355 374.832 783.478C374.672 783.6 374.487 783.687 374.291 783.731C374.094 783.774 373.89 783.775 373.694 783.731C373.497 783.688 373.312 783.601 373.152 783.479C371.171 781.945 370.574 779.744 372.384 777.826C372.673 777.166 373.12 776.588 373.686 776.143C374.252 775.697 374.92 775.399 375.629 775.274C373.858 774.04 371.555 774.791 370.384 776.613C369.166 778.516 369.55 781.314 370.685 783.17C373.116 787.15 378.619 785.908 380.168 781.861C380.475 781.037 380.589 780.154 380.502 779.279C380.379 780.001 380.078 780.681 379.627 781.258C379.176 781.835 378.588 782.291 377.917 782.584Z" fill="white"/>
<path d="M372.39 777.826L372.45 777.757C373.435 776.752 374.644 775.993 375.978 775.544L375.906 775.475C375.815 775.4 375.725 775.337 375.635 775.274C374.926 775.399 374.259 775.698 373.692 776.143C373.126 776.588 372.679 777.166 372.39 777.826ZM372.39 780.84C372.192 780.364 372.09 779.854 372.09 779.339C372.09 778.824 372.192 778.314 372.39 777.838C370.589 779.756 371.189 781.957 373.159 783.491C373.318 783.614 373.503 783.7 373.7 783.743C373.897 783.787 374.1 783.787 374.297 783.743C374.494 783.699 374.678 783.613 374.838 783.49C374.998 783.367 375.128 783.211 375.221 783.032C374.594 782.96 373.999 782.717 373.5 782.331C373 781.945 372.617 781.429 372.39 780.84ZM380.37 776.199C380.313 775.994 380.205 775.808 380.055 775.658C379.905 775.508 379.719 775.4 379.514 775.343C378.752 775.16 377.961 775.13 377.187 775.253C379.181 775.586 380.319 777.355 380.505 779.279C380.679 778.254 380.633 777.204 380.37 776.199Z" fill="white"/>
<path d="M372.39 777.826C372.192 778.302 372.09 778.812 372.09 779.327C372.09 779.842 372.192 780.352 372.39 780.828C372.618 781.413 373 781.925 373.497 782.309C373.994 782.693 374.585 782.935 375.209 783.008C375.231 782.963 375.25 782.917 375.266 782.869C374.065 782.731 373.27 781.651 372.957 780.537C372.774 779.876 372.705 776.526 374.2 777.655C375.431 778.582 377.031 776.571 375.966 775.532C374.632 775.981 373.423 776.739 372.438 777.745L372.39 777.826ZM375.993 775.544C376.383 775.409 376.785 775.309 377.193 775.244C376.95 775.201 376.702 775.181 376.455 775.184C376.182 775.186 375.91 775.214 375.641 775.265C375.731 775.328 375.821 775.391 375.912 775.466L375.993 775.544Z" fill="white"/>
</g>
<g opacity="0.91">
<path d="M376.136 779.093L376.266 779.174L375.914 778.573C375.914 778.687 375.914 778.798 375.914 778.909C375.981 778.979 376.055 779.041 376.136 779.093ZM376.812 779.246L376.932 779.198C377.026 779.159 377.117 779.112 377.202 779.057C377.241 778.954 377.274 778.852 377.307 778.756L376.812 779.246Z" fill="white"/>
<path d="M375.906 776.892C375.711 777.302 375.615 777.751 375.626 778.204C375.621 778.332 375.643 778.46 375.69 778.58C375.737 778.699 375.809 778.807 375.9 778.898C375.9 778.787 375.9 778.676 375.9 778.561L376.251 779.162L376.122 779.081C376.035 779.026 375.955 778.961 375.884 778.886C375.811 779.519 375.648 780.139 375.398 780.726C375.239 781.155 375.894 781.401 376.119 781.026C376.536 780.4 376.894 779.735 377.187 779.042C377.102 779.097 377.012 779.144 376.917 779.183L376.797 779.231L377.293 778.736C377.26 778.838 377.226 778.94 377.187 779.036C377.335 778.947 377.457 778.822 377.542 778.673C377.627 778.524 377.672 778.355 377.674 778.183C377.726 777.73 377.638 777.272 377.422 776.871C377.338 776.745 377.225 776.642 377.091 776.572C376.958 776.501 376.809 776.465 376.658 776.467C376.507 776.469 376.359 776.509 376.227 776.584C376.096 776.658 375.985 776.764 375.906 776.892Z" fill="white"/>
</g>
<g opacity="0.91">
<path d="M56.781 770.663H56.2226C56.3667 770.66 56.5648 770.666 56.781 770.663ZM56.2226 772.119V773.518C56.781 773.518 57.3784 773.467 57.9488 773.518C59.2104 773.397 60.4073 772.903 61.3863 772.098C60.4316 771.137 59.0506 770.837 57.6096 770.729C57.0658 771.103 56.5956 771.574 56.2226 772.119ZM56.2226 772.119C55.963 772.495 55.8133 772.935 55.7903 773.392C55.9282 773.451 56.0737 773.49 56.2226 773.509V772.119ZM59.3088 770.023C59.6243 770.061 59.9143 770.215 60.1223 770.456C60.0293 770.236 59.9392 770.017 59.8491 769.798C59.7281 769.805 59.6078 769.82 59.4889 769.843C59.4366 769.91 59.3761 769.971 59.3088 770.023Z" fill="white"/>
<path d="M56.2231 773.517C56.7966 773.585 57.3759 773.585 57.9494 773.517C57.379 773.457 56.7815 773.517 56.2231 773.517ZM59.3094 770.023C59.3767 769.97 59.4372 769.91 59.4895 769.843C59.2849 769.883 59.084 769.94 58.889 770.014C59.0292 770.006 59.1697 770.009 59.3094 770.023ZM59.6786 769.386C59.6615 769.554 59.5957 769.712 59.4895 769.843C59.6083 769.819 59.7287 769.804 59.8497 769.798L59.6786 769.386ZM56.2231 770.902V771.521L56.2471 771.494C56.2861 771.454 56.3165 771.407 56.3365 771.355C56.3565 771.304 56.3657 771.248 56.3634 771.193C56.3612 771.137 56.3476 771.083 56.3234 771.033C56.2993 770.983 56.2652 770.939 56.2231 770.902ZM57.7993 770.578C57.4625 770.631 57.1224 770.659 56.7815 770.662C57.0577 770.662 57.3339 770.677 57.6101 770.707L57.7993 770.578ZM62.0233 768.065C60.9515 767.024 59.6216 766.937 58.1985 767.165C57.9166 767.211 57.6597 767.355 57.4719 767.57C57.284 767.785 57.1768 768.059 57.1688 768.345C57.9789 767.909 58.8744 767.656 59.7927 767.603C60.5615 767.588 61.3238 767.746 62.0233 768.065Z" fill="white"/>
<path d="M56.2471 771.494L56.2231 771.521V772.121C56.5942 771.569 57.0645 771.091 57.6101 770.71C57.3339 770.69 57.0577 770.675 56.7815 770.665C56.5594 770.665 56.3672 770.665 56.2231 770.665V770.92C56.2624 770.957 56.2942 771 56.3167 771.048C56.3392 771.097 56.3519 771.149 56.3541 771.202C56.3564 771.255 56.3481 771.309 56.3297 771.359C56.3114 771.409 56.2833 771.455 56.2471 771.494Z" fill="white"/>
<path d="M54.9983 771.32C55.1122 771.099 55.2896 770.916 55.5079 770.796C55.7261 770.677 55.9752 770.625 56.2231 770.647H56.7815C57.1224 770.644 57.4625 770.616 57.7993 770.563C58.1409 770.336 58.5063 770.147 58.889 769.999L58.5888 770.023C57.6131 770.104 57.0878 769.161 57.1718 768.33C56.2664 768.8 55.4529 769.43 54.7701 770.188C53.9872 771.025 53.4809 772.083 53.3201 773.217C53.6796 772.433 54.2637 771.773 54.9983 771.32Z" fill="white"/>
<path d="M53.7462 775.376C54.7849 777.213 57.1176 778.132 59.15 777.955C61.0173 777.793 62.4524 776.649 62.5334 774.953C61.8009 775.49 60.8042 775.793 60.0116 776.108C58.7868 776.592 57.0455 777.396 55.9617 776.22C55.3493 775.515 54.9844 774.629 54.923 773.698C54.9257 773.404 54.9977 773.115 55.1332 772.854C54.9773 772.631 54.8825 772.372 54.8583 772.101C54.834 771.83 54.8812 771.558 54.9951 771.311C54.256 771.767 53.6696 772.433 53.3109 773.223C53.2213 773.969 53.3739 774.724 53.7462 775.376Z" fill="white"/>
<path d="M62.0226 768.066L62.1126 768.153C62.8481 768.918 62.7851 769.933 62.3558 770.816C63.0823 771.47 63.5897 772.359 63.5326 773.254C63.509 773.596 63.4068 773.928 63.2339 774.224C63.0611 774.52 62.8222 774.773 62.5359 774.962C62.4669 776.649 61.0198 777.793 59.1525 777.964C57.1171 778.141 54.7844 777.222 53.7487 775.385C53.3794 774.735 53.2279 773.984 53.3164 773.242C53.053 773.942 53.0131 774.706 53.2023 775.43C53.6856 777.577 55.2737 779.333 57.5674 779.255C59.5248 779.201 62.0706 778.099 63.6917 777.012C65.6221 775.712 66.1925 773.347 65.2469 771.248C64.5867 769.836 63.443 768.707 62.0226 768.066Z" fill="white"/>
<path d="M58.5853 770.038L58.8855 770.014C59.0805 769.94 59.2813 769.883 59.4859 769.843C59.5921 769.713 59.6579 769.554 59.675 769.387L59.8462 769.798H59.9662C60.8635 769.841 61.7157 770.204 62.368 770.822C62.7973 769.939 62.8603 768.924 62.1248 768.159L62.0347 768.072C61.3352 767.752 60.5729 767.594 59.8042 767.609C58.8859 767.662 57.9904 767.915 57.1803 768.351C57.0902 769.176 57.6096 770.119 58.5853 770.038ZM56.2226 770.903C56.1606 770.844 56.0811 770.806 55.996 770.797C55.9109 770.787 55.825 770.805 55.7513 770.849C55.4841 771.002 55.2349 771.149 54.9977 771.32C54.8839 771.567 54.8367 771.839 54.8609 772.11C54.8852 772.381 54.9799 772.64 55.1358 772.863C55.4269 772.363 55.7935 771.91 56.2226 771.521V770.903Z" fill="white"/>
<path d="M59.8492 769.798C59.9393 770.017 60.0294 770.236 60.1224 770.455C59.9144 770.215 59.6243 770.061 59.3089 770.023C58.8631 770.331 58.3469 770.522 57.8078 770.578L57.6187 770.707C59.0597 770.815 60.4407 771.116 61.3953 772.076C61.6692 771.839 61.9096 771.565 62.1098 771.263C62.2047 771.119 62.2899 770.97 62.365 770.815C61.7128 770.198 60.8606 769.835 59.9633 769.792L59.8492 769.798ZM56.2227 770.903V770.647C55.9747 770.625 55.7256 770.676 55.5074 770.796C55.2891 770.916 55.1117 771.098 54.9978 771.32C55.235 771.158 55.4842 771.002 55.7513 770.849C55.8251 770.805 55.911 770.787 55.9961 770.796C56.0811 770.806 56.1607 770.843 56.2227 770.903ZM55.7904 773.391C55.8134 772.935 55.9631 772.494 56.2227 772.118V771.518C55.7935 771.907 55.427 772.359 55.1359 772.86C55.2969 773.098 55.5246 773.283 55.7904 773.391Z" fill="white"/>
<path d="M62.3505 773.707C62.1626 773.095 61.8323 772.536 61.3869 772.076C60.4079 772.881 59.211 773.376 57.9494 773.496C58.1115 773.496 58.2706 773.526 58.4267 773.554C58.8951 773.641 60.117 774.154 59.8708 774.904C59.5886 775.763 57.6102 775.298 57.0338 775.025C56.1331 774.598 55.7849 774.016 55.7909 773.391C55.5255 773.283 55.2978 773.1 55.1364 772.863C55.001 773.124 54.929 773.413 54.9263 773.707C54.9877 774.638 55.3525 775.524 55.965 776.228C57.0488 777.405 58.79 776.601 60.0149 776.117C60.8074 775.817 61.8162 775.499 62.5367 774.962C62.5479 774.536 62.4849 774.111 62.3505 773.707Z" fill="white"/>
</g>
<g opacity="0.91">
<path d="M87.788 762.274C87.731 762.235 87.716 762.232 87.722 762.25L87.743 762.277L87.788 762.274ZM87.5898 762.25C87.6405 762.258 87.6906 762.269 87.74 762.283C87.6885 762.28 87.6378 762.269 87.5898 762.25ZM87.746 762.283C87.758 762.313 87.788 762.334 87.746 762.283V762.283ZM87.9501 762.247C87.9363 762.25 87.922 762.25 87.9081 762.247C87.9221 762.248 87.9361 762.248 87.9501 762.247Z" fill="white"/>
<path d="M89.3909 759.579C87.8298 758.528 85.23 759.464 85.3651 761.566C85.4281 762.596 86.3708 763.043 87.2654 762.656C87.4624 762.575 87.6506 762.475 87.8268 762.355L87.7548 762.277C87.7548 762.307 87.7878 762.328 87.7548 762.277C87.7054 762.264 87.6553 762.253 87.6047 762.244C87.6512 762.26 87.6998 762.268 87.7488 762.268L87.7187 762.223C87.7262 762.236 87.7353 762.247 87.7457 762.256C87.7457 762.238 87.7457 762.256 87.8118 762.28C87.8464 762.279 87.8808 762.273 87.9139 762.262C87.8538 762.262 87.8298 762.244 87.9559 762.262C87.9869 762.25 88.0139 762.229 88.0339 762.202C87.9825 762.272 87.9195 762.332 87.8478 762.379C87.9049 762.443 87.9619 762.503 87.9829 762.521C87.9732 762.501 87.9622 762.482 87.9499 762.464C87.9949 762.524 87.9979 762.533 87.9829 762.521C88.022 762.59 88.073 762.689 88.091 762.71C88.109 762.731 88.091 762.665 88.067 762.644C88.097 762.713 88.1 762.725 88.091 762.71C88.145 762.857 88.1871 763.01 88.2261 763.163C88.2261 763.163 88.2261 763.319 88.2471 763.268C88.103 763.932 87.0763 764.34 86.3858 764.211C85.8994 764.101 85.467 763.823 85.1639 763.427C85.0518 763.231 84.9243 763.045 84.7826 762.869C84.5185 762.626 84.3864 762.746 84.2573 762.391C84.2413 762.334 84.2051 762.284 84.1554 762.252C84.1057 762.219 84.0458 762.206 83.9868 762.214C83.9278 762.222 83.8737 762.251 83.8346 762.296C83.7955 762.34 83.7739 762.398 83.7739 762.458C83.7559 762.842 83.5128 763.097 83.5278 763.493C83.5982 763.938 83.7674 764.36 84.0231 764.73C84.5165 765.554 85.3111 766.154 86.2387 766.402C88.127 766.889 90.3126 765.802 90.892 763.914C91.1358 763.125 91.1217 762.28 90.8517 761.5C90.5818 760.72 90.07 760.047 89.3909 759.579Z" fill="white"/>
<path d="M88.0133 762.187C87.9932 762.214 87.9662 762.235 87.9352 762.247C87.9162 762.248 87.8972 762.248 87.8782 762.247C87.8451 762.257 87.8108 762.263 87.7761 762.265L87.8151 762.292H87.7401L87.8121 762.37C87.8897 762.322 87.9579 762.26 88.0133 762.187ZM87.9292 762.448C87.9415 762.466 87.9525 762.486 87.9622 762.505C87.9773 762.517 87.9743 762.508 87.9292 762.448ZM87.7881 762.274H87.7431H87.8181H87.7881ZM88.0463 762.628C88.0463 762.649 88.0613 762.673 88.0703 762.694C88.0793 762.715 88.0883 762.709 88.0463 762.628Z" fill="white"/>
</g>
<g opacity="0.91">
<path d="M405.113 762.199H405.164C405.157 762.191 405.15 762.184 405.143 762.178C405.113 762.178 405.113 762.187 405.113 762.199ZM404.969 762.085H404.942C405.011 762.109 405.005 762.091 404.969 762.085Z" fill="white"/>
<path d="M404.768 762.223C404.768 762.223 404.768 762.241 404.768 762.25C404.768 762.25 404.768 762.229 404.768 762.223ZM404.777 762.244C404.792 762.217 404.795 762.214 404.777 762.244V762.244ZM404.966 762.055L404.996 762.076C405.038 762.058 405.011 762.055 404.966 762.055ZM405.17 762.169H405.146C405.154 762.175 405.161 762.183 405.167 762.19C405.263 762.178 405.311 762.166 405.17 762.169ZM404.942 762.178C404.873 762.199 404.864 762.208 404.885 762.211C404.966 762.187 405.083 762.142 404.942 762.178ZM405.167 762.193H405.116C405.137 762.217 405.206 762.235 405.167 762.193Z" fill="white"/>
<path d="M404.777 762.244L404.774 762.247L404.777 762.244Z" fill="white"/>
<path d="M405.414 760.954C405.414 760.947 405.414 760.94 405.414 760.933V760.951V760.954ZM404.777 762.245V762.26V762.242V762.245ZM404.774 762.254C404.774 762.262 404.774 762.27 404.774 762.278V762.305V762.269V762.254Z" fill="white"/>
<path d="M404.627 761.926C404.635 761.935 404.642 761.945 404.648 761.956C404.639 761.947 404.632 761.937 404.627 761.926ZM404.753 762.289C404.696 762.379 404.696 762.385 404.753 762.313C404.753 762.313 404.753 762.292 404.753 762.28V762.289ZM404.75 762.322L404.717 762.4C404.736 762.378 404.748 762.351 404.75 762.322ZM404.714 762.172C404.513 762.25 404.513 762.253 404.714 762.172V762.172ZM404.771 762.289V762.307C404.756 762.385 404.759 762.379 404.771 762.289ZM404.759 762.253C404.69 762.289 404.708 762.283 404.759 762.253V762.253ZM405.413 763.232L405.38 763.286C405.388 763.266 405.399 763.248 405.413 763.232ZM406.875 760.076C406.622 759.745 406.295 759.478 405.921 759.296C405.546 759.114 405.134 759.023 404.717 759.029C404.159 759.033 403.612 759.18 403.129 759.458C402.306 759.956 402.228 761.001 402.441 761.86C402.465 761.95 402.492 762.031 402.522 762.112C402.618 761.815 402.761 761.537 402.946 761.286C403.404 760.714 404.024 760.293 404.725 760.077C405.425 759.861 406.175 759.861 406.875 760.076ZM405.413 763.232C405.413 763.358 405.482 763.157 405.413 763.232V763.232Z" fill="white"/>
<path d="M404.867 762.217C404.813 762.229 404.813 762.232 404.867 762.217V762.217ZM404.783 762.301V762.278C404.783 762.278 404.783 762.295 404.783 762.301ZM405.413 760.954V760.936C405.413 760.909 405.35 760.908 405.413 760.954ZM405.428 760.99C405.428 760.99 405.485 761.152 405.47 761.143C405.473 761.089 405.473 761.035 405.47 760.981L405.422 760.963C405.426 760.971 405.428 760.98 405.428 760.99ZM405.431 760.957C405.448 760.962 405.464 760.969 405.479 760.978C405.479 760.924 405.48 760.86 405.495 760.815L405.425 760.936C405.428 760.942 405.43 760.949 405.431 760.957ZM405.431 760.963L405.479 760.981C405.464 760.972 405.448 760.965 405.431 760.96V760.963ZM404.654 761.956L404.687 762.01C404.705 762.037 404.711 762.043 404.687 762.01L404.648 761.956C404.69 762.061 404.753 762.199 404.711 762.034C404.711 762.025 404.711 762.016 404.711 762.007L404.654 761.956Z" fill="white"/>
<path d="M404.705 762.007C404.705 761.977 404.687 761.941 404.672 761.893C404.672 761.926 404.693 761.965 404.702 762.007H404.705ZM404.702 762.007C404.702 762.016 404.702 762.025 404.702 762.034C404.702 762.034 404.702 762.016 404.702 762.007ZM406.875 760.077C407.249 760.563 407.472 761.149 407.518 761.761C407.538 762.029 407.527 762.299 407.485 762.565C408.247 762.436 408.809 761.533 408.085 760.809C407.746 760.471 407.331 760.22 406.875 760.077ZM404.771 762.205C404.769 762.186 404.769 762.167 404.771 762.148V762.166C404.772 762.183 404.772 762.2 404.771 762.217C404.771 762.217 404.771 762.211 404.771 762.205ZM404.768 762.223C404.769 762.206 404.769 762.189 404.768 762.172C404.769 762.199 404.769 762.226 404.768 762.253C404.768 762.253 404.765 762.232 404.768 762.223ZM404.759 762.277C404.759 762.277 404.759 762.298 404.759 762.31V762.277Z" fill="white"/>
<path d="M404.762 762.25L404.759 762.253H404.762V762.25Z" fill="white"/>
<path d="M404.831 761.971C404.774 761.938 404.72 761.908 404.666 761.872L404.768 762.049L404.831 761.971ZM404.759 762.253V762.274C404.76 762.267 404.76 762.26 404.759 762.253ZM404.756 762.109L404.777 762.073C404.754 762.062 404.733 762.048 404.714 762.031C404.714 762.031 404.714 762.049 404.714 762.058C404.723 762.088 404.734 762.117 404.747 762.145V762.127C404.747 762.127 404.756 762.091 404.756 762.109ZM404.756 762.145C404.756 762.124 404.756 762.112 404.756 762.103V762.121C404.756 762.121 404.756 762.121 404.756 762.136C404.756 762.151 404.756 762.136 404.756 762.154V762.145ZM404.753 762.154C404.754 762.16 404.754 762.166 404.753 762.172V762.154Z" fill="white"/>
<path d="M404.744 762.11L404.717 762.158H404.753C404.753 762.158 404.753 762.158 404.753 762.14C404.753 762.122 404.747 762.125 404.744 762.11ZM404.774 762.254C404.775 762.261 404.775 762.268 404.774 762.275C404.773 762.268 404.773 762.261 404.774 762.254ZM404.942 762.179C405.083 762.143 404.966 762.179 404.885 762.212C404.962 762.218 405.039 762.218 405.116 762.212C405.116 762.212 405.116 762.191 405.146 762.185C405.138 762.177 405.129 762.171 405.119 762.167C405.08 762.138 405.039 762.112 404.996 762.089H404.969C405.005 762.089 405.011 762.089 404.942 762.089H404.921C404.887 762.103 404.852 762.113 404.816 762.119L404.858 762.194H404.876C404.864 762.209 404.873 762.2 404.942 762.179Z" fill="white"/>
<path d="M406.78 761.986C406.687 761.676 406.567 761.375 406.422 761.086C406.152 760.485 405.318 760.509 404.903 760.891C404.649 761.126 404.416 761.383 404.207 761.659L405.408 760.969C405.345 760.936 405.408 760.912 405.408 760.951L405.477 760.831C405.477 760.876 405.477 760.939 405.462 760.993C405.465 761.047 405.465 761.101 405.462 761.155C405.462 761.155 405.423 760.996 405.42 761.002C405.421 760.993 405.421 760.984 405.42 760.975L404.84 761.986L404.975 762.07C405.02 762.07 405.047 762.07 405.005 762.091C405.048 762.115 405.089 762.141 405.128 762.169C405.138 762.174 405.147 762.18 405.155 762.187H405.179C405.321 762.187 405.273 762.188 405.179 762.212C405.219 762.254 405.149 762.236 405.128 762.212C405.052 762.218 404.974 762.218 404.897 762.212H404.879C405.062 762.533 405.246 762.854 405.432 763.175C405.43 763.188 405.43 763.201 405.432 763.214C405.486 763.13 405.537 763.04 405.588 762.953C405.777 762.632 405.675 762.683 405.954 762.482C406.068 762.398 406.398 762.154 406.596 762.314C406.667 762.37 406.744 762.418 406.825 762.458C406.838 762.299 406.822 762.14 406.78 761.986Z" fill="white"/>
<path d="M404.812 762.131L404.765 762.151C404.764 762.17 404.764 762.189 404.765 762.208C404.764 762.194 404.764 762.18 404.765 762.166C404.765 762.196 404.765 762.223 404.765 762.247C404.765 762.22 404.783 762.217 404.765 762.247L404.812 762.214C404.812 762.22 404.812 762.226 404.812 762.232L404.848 762.214L404.807 762.14L404.812 762.131Z" fill="white"/>
<path d="M407.515 761.761C407.47 761.149 407.246 760.564 406.872 760.077C406.172 759.861 405.424 759.86 404.723 760.074C404.022 760.288 403.402 760.707 402.943 761.278C402.758 761.528 402.615 761.807 402.519 762.103C403.015 763.469 404.411 764.022 405.795 763.719C406.074 763.642 406.322 763.48 406.504 763.255C406.686 763.03 406.793 762.753 406.809 762.464C406.728 762.424 406.652 762.376 406.581 762.32C406.383 762.161 406.053 762.404 405.939 762.488C405.659 762.689 405.762 762.638 405.572 762.959C405.521 763.046 405.47 763.136 405.416 763.22C405.416 763.346 405.485 763.145 405.416 763.22C405.403 763.233 405.392 763.247 405.383 763.262L405.416 763.208C405.415 763.195 405.415 763.182 405.416 763.169C405.23 762.848 405.047 762.527 404.864 762.206C404.801 762.206 404.822 762.206 404.864 762.206L404.828 762.224L404.786 762.278V762.302C404.786 762.302 404.786 762.302 404.786 762.281C404.786 762.371 404.771 762.377 404.786 762.299V762.314C404.783 762.342 404.772 762.37 404.753 762.392L404.786 762.314C404.729 762.386 404.729 762.38 404.786 762.29V762.269C404.717 762.305 404.735 762.299 404.786 762.269C404.787 762.242 404.787 762.215 404.786 762.188C404.787 762.182 404.787 762.175 404.786 762.17H404.75C404.558 762.248 404.558 762.251 404.75 762.17L404.777 762.122C404.764 762.093 404.753 762.064 404.744 762.034C404.786 762.2 404.723 762.061 404.681 761.956C404.675 761.946 404.668 761.936 404.66 761.926C404.665 761.933 404.671 761.939 404.678 761.944C404.667 761.92 404.658 761.895 404.651 761.869C404.66 761.899 404.672 761.929 404.687 761.956L404.735 762.007C404.735 761.965 404.714 761.926 404.705 761.893C404.705 761.941 404.729 761.977 404.738 762.007C404.757 762.024 404.778 762.039 404.801 762.049L404.699 761.872C404.753 761.908 404.807 761.938 404.864 761.971L405.443 760.96L404.243 761.65C404.451 761.374 404.684 761.117 404.939 760.882C405.353 760.5 406.188 760.476 406.458 761.077C406.603 761.366 406.722 761.667 406.815 761.977C406.855 762.133 406.866 762.295 406.848 762.455C407.056 762.559 407.292 762.595 407.521 762.557C407.549 762.292 407.547 762.025 407.515 761.761Z" fill="white"/>
<path d="M406.812 762.463C406.796 762.752 406.69 763.029 406.507 763.254C406.325 763.48 406.077 763.642 405.798 763.718C404.414 764.018 403.018 763.469 402.522 762.103C402.222 763.055 402.39 764.148 403.387 764.619C404.096 764.978 404.912 765.064 405.681 764.862C406.719 764.562 407.329 763.589 407.482 762.565C407.254 762.603 407.019 762.567 406.812 762.463ZM404.786 762.238L404.822 762.22C404.821 762.214 404.821 762.208 404.822 762.202L404.786 762.238ZM404.759 762.304V762.286V762.265V762.304Z" fill="white"/>
<path d="M404.756 762.307H404.759V762.304L404.756 762.307Z" fill="white"/>
<path d="M404.777 762.259V762.277L404.819 762.223L404.783 762.241L404.777 762.259ZM404.777 762.265C404.776 762.27 404.776 762.275 404.777 762.28V762.265ZM404.774 762.268V762.289C404.773 762.284 404.773 762.279 404.774 762.274V762.268Z" fill="white"/>
<path d="M404.771 762.247C404.771 762.247 404.771 762.22 404.771 762.208C404.771 762.196 404.771 762.208 404.771 762.226C404.771 762.244 404.771 762.238 404.771 762.247ZM404.777 762.244C404.777 762.22 404.777 762.193 404.777 762.163C404.776 762.177 404.776 762.191 404.777 762.205C404.777 762.205 404.777 762.232 404.777 762.244ZM404.756 762.109C404.758 762.125 404.758 762.141 404.756 762.157L404.804 762.136L404.768 762.073L404.756 762.109ZM404.753 762.109C404.753 762.109 404.753 762.13 404.753 762.151C404.755 762.135 404.755 762.119 404.753 762.103V762.109Z" fill="white"/>
<path d="M404.896 762.109H404.872H404.828C404.774 762.109 404.783 762.109 404.828 762.109L404.789 762.094L404.825 762.157H404.863L404.896 762.109Z" fill="white"/>
<path d="M404.903 762.09L404.858 762.108L404.822 762.126C404.858 762.121 404.893 762.11 404.927 762.096H404.948H404.909L404.903 762.09ZM404.903 762.09H404.942H404.968H404.927H404.903ZM404.927 762.082H404.968H404.995L404.965 762.061C404.922 762.062 404.879 762.068 404.837 762.079C404.867 762.077 404.897 762.078 404.927 762.082ZM404.882 762.09H404.903H404.927C404.897 762.088 404.867 762.088 404.837 762.09H404.882ZM404.828 762.082C404.774 762.073 404.783 762.07 404.828 762.082V762.082ZM404.813 762.073H404.831C404.873 762.062 404.916 762.056 404.959 762.055L404.825 761.971L404.774 762.058L404.813 762.073Z" fill="white"/>
</g>
</svg>
