<svg width="612" height="583" viewBox="0 0 612 583" fill="none" xmlns="http://www.w3.org/2000/svg">
<path d="M539.593 166.585C555.194 24.4948 417.439 -24.8697 319.781 11.5113C221.331 48.1874 198.507 -12.6099 60.071 4.76085C-80.1028 22.3496 -8.93442 242.387 -8.93442 242.387C-8.93442 242.387 13.3693 433.724 39.7936 521.919C66.0748 609.637 317.641 577.901 378.838 575.283C439.683 572.68 492.554 577.704 545.492 481.39C598.333 385.252 524.044 308.203 539.593 166.585Z" fill="#F4F7FA"/>
<path d="M365.234 394.028C382.904 391.918 387.253 370.576 387.902 345.918C388.551 321.26 427.163 313.276 439.924 307.212C458.141 298.557 464.709 293.676 468.609 251.151C467.293 191.505 489.894 152.525 516.595 155.253C543.649 158.017 553.785 185.494 546.862 210.959C543.418 223.628 554.709 227.848 558.491 239.829C560.024 244.683 559.745 248.594 559.373 252.392C557.204 274.542 526.419 276.969 519.253 298.774C512.908 318.085 533.278 327.662 526.526 345.057C520.41 360.814 502.109 357.04 466.842 383.831C463.511 386.362 460.672 391.961 450.755 397.257C439.083 403.49 419.131 411.663 409.971 423.347C397.875 422.52 385.695 421.502 373.762 422.304C362.201 420.474 350.736 418.041 339.38 415.172C343.925 405.802 351.648 395.651 365.234 394.028Z" fill="url(#paint0_linear_58_8211)"/>
<mask id="mask0_58_8211" style="mask-type:luminance" maskUnits="userSpaceOnUse" x="339" y="155" width="221" height="269">
<path d="M365.234 394.028C382.904 391.918 387.253 370.576 387.902 345.918C388.551 321.26 427.163 313.276 439.924 307.212C458.141 298.557 464.709 293.676 468.609 251.151C467.293 191.505 489.894 152.525 516.595 155.253C543.649 158.017 553.785 185.494 546.862 210.959C543.418 223.628 554.709 227.848 558.491 239.829C560.024 244.683 559.745 248.594 559.373 252.392C557.204 274.542 526.419 276.969 519.253 298.774C512.908 318.085 533.278 327.662 526.526 345.057C520.41 360.814 502.109 357.04 466.842 383.831C463.511 386.362 460.672 391.961 450.755 397.257C439.083 403.49 419.131 411.663 409.971 423.347C397.875 422.52 385.695 421.502 373.762 422.304C362.201 420.474 350.736 418.041 339.38 415.172C343.925 405.802 351.648 395.651 365.234 394.028Z" fill="white"/>
</mask>
<g mask="url(#mask0_58_8211)">
<g opacity="0.5">
<path d="M350.979 452.553L351.651 453.323C355.937 449.65 360.21 445.889 364.352 442.145C395.014 414.42 421.754 384.624 443.832 353.583C462.539 327.281 478.168 299.719 490.283 271.663C500.027 249.101 507.562 226.098 512.678 203.294C516.275 187.262 518.649 171.493 519.733 156.426C519.923 153.8 519.968 151.093 520.013 148.475C520.072 144.986 520.133 141.379 520.534 137.937L519.556 137.75C519.149 141.239 519.087 144.87 519.028 148.382C518.984 150.988 518.938 153.681 518.751 156.28C517.67 171.301 515.303 187.022 511.716 203.008C506.612 225.756 499.095 248.705 489.374 271.215C477.283 299.213 461.686 326.72 443.015 352.971C420.975 383.96 394.276 413.709 363.662 441.39C359.526 445.129 355.259 448.885 350.979 452.553Z" fill="#FCFDFE"/>
<path d="M473.177 304.623L474.038 305.165C494.466 269.774 560.94 246.158 561.609 245.924L561.222 244.99C560.55 245.225 493.767 268.948 473.177 304.623Z" fill="#FCFDFE"/>
<path d="M406.96 397.925L407.761 398.559C424.585 376.356 411.566 321.414 411.433 320.862L410.476 321.023C410.608 321.571 423.522 376.069 406.96 397.925Z" fill="#FCFDFE"/>
<path d="M396.261 409.61L396.948 410.368C410.473 398.251 435.954 389.486 468.696 385.689C470.343 385.498 470.343 385.498 470.479 385.38L469.8 384.614L470.139 384.997L469.959 384.528C469.852 384.553 469.23 384.625 468.51 384.708C435.581 388.528 409.922 397.371 396.261 409.61Z" fill="#FCFDFE"/>
<path d="M358.697 445.732L359.557 446.276C369.68 428.912 358.128 399.461 358.011 399.166L357.1 399.469C357.216 399.76 368.588 428.765 358.697 445.732Z" fill="#FCFDFE"/>
<path d="M508.479 216.372L509.366 216.867C519.576 196.469 535.219 177.782 540.359 171.642C541.603 170.155 542.04 169.631 542.158 169.419L541.289 168.889C541.197 169.049 540.485 169.899 539.585 170.975C534.428 177.135 518.736 195.882 508.479 216.372Z" fill="#FCFDFE"/>
<path d="M496.977 252.382L497.951 252.603C501.245 231.057 474.925 193.641 473.803 192.059L473.015 192.588C473.287 192.972 500.21 231.238 496.977 252.382Z" fill="#FCFDFE"/>
</g>
</g>
<path d="M345.904 380.32C348.569 382.158 356.804 367.281 377.92 357.699C383.195 355.305 411.063 340.253 429.36 355.495C432.912 358.454 436.464 361.413 440.016 364.371C449.899 359.289 458.272 352.669 450.477 340.358C438.373 321.241 462.588 294.155 475.76 288.692C492.063 281.931 529.651 265.404 511.396 235.586C496.2 210.762 481.381 197.515 502.997 171.141C524.614 144.766 524.348 116.009 498.61 95.7053C471.525 74.3391 479.817 23.6858 449.005 15.5477C395.316 1.36861 377.62 86.2736 407.401 142.095C437.182 197.917 397.869 190.043 377.783 209.484C376.02 211.394 373.435 214.492 371.078 218.727C356.568 244.802 375.865 268.802 376.165 301.053C376.574 345.037 341.414 377.222 345.904 380.32Z" fill="url(#paint1_linear_58_8211)"/>
<mask id="mask1_58_8211" style="mask-type:luminance" maskUnits="userSpaceOnUse" x="369" y="13" width="150" height="356">
<path d="M376.329 319.122L432.575 368.686C442.582 364.138 459.184 354.109 450.477 340.359C438.373 321.241 462.588 294.155 475.76 288.692C492.063 281.931 529.651 265.404 511.396 235.586C496.2 210.762 481.381 197.516 502.998 171.141C524.614 144.766 524.348 116.009 498.61 95.7055C471.525 74.3395 479.817 23.686 449.005 15.5481C395.316 1.36859 377.62 86.2735 407.401 142.095C437.182 197.917 397.869 190.043 377.783 209.484C350.36 236.025 396.448 266.338 397.037 286.928C397.5 303.07 384.983 313.578 376.329 319.122Z" fill="white"/>
</mask>
<g mask="url(#mask1_58_8211)">
<g opacity="0.5">
<path d="M410.292 334.197L411.687 335.032C468.389 238.224 475.32 112.3 429.775 6.401L428.309 6.94122C473.662 112.394 466.758 237.792 410.292 334.197Z" fill="#FCFDFE"/>
<path d="M436.443 278.57L437.657 279.649C467.417 247.085 520.481 248.242 521.013 248.258L520.974 246.694C520.434 246.678 466.672 245.493 436.443 278.57Z" fill="#FCFDFE"/>
<path d="M420.212 316.083L421.772 316.495C431.53 272.515 371.022 211.294 370.409 210.681L369.299 211.744C369.905 212.351 429.784 272.94 420.212 316.083Z" fill="#FCFDFE"/>
<path d="M457.781 169.708L459.308 170.248C470.099 136.298 520.687 114.256 521.197 114.037L520.492 112.598C519.976 112.819 468.772 135.131 457.781 169.708Z" fill="#FCFDFE"/>
<path d="M453.995 97.0494L455.514 96.6491C442.556 56.818 392.479 27.9612 391.973 27.6744L391.23 29.0175C391.729 29.3003 441.239 57.8388 453.995 97.0494Z" fill="#FCFDFE"/>
</g>
</g>
<path d="M23.7975 407.773C9.20677 407.417 -2.20044 395.594 -2.20044 380.857V75.8948C-2.20044 60.8299 9.9235 49.0228 24.8497 49.5762L404.252 63.6437C404.395 63.6491 404.496 63.6534 404.638 63.6613C417.45 64.3838 427.81 76.2135 427.81 90.0358V367.537C427.81 381.284 417.517 392.862 404.802 393.346L25.4535 407.761C24.8898 407.782 24.3594 407.787 23.7975 407.773Z" fill="url(#paint2_linear_58_8211)"/>
<path d="M29.1721 407.904C14.5952 407.548 3.19867 395.732 3.19867 381.001V76.1828C3.19867 61.1249 15.3111 49.3229 30.2234 49.876L409.275 63.9271C409.418 63.9325 409.519 63.9366 409.661 63.9447C422.461 64.6665 432.811 76.4908 432.811 90.3066V367.682C432.811 381.423 422.528 392.996 409.824 393.48L30.827 407.892C30.2633 407.913 29.7334 407.918 29.1721 407.904Z" fill="#C281E8"/>
<path d="M409.391 386.326L30.3241 400.492C19.5649 400.894 10.8063 392.26 10.8063 381.204V76.5886C10.8063 65.5333 19.5651 56.8902 30.3241 57.2822L409.391 71.0891C418.428 71.4182 425.726 79.8499 425.726 89.923V367.476C425.726 377.549 418.428 385.988 409.391 386.326Z" fill="#F4F7FA"/>
<path d="M123.133 331.643L62.9869 333.028C62.2671 333.045 61.6835 332.455 61.6835 331.712V316.929C61.6835 316.185 62.2671 315.571 62.9869 315.557L123.133 314.4C123.834 314.387 124.402 314.97 124.402 315.704V330.286C124.402 331.019 123.834 331.627 123.133 331.643Z" fill="#C281E8"/>
<path d="M296.325 359.197L62.9869 366.248C62.2671 366.27 61.6835 365.685 61.6835 364.941V350.158C61.6835 349.415 62.2671 348.797 62.9869 348.778L296.326 342.609C296.974 342.591 297.5 343.149 297.5 343.855V357.883C297.5 358.589 296.974 359.177 296.325 359.197Z" fill="#D8DEE8"/>
<path d="M59.2968 135.133C55.9964 137.139 52.8155 141.605 53.5384 146.574C54.2721 151.617 58.6882 154.866 62.1704 155.951C67.0667 157.477 68.6797 154.275 73.9474 154.816C81.9198 155.635 88.1228 163.994 90.7129 170.143C93.2583 176.186 91.2733 177.627 92.9181 184.573C95.8069 196.774 104.762 204.307 113.294 211.483C120.399 217.459 131.233 224.701 133.181 222.581C133.878 221.822 133.25 220.069 132.871 219.011C131.368 214.815 127.937 213.835 123.259 209.89C119.932 207.085 115.732 203.543 116.413 200.746C117.083 197.992 122.402 196.316 126.364 197.553C130.332 198.792 132.463 202.804 133.49 204.737C134.368 206.389 134.222 208.526 135.036 208.636C135.598 208.712 136.222 207.847 136.504 207.102C137.229 205.184 135.962 203.319 135.5 201.827C134.436 198.391 136.956 194.71 139.463 191.049C143.655 184.924 146.11 184.9 152.588 177.797C156.921 173.047 159.089 170.605 159.326 167.117C159.733 161.136 154.84 156.609 154.019 155.85C150.062 152.189 143.349 149.628 140.491 152.183C137.926 154.475 140.626 158.952 137.611 162.292C135.502 164.628 131.82 165.059 128.949 164.118C124.892 162.789 122.561 158.757 122.327 155.137C122.28 154.423 122.067 151.123 124.191 148.881C124.796 148.242 126.269 146.973 131.22 146.837C138.176 146.645 139.626 149.033 143.777 148.136C147.238 147.389 151.411 144.611 151.36 141.804C151.301 138.517 145.501 138.08 138.845 130.551C136.254 127.621 134.147 125.169 134.314 122.021C134.55 117.59 139.164 114.19 140.079 113.515C143.669 110.869 146.855 108.723 146.855 108.723C147.751 108.12 149.053 107.255 148.904 106.405C148.805 105.846 148.105 105.449 146.855 105.057C142.903 103.82 139.874 104.438 139.874 104.438C135.171 105.396 133.673 107.742 127.915 110.829C125.588 112.077 121.664 114.181 116.309 115.31C110.197 116.599 108.095 115.381 105.061 117.648C102.133 119.835 103.056 121.738 100.044 125.154C96.8881 128.732 93.0313 129.87 87.0325 131.64C84.7337 132.318 80.0884 133.53 73.7354 133.994C64.679 134.657 62.7633 133.026 59.2968 135.133Z" fill="#C281E8"/>
<path d="M158.919 108.177C152.538 109.781 146.987 111.176 145.83 115.168C145.229 117.244 145.788 120.121 147.47 121.678C150.816 124.773 155.863 120.116 159.531 122.817C161.491 124.262 160.749 126.11 162.994 136.435C164.491 143.322 165.72 146.634 168.077 149.63C169.412 151.329 171.285 153.71 173.148 153.362C175.907 152.846 174.862 147.045 179.22 142.969C180.748 141.538 181.027 142.113 188.295 138.65C192.535 136.63 194.661 135.604 195.129 134.73C197.519 130.263 191.17 124.646 193.723 119.334C194.205 118.332 194.271 118.865 197.535 114.734C201.285 109.987 201.239 109.231 201.141 108.857C200.724 107.273 197.936 107.083 190.71 106.02C178.705 104.254 177.731 103.504 174.161 104.289C171.792 104.81 171.161 105.374 166.045 106.646C162.049 107.639 161.603 107.503 158.919 108.177Z" fill="#C281E8"/>
<path d="M142.751 222.589C139.216 225.284 138.513 229.975 138.228 231.876C137.523 236.58 138.844 239.659 141.313 247.419C144.312 256.845 145.81 261.553 146.035 264.222C146.384 268.366 145.657 269.091 142.751 285.404C140.59 297.538 140.359 300.692 142.341 302.895C145.255 306.135 151.52 305.726 151.77 304.891C151.892 304.484 150.54 304.142 149.519 302.774C147.245 299.727 148.883 294.636 149.314 293.294C151.017 287.999 154.27 285.718 159.53 280.455C165.737 274.245 169.778 270.203 172.743 264.216C174.217 261.241 177.357 254.686 176.388 246.188C176.193 244.475 175.376 238.694 171.324 232.911C166.062 225.4 158.958 223.042 156.879 222.387C152.831 221.111 147.071 219.296 142.751 222.589Z" fill="#C281E8"/>
<path d="M202.941 193.037C200.654 197.593 198.125 202.632 197.134 207.283C196.247 211.446 195.399 220.892 199.939 224.559C204.046 227.876 208.78 223.404 214.509 227.115C217.43 229.008 218.717 231.804 220.271 235.177C223.609 242.427 222.017 246.432 223.443 255.737C224.114 260.11 226.243 274.002 231.553 274.942C235.979 275.726 240.794 267.181 241.598 265.754C243.734 261.964 244.557 258.028 246.114 250.315C248.213 239.918 247.433 238.463 249.642 235.543C252.484 231.785 255.925 231.356 256.68 227.742C257.235 225.087 255.912 222.692 255.118 221.217C252.183 215.764 248.091 216.348 245.329 211.078C243.741 208.047 243.312 204.452 243.956 204.108C244.531 203.801 246.125 206.006 246.898 207.076C249.273 210.361 248.983 211.545 250.425 213.203C253.34 216.554 258.262 216.009 258.631 215.962C260.888 215.678 264.949 214.333 265.447 211.569C265.829 209.44 263.976 207.155 261.749 204.409C259.952 202.193 258.607 201.238 258.826 200.819C259.048 200.394 260.646 200.957 264.863 202.535C269.44 204.246 271.724 205.101 272.047 205.3C273.586 206.251 274.897 207.533 279.208 215.175C283.574 222.915 285.162 226.801 286.153 226.481C286.646 226.322 286.56 225.261 286.923 221.674C287.465 216.31 287.763 213.589 289.04 211.65C290.117 210.014 292.421 207.801 294.803 208.122C296.232 208.315 297.947 210.695 301.316 215.441C304.635 220.117 305.754 221.705 308.001 222.946C309.18 223.597 311.291 224.763 312.953 223.782C314.798 222.692 315.43 219.343 314.665 216.929C313.739 214.008 311.166 213.719 311.24 211.933C311.347 209.387 316.671 207.734 317.135 207.594C320.567 206.562 321.446 207.751 323.203 206.585C325.813 204.854 326.887 200.236 326.231 196.656C325.556 192.97 323.267 191.597 323.961 190.009C324.544 188.674 326.376 189.158 330.01 188.198C332.708 187.485 336.689 186.432 338.865 183.113C340.16 181.137 340.389 179.009 340.744 175.7C340.803 175.149 341.06 172.604 340.744 169.094C340.306 164.233 339.342 163.882 339.805 162.474C340.819 159.385 345.705 160.314 354.974 157.554C360.273 155.976 364.097 154.057 364.471 154.832C364.94 155.803 358.749 158.475 358.331 163.57C358.015 167.431 361.122 171.377 362.427 171.025C363.504 170.734 362.726 167.678 364.657 163.252C365.368 161.622 366.447 159.15 368.741 157.569C371.493 155.672 373.115 157.042 375.591 155.017C377.571 153.396 377.072 152.077 378.731 150.362C382.49 146.477 388.82 149.35 389.227 147.895C389.603 146.55 384.722 142.217 378.362 141.147C372.703 140.194 371.831 142.824 365.401 142.736C361.746 142.687 357.318 141.017 348.433 137.666C343.411 135.773 340.793 134.494 336.232 134.109C333.055 133.841 332.959 134.345 329.633 133.969C325.858 133.541 321.179 133.012 317.515 129.56C314.64 126.851 315.518 125.291 313.144 123.645C309.31 120.988 304.058 123.001 299.594 124.785C294.85 126.68 291.481 129.037 285.768 133.034C279.12 137.685 276.892 140.017 273.21 139.475C270.459 139.071 269.896 137.503 266.808 137.459C264.308 137.424 263.524 138.433 258.437 140.656C253.514 142.807 251.005 143.875 248.859 143.421C245.533 142.718 245.405 140.237 241.795 138.643C237.944 136.942 234.269 138.077 229.775 139.463C224.224 141.177 218.758 142.863 216.1 147.902C213.285 153.241 215.896 158.028 212.718 160.382C210.081 162.335 207.379 159.713 204.94 161.757C202.008 164.214 202.88 170.537 203.341 173.873C204.248 180.445 206.502 182.083 205.739 186.673C205.4 188.706 204.801 189.33 202.941 193.037Z" fill="#C281E8"/>
<path d="M256.68 248.155C255.304 248.009 253.003 253.933 253.554 259.542C253.587 259.875 254.041 264.226 255.313 264.37C256.495 264.505 257.725 260.934 257.851 260.562C258.057 259.95 258.677 257.954 258.436 254.668C258.368 253.748 257.968 248.292 256.68 248.155Z" fill="#C281E8"/>
<path d="M305.902 234.39C305.802 234.649 306.19 235.089 307.271 236.023C310.127 238.489 311.553 239.721 313.905 240.607C315.935 241.372 320.984 242.759 322.067 240.788C322.762 239.525 321.764 236.995 320.172 235.816C318.474 234.56 317.198 235.652 313.144 235.416C308.941 235.171 306.148 233.757 305.902 234.39Z" fill="#C281E8"/>
<path d="M320.172 223.579C319.334 223.723 319.548 225.518 317.895 229.388C317.123 231.194 316.705 231.674 316.946 232.294C317.476 233.662 320.67 234.319 322.257 232.702C323.738 231.194 323.062 228.475 322.825 227.519C322.376 225.712 321.152 223.41 320.172 223.579Z" fill="#C281E8"/>
<path d="M337.173 238.674C337.803 239.673 338.873 240.91 341.496 242.171C342.411 242.61 349.166 245.858 350.865 243.373C351.557 242.361 351.218 240.681 350.678 239.666C349.843 238.095 348.317 237.719 345.811 237C338.344 234.857 336.653 233.818 336.044 234.75C335.359 235.797 336.828 238.128 337.173 238.674Z" fill="#C281E8"/>
<path d="M324.529 216.33C323.635 216.629 323.692 221.079 325.286 224.619C326.114 226.459 327.623 228.641 328.311 228.346C329.055 228.028 328.677 224.884 328.122 222.756C327.297 219.594 325.394 216.04 324.529 216.33Z" fill="#C281E8"/>
<path d="M331.709 195.453C331.724 194.413 334.087 194.681 337.173 192.6C339.316 191.155 342.457 188.139 344.124 183.991C344.462 183.15 344.809 182.087 345.061 182.144C345.441 182.229 345.488 184.836 345.061 187.093C344.273 191.264 341.725 194.988 338.49 196.741C337.22 197.429 336.272 197.582 335.479 197.547C333.715 197.469 331.696 196.417 331.709 195.453Z" fill="#C281E8"/>
<path d="M325.285 256.109C321.148 260.039 318.887 259.339 318.274 261.552C317.579 264.059 320.419 265.175 320.93 270.24C321.247 273.389 320.373 275.171 321.119 275.63C322.251 276.326 324.118 272.146 328.499 270.579C328.839 270.457 333.427 268.893 337.172 271.318C339.346 272.726 339.073 274.078 342.622 277.452C344.892 279.611 346.072 280.701 347.496 280.487C349.844 280.135 351.171 276.492 351.986 274.254C352.661 272.402 354.206 268.158 353.107 263.126C352.631 260.947 352.28 261.463 345.81 251.434C344.021 248.661 343.302 247.466 341.683 246.711C338.376 245.167 334.751 247.057 334.159 247.365C332.861 248.042 331.722 249.204 329.444 251.527C326.75 254.274 326.918 254.559 325.285 256.109Z" fill="#C281E8"/>
<path d="M111.86 167.97C107.988 165.216 101.3 159.506 97.6914 149.92C96.2243 146.023 91.9248 134.603 97.3633 128.062C100.589 124.182 105.807 123.754 108.489 123.533C110.761 123.347 117.759 122.772 122.159 127.238C129.17 134.356 124.143 148.798 123.132 151.704C120.21 160.1 114.942 165.356 111.86 167.97Z" fill="url(#paint3_linear_58_8211)"/>
<path d="M118.262 139.898C118.262 144.685 114.548 148.502 109.958 148.423C105.359 148.344 101.624 144.386 101.624 139.582C101.624 134.777 105.359 130.961 109.958 131.057C114.548 131.153 118.262 135.111 118.262 139.898Z" fill="url(#paint4_linear_58_8211)"/>
<path d="M162.575 265.559C158.789 262.917 152.248 257.412 148.719 248.01C147.285 244.186 143.081 232.985 148.399 226.402C151.553 222.496 156.655 221.962 159.278 221.687C161.499 221.454 168.344 220.737 172.646 225.06C179.503 231.95 174.587 246.34 173.598 249.235C170.74 257.6 165.588 262.909 162.575 265.559Z" fill="url(#paint5_linear_58_8211)"/>
<path d="M168.835 237.663C168.835 242.397 165.203 246.25 160.714 246.269C156.217 246.289 152.565 242.453 152.565 237.702C152.565 232.952 156.217 229.099 160.714 229.096C165.203 229.094 168.835 232.929 168.835 237.663Z" fill="url(#paint6_linear_58_8211)"/>
<path d="M329.176 261.099C325.664 258.551 319.597 253.244 316.325 244.186C314.994 240.503 311.096 229.713 316.027 223.377C318.953 219.619 323.685 219.107 326.118 218.844C328.178 218.621 334.527 217.934 338.519 222.101C344.881 228.742 340.319 242.599 339.402 245.387C336.75 253.441 331.971 258.55 329.176 261.099Z" fill="url(#paint7_linear_58_8211)"/>
<path d="M334.983 234.237C334.983 238.796 331.614 242.505 327.451 242.52C323.279 242.535 319.892 238.838 319.892 234.263C319.892 229.688 323.279 225.98 327.451 225.98C331.614 225.981 334.983 229.678 334.983 234.237Z" fill="url(#paint8_linear_58_8211)"/>
<path d="M281.346 203.796C277.757 201.173 271.556 195.726 268.211 186.525C266.851 182.784 262.866 171.823 267.907 165.483C270.897 161.722 275.735 161.268 278.221 161.035C280.327 160.837 286.816 160.228 290.896 164.494C297.398 171.294 292.737 185.241 291.799 188.047C289.089 196.155 284.204 201.256 281.346 203.796Z" fill="url(#paint9_linear_58_8211)"/>
<path d="M287.282 176.716C287.282 181.325 283.838 185.029 279.583 184.989C275.319 184.949 271.856 181.166 271.856 176.541C271.856 171.915 275.319 168.211 279.583 168.268C283.838 168.324 287.282 172.107 287.282 176.716Z" fill="url(#paint10_linear_58_8211)"/>
<path d="M113.205 167.97C109.333 165.216 102.645 159.506 99.0363 149.92C97.5692 146.023 93.2698 134.603 98.7083 128.062C101.934 124.182 107.152 123.754 109.834 123.533C112.105 123.347 119.104 122.772 123.504 127.238C130.515 134.356 125.488 148.798 124.477 151.704C121.555 160.1 116.286 165.356 113.205 167.97Z" fill="url(#paint11_linear_58_8211)"/>
<path d="M119.607 139.898C119.607 144.685 115.893 148.502 111.303 148.423C106.704 148.344 102.969 144.386 102.969 139.582C102.969 134.777 106.704 130.961 111.303 131.057C115.893 131.153 119.607 135.111 119.607 139.898Z" fill="#F4F7FA"/>
<path d="M163.92 265.559C160.134 262.917 153.594 257.412 150.065 248.009C148.63 244.186 144.426 232.985 149.744 226.402C152.899 222.496 158.001 221.962 160.624 221.687C162.845 221.454 169.689 220.737 173.992 225.06C180.849 231.95 175.933 246.34 174.944 249.235C172.086 257.6 166.934 262.909 163.92 265.559Z" fill="url(#paint12_linear_58_8211)"/>
<path d="M170.18 237.663C170.18 242.397 166.548 246.25 162.06 246.269C157.562 246.289 153.91 242.453 153.91 237.702C153.91 232.951 157.562 229.098 162.06 229.096C166.548 229.094 170.18 232.929 170.18 237.663Z" fill="#F4F7FA"/>
<path d="M350.574 156.438C347.062 153.89 340.996 148.583 337.723 139.525C336.392 135.842 332.494 125.052 337.425 118.716C340.351 114.957 345.083 114.446 347.516 114.183C349.576 113.96 355.925 113.273 359.917 117.44C366.279 124.081 361.718 137.937 360.8 140.726C358.149 148.78 353.369 153.889 350.574 156.438Z" fill="url(#paint13_linear_58_8211)"/>
<path d="M356.381 129.576C356.381 134.135 353.011 137.844 348.848 137.859C344.676 137.874 341.289 134.177 341.289 129.602C341.289 125.027 344.676 121.319 348.848 121.319C353.011 121.32 356.381 125.017 356.381 129.576Z" fill="#F4F7FA"/>
<path d="M282.691 203.796C279.102 201.173 272.901 195.726 269.556 186.525C268.196 182.784 264.211 171.823 269.252 165.483C272.242 161.722 277.079 161.268 279.566 161.035C281.672 160.837 288.161 160.228 292.241 164.494C298.743 171.293 294.081 185.241 293.143 188.047C290.433 196.155 285.548 201.256 282.691 203.796Z" fill="url(#paint14_linear_58_8211)"/>
<path d="M288.627 176.716C288.627 181.325 285.183 185.029 280.928 184.989C276.664 184.949 273.201 181.166 273.201 176.541C273.201 171.915 276.664 168.211 280.928 168.268C285.183 168.324 288.627 172.107 288.627 176.716Z" fill="#F4F7FA"/>
<path d="M130.988 479.059L406.296 479.059V345.141H130.988V479.059Z" fill="#D8DEE8"/>
<path opacity="0.3" d="M142.396 468.953L394.888 468.953V353.157H142.396V468.953Z" fill="#D8DEE8"/>
<path opacity="0.6" d="M367.08 468.954H378.742V353.158H367.08V468.954Z" fill="#D8DEE8"/>
<path d="M366.623 468.954H374.398V353.158H366.623V468.954Z" fill="#D8DEE8"/>
<path opacity="0.6" d="M337.355 468.954H349.016V353.158H337.355V468.954Z" fill="#D8DEE8"/>
<path d="M336.897 468.954H344.671V353.158H336.897V468.954Z" fill="#D8DEE8"/>
<path opacity="0.6" d="M307.628 468.954H319.29V353.158H307.628V468.954Z" fill="#D8DEE8"/>
<path d="M307.172 468.954H314.946V353.158H307.172V468.954Z" fill="#D8DEE8"/>
<path opacity="0.6" d="M277.904 468.954H289.565V353.158H277.904V468.954Z" fill="#D8DEE8"/>
<path d="M277.446 468.954H285.221V353.158H277.446V468.954Z" fill="#D8DEE8"/>
<path opacity="0.6" d="M248.177 468.954H259.838V353.158H248.177V468.954Z" fill="#D8DEE8"/>
<path d="M247.719 468.954H255.494V353.158H247.719V468.954Z" fill="#D8DEE8"/>
<path opacity="0.6" d="M218.452 468.954H230.114V353.158H218.452V468.954Z" fill="#D8DEE8"/>
<path d="M217.995 468.954H225.77V353.158H217.995V468.954Z" fill="#D8DEE8"/>
<path opacity="0.6" d="M188.725 468.953H200.387V353.157H188.725V468.953Z" fill="#D8DEE8"/>
<path d="M188.269 468.953H196.043V353.157H188.269V468.953Z" fill="#D8DEE8"/>
<path opacity="0.6" d="M158.999 468.953H170.661V353.158H158.999V468.953Z" fill="#D8DEE8"/>
<path d="M158.542 468.953H166.317V353.158H158.542V468.953Z" fill="#D8DEE8"/>
<path d="M406.296 479.059H544.041V345.141H406.296V479.059Z" fill="#F4F7FA"/>
<path d="M539.83 474.848V349.352H410.507V474.848H539.83Z" fill="#D8DEE8"/>
<path d="M412.336 472.314H474.234V351.887H412.336V472.314Z" fill="#D8DEE8"/>
<path d="M476.103 472.314H538.001V351.887H476.103V472.314Z" fill="#D8DEE8"/>
<path opacity="0.3" d="M476.102 396.731H538V386.204H476.102V396.731Z" fill="#D8DEE8"/>
<path opacity="0.3" d="M476.102 437.996H538V427.469H476.102V437.996Z" fill="#D8DEE8"/>
<path opacity="0.3" d="M412.337 396.73H474.235V386.203H412.337V396.73Z" fill="#D8DEE8"/>
<path opacity="0.3" d="M412.337 437.996H474.235V427.469H412.337V437.996Z" fill="#D8DEE8"/>
<path d="M507.123 474.205H510.377V348.725H507.123V474.205Z" fill="#D8DEE8"/>
<path d="M510.377 474.205V348.725H508.75L510.377 474.205Z" fill="#97A6B7"/>
<path d="M505.89 352.514H511.61V345.918H505.89V352.514Z" fill="#D8DEE8"/>
<path d="M505.89 477.504H511.61V470.907H505.89V477.504Z" fill="#D8DEE8"/>
<path d="M462.347 474.205H465.602V348.725H462.347V474.205Z" fill="#D8DEE8"/>
<path d="M465.602 474.205V348.725H463.975L465.602 474.205Z" fill="#97A6B7"/>
<path d="M461.115 352.514H466.835V345.918H461.115V352.514Z" fill="#D8DEE8"/>
<path d="M461.115 477.504H466.835V470.907H461.115V477.504Z" fill="#D8DEE8"/>
<path d="M439.96 474.205H443.214V348.725H439.96V474.205Z" fill="#D8DEE8"/>
<path d="M443.215 474.205V348.725H441.588L443.215 474.205Z" fill="#97A6B7"/>
<path d="M438.728 352.514H444.448V345.918H438.728V352.514Z" fill="#D8DEE8"/>
<path d="M438.728 477.503H444.448V470.907H438.728V477.503Z" fill="#D8DEE8"/>
<path d="M484.735 474.205H487.99V348.725H484.735V474.205Z" fill="#D8DEE8"/>
<path d="M487.99 474.205V348.725H486.362L487.99 474.205Z" fill="#97A6B7"/>
<path d="M483.503 352.514H489.222V345.918H483.503V352.514Z" fill="#D8DEE8"/>
<path d="M483.503 477.504H489.222V470.907H483.503V477.504Z" fill="#D8DEE8"/>
<path d="M-15 479.059L260.307 479.059V345.142H-15V479.059Z" fill="#D8DEE8"/>
<path opacity="0.3" d="M-3.59164 468.953L248.9 468.953V353.158H-3.59164V468.953Z" fill="#D8DEE8"/>
<path opacity="0.6" d="M221.093 468.953H232.754V353.158H221.093V468.953Z" fill="#D8DEE8"/>
<path d="M220.636 468.953H228.411V353.158H220.636V468.953Z" fill="#D8DEE8"/>
<path opacity="0.6" d="M191.367 468.953H203.028V353.158H191.367V468.953Z" fill="#D8DEE8"/>
<path d="M190.91 468.953H198.684V353.158H190.91V468.953Z" fill="#D8DEE8"/>
<path opacity="0.6" d="M161.64 468.953H173.302V353.158H161.64V468.953Z" fill="#D8DEE8"/>
<path d="M161.184 468.953H168.958V353.158H161.184V468.953Z" fill="#D8DEE8"/>
<path opacity="0.6" d="M131.915 468.953H143.576V353.158H131.915V468.953Z" fill="#D8DEE8"/>
<path d="M131.458 468.953H139.232V353.158H131.458V468.953Z" fill="#D8DEE8"/>
<path opacity="0.6" d="M102.19 468.953H113.851L113.851 353.158H102.19L102.19 468.953Z" fill="#D8DEE8"/>
<path d="M101.731 468.953H109.506L109.506 353.158H101.731L101.731 468.953Z" fill="#D8DEE8"/>
<path opacity="0.6" d="M72.4634 468.953H84.1251L84.1251 353.158H72.4634L72.4634 468.953Z" fill="#D8DEE8"/>
<path d="M72.0063 468.953H79.7808L79.7808 353.158H72.0063L72.0063 468.953Z" fill="#D8DEE8"/>
<path opacity="0.6" d="M42.737 468.953H54.3988L54.3988 353.158H42.737L42.737 468.953Z" fill="#D8DEE8"/>
<path d="M42.2805 468.953H50.0551L50.0551 353.158H42.2805L42.2805 468.953Z" fill="#D8DEE8"/>
<path opacity="0.6" d="M13.0113 468.953H24.6729L24.6729 353.158H13.0113L13.0113 468.953Z" fill="#D8DEE8"/>
<path d="M12.554 468.953H20.3285L20.3285 353.158H12.554L12.554 468.953Z" fill="#D8DEE8"/>
<path d="M260.308 479.059H398.053V345.142H260.308V479.059Z" fill="white"/>
<path d="M393.842 474.848V349.352H264.518V474.848H393.842Z" fill="#D8DEE8"/>
<path d="M266.347 472.314H328.245V351.886H266.347V472.314Z" fill="#D8DEE8"/>
<path d="M330.113 472.314H392.012V351.886H330.113V472.314Z" fill="#D8DEE8"/>
<path opacity="0.3" d="M330.114 396.731H392.012V386.204H330.114V396.731Z" fill="#D8DEE8"/>
<path opacity="0.3" d="M330.114 437.996H392.012V427.469H330.114V437.996Z" fill="#D8DEE8"/>
<path opacity="0.3" d="M266.347 396.731H328.245V386.204H266.347V396.731Z" fill="#D8DEE8"/>
<path opacity="0.3" d="M266.347 437.997H328.245V427.47H266.347V437.997Z" fill="#D8DEE8"/>
<path d="M361.134 474.205H364.389V348.725H361.134V474.205Z" fill="#D8DEE8"/>
<path d="M364.388 474.205V348.725H362.761L364.388 474.205Z" fill="#97A6B7"/>
<path d="M359.901 352.515H365.621V345.918H359.901V352.515Z" fill="#D8DEE8"/>
<path d="M359.901 477.504H365.621V470.907H359.901V477.504Z" fill="#D8DEE8"/>
<path d="M316.359 474.205H319.614V348.725H316.359V474.205Z" fill="#D8DEE8"/>
<path d="M319.613 474.205V348.725H317.986L319.613 474.205Z" fill="#97A6B7"/>
<path d="M315.126 352.515H320.846V345.918H315.126V352.515Z" fill="#D8DEE8"/>
<path d="M315.126 477.504H320.846V470.907H315.126V477.504Z" fill="#D8DEE8"/>
<path d="M293.971 474.205H297.225V348.725H293.971V474.205Z" fill="#D8DEE8"/>
<path d="M297.226 474.205V348.725H295.599L297.226 474.205Z" fill="#97A6B7"/>
<path d="M292.738 352.515H298.458V345.918H292.738V352.515Z" fill="#D8DEE8"/>
<path d="M292.738 477.504H298.458V470.907H292.738V477.504Z" fill="#D8DEE8"/>
<path d="M338.747 474.205H342.001V348.725H338.747V474.205Z" fill="#D8DEE8"/>
<path d="M342.001 474.205V348.725H340.374L342.001 474.205Z" fill="#97A6B7"/>
<path d="M337.514 352.515H343.233V345.918H337.514V352.515Z" fill="#D8DEE8"/>
<path d="M337.514 477.504H343.233V470.907H337.514V477.504Z" fill="#D8DEE8"/>
<path d="M30.6593 345.917L305.967 345.917V212L30.6593 212V345.917Z" fill="#D8DEE8"/>
<path opacity="0.3" d="M42.0672 335.812L294.559 335.812V220.016L42.0672 220.016V335.812Z" fill="#D8DEE8"/>
<path opacity="0.6" d="M266.752 335.812H278.414V220.016H266.752V335.812Z" fill="#D8DEE8"/>
<path d="M266.295 335.812H274.07V220.016H266.295V335.812Z" fill="#D8DEE8"/>
<path opacity="0.6" d="M237.026 335.812H248.687V220.016H237.026V335.812Z" fill="#D8DEE8"/>
<path d="M236.568 335.812H244.343V220.016H236.568V335.812Z" fill="#D8DEE8"/>
<path opacity="0.6" d="M207.299 335.812H218.961V220.016H207.299V335.812Z" fill="#D8DEE8"/>
<path d="M206.843 335.812H214.617V220.016H206.843V335.812Z" fill="#D8DEE8"/>
<path opacity="0.6" d="M177.574 335.812H189.236V220.016H177.574V335.812Z" fill="#D8DEE8"/>
<path d="M177.116 335.812H184.891V220.016H177.116V335.812Z" fill="#D8DEE8"/>
<path opacity="0.6" d="M147.849 335.812H159.51V220.016H147.849V335.812Z" fill="#D8DEE8"/>
<path d="M147.391 335.812H155.165V220.016H147.391V335.812Z" fill="#D8DEE8"/>
<path opacity="0.6" d="M118.122 335.812H129.784V220.016H118.122L118.122 335.812Z" fill="#D8DEE8"/>
<path d="M117.665 335.812H125.44L125.44 220.016H117.665L117.665 335.812Z" fill="#D8DEE8"/>
<path opacity="0.6" d="M88.3964 335.812H100.058L100.058 220.016H88.3964L88.3964 335.812Z" fill="#D8DEE8"/>
<path d="M87.9387 335.812H95.7132L95.7132 220.016H87.9387L87.9387 335.812Z" fill="#D8DEE8"/>
<path opacity="0.6" d="M58.6707 335.812H70.3323L70.3323 220.016H58.6707L58.6707 335.812Z" fill="#D8DEE8"/>
<path d="M58.2134 335.812H65.9879L65.9879 220.016H58.2134L58.2134 335.812Z" fill="#D8DEE8"/>
<path d="M305.967 345.917H443.712V212L305.967 212V345.917Z" fill="white"/>
<path opacity="0.3" d="M439.501 341.707V216.211L310.178 216.211V341.707H439.501Z" fill="#D8DEE8"/>
<path d="M312.008 339.173H373.906V218.745H312.008V339.173Z" fill="white"/>
<path d="M375.775 339.173H437.673V218.745H375.775V339.173Z" fill="white"/>
<path opacity="0.3" d="M375.775 263.589H437.673V253.063H375.775V263.589Z" fill="#D8DEE8"/>
<path opacity="0.3" d="M375.775 304.855H437.673V294.328H375.775V304.855Z" fill="#D8DEE8"/>
<path opacity="0.3" d="M312.008 263.589H373.907V253.063H312.008V263.589Z" fill="#D8DEE8"/>
<path opacity="0.3" d="M312.008 304.855H373.907V294.328H312.008V304.855Z" fill="#D8DEE8"/>
<path d="M406.794 341.063H410.048V215.583H406.794V341.063Z" fill="#D8DEE8"/>
<path d="M410.049 341.063V215.583H408.422L410.049 341.063Z" fill="#97A6B7"/>
<path d="M405.562 219.373H411.281V212.776H405.562V219.373Z" fill="#D8DEE8"/>
<path d="M405.562 344.362H411.281V337.765H405.562V344.362Z" fill="#D8DEE8"/>
<path d="M362.02 341.063H365.274V215.583H362.02V341.063Z" fill="#D8DEE8"/>
<path d="M365.273 341.063V215.583H363.646L365.273 341.063Z" fill="#97A6B7"/>
<path d="M360.787 219.373H366.506V212.776H360.787V219.373Z" fill="#D8DEE8"/>
<path d="M360.787 344.362H366.506V337.765H360.787V344.362Z" fill="#D8DEE8"/>
<path d="M339.632 341.063H342.886V215.583H339.632V341.063Z" fill="#D8DEE8"/>
<path d="M342.886 341.063V215.583H341.259L342.886 341.063Z" fill="#97A6B7"/>
<path d="M338.399 219.373H344.118V212.776H338.399V219.373Z" fill="#D8DEE8"/>
<path d="M338.399 344.362H344.118V337.765H338.399V344.362Z" fill="#D8DEE8"/>
<path d="M384.406 341.063H387.66V215.583H384.406V341.063Z" fill="#D8DEE8"/>
<path d="M387.661 341.063V215.583H386.034L387.661 341.063Z" fill="#97A6B7"/>
<path d="M383.174 219.373H388.893V212.776H383.174V219.373Z" fill="#D8DEE8"/>
<path d="M383.174 344.362H388.893V337.765H383.174V344.362Z" fill="#D8DEE8"/>
<path d="M468.52 477.31L434 473.089V422.178L468.52 415.64V477.31Z" fill="url(#paint15_linear_58_8211)"/>
<path d="M510.625 474.627L468.52 477.309V415.64L510.625 421.452V474.627Z" fill="url(#paint16_linear_58_8211)"/>
<path d="M484.391 417.83V426.477L498.409 427.787V419.765L484.391 417.83Z" fill="white"/>
<path d="M518.908 544.64L462.319 548.62V465.739L518.908 469.719V544.64Z" fill="url(#paint17_linear_58_8211)"/>
<path d="M462.319 548.62L415.926 542.948V471.03L462.319 465.739V548.62Z" fill="url(#paint18_linear_58_8211)"/>
<path d="M482.352 467.148V480.106L501.312 481.068V468.481L482.352 467.148Z" fill="white"/>
<path d="M511.922 551.462L480.696 547.645V497.875L511.922 495.676V551.462Z" fill="url(#paint19_linear_58_8211)"/>
<path d="M550.011 548.889L511.922 551.462V495.676L550.011 497.866V548.889Z" fill="url(#paint20_linear_58_8211)"/>
<path d="M525.757 496.471V519.719L538.492 520.142V497.203L525.757 496.471Z" fill="white"/>
<path d="M205.089 487.81V510.496C205.089 512.606 206.686 514.375 208.785 514.588L441.06 536.599L472.325 557.289L515.497 499.861L205.089 487.81Z" fill="url(#paint21_linear_58_8211)"/>
<path d="M383.127 518.99V539.295C383.127 540.997 384.362 542.447 386.043 542.717L441.806 551.675L440.185 518.942L386.814 515.53C384.817 515.402 383.127 516.988 383.127 518.99Z" fill="url(#paint22_linear_58_8211)"/>
<path d="M228.619 498.276C228.43 498.276 228.243 498.291 228.057 498.312L225.108 498.276L225.125 499.574C222.268 501.808 220.285 506.692 220.285 512.363C220.285 518.257 222.428 523.302 225.467 525.404L225.481 526.449H228.619C233.221 526.449 236.952 520.142 236.952 512.362C236.952 504.583 233.221 498.276 228.619 498.276Z" fill="url(#paint23_linear_58_8211)"/>
<path d="M225.109 526.448C229.711 526.448 233.442 520.142 233.442 512.362C233.442 504.583 229.711 498.276 225.109 498.276C220.506 498.276 216.776 504.583 216.776 512.362C216.776 520.142 220.506 526.448 225.109 526.448Z" fill="url(#paint24_linear_58_8211)"/>
<path d="M223.937 520.276C226.522 520.276 228.618 516.733 228.618 512.362C228.618 507.992 226.522 504.449 223.937 504.449C221.351 504.449 219.255 507.992 219.255 512.362C219.255 516.733 221.351 520.276 223.937 520.276Z" fill="#D8DEE8"/>
<path d="M224.645 519.709C226.839 519.709 228.618 516.42 228.618 512.362C228.618 508.305 226.839 505.015 224.645 505.015C222.45 505.015 220.671 508.305 220.671 512.362C220.671 516.42 222.45 519.709 224.645 519.709Z" fill="url(#paint25_linear_58_8211)"/>
<path d="M248.311 499.861C248.104 499.861 247.899 499.877 247.696 499.9L244.465 499.861L244.484 501.283C241.353 503.73 239.181 509.082 239.181 515.295C239.181 521.752 241.528 527.281 244.859 529.583L244.874 530.728H248.311C253.353 530.728 257.441 523.818 257.441 515.295C257.441 506.771 253.353 499.861 248.311 499.861Z" fill="url(#paint26_linear_58_8211)"/>
<path d="M244.465 530.728C249.507 530.728 253.595 523.818 253.595 515.295C253.595 506.771 249.507 499.861 244.465 499.861C239.423 499.861 235.335 506.771 235.335 515.295C235.335 523.818 239.423 530.728 244.465 530.728Z" fill="url(#paint27_linear_58_8211)"/>
<path d="M243.182 523.965C246.015 523.965 248.312 520.083 248.312 515.294C248.312 510.506 246.015 506.624 243.182 506.624C240.35 506.624 238.053 510.506 238.053 515.294C238.053 520.083 240.35 523.965 243.182 523.965Z" fill="#D8DEE8"/>
<path d="M243.958 523.344C246.362 523.344 248.311 519.74 248.311 515.295C248.311 510.849 246.362 507.245 243.958 507.245C241.554 507.245 239.605 510.849 239.605 515.295C239.605 519.74 241.554 523.344 243.958 523.344Z" fill="url(#paint28_linear_58_8211)"/>
<path d="M269.332 499.861C269.106 499.861 268.882 499.878 268.66 499.903L265.132 499.861L265.153 501.413C261.735 504.086 259.363 509.929 259.363 516.712C259.363 523.763 261.925 529.8 265.562 532.313L265.578 533.564H269.331C274.837 533.564 279.3 526.019 279.3 516.712C279.3 507.405 274.837 499.861 269.332 499.861Z" fill="url(#paint29_linear_58_8211)"/>
<path d="M265.133 533.564C270.638 533.564 275.101 526.019 275.101 516.712C275.101 507.405 270.638 499.861 265.133 499.861C259.627 499.861 255.164 507.405 255.164 516.712C255.164 526.019 259.627 533.564 265.133 533.564Z" fill="url(#paint30_linear_58_8211)"/>
<path d="M263.732 526.18C266.825 526.18 269.332 521.941 269.332 516.712C269.332 511.484 266.825 507.245 263.732 507.245C260.639 507.245 258.131 511.484 258.131 516.712C258.131 521.941 260.639 526.18 263.732 526.18Z" fill="#D8DEE8"/>
<path d="M264.579 525.501C267.204 525.501 269.332 521.566 269.332 516.712C269.332 511.858 267.204 507.923 264.579 507.923C261.953 507.923 259.825 511.858 259.825 516.712C259.825 521.566 261.953 525.501 264.579 525.501Z" fill="url(#paint31_linear_58_8211)"/>
<path d="M366.252 508.65C365.963 508.65 365.678 508.672 365.394 508.704L360.891 508.65L360.917 510.632C356.554 514.043 353.526 521.503 353.526 530.163C353.526 539.164 356.797 546.87 361.439 550.079L361.461 551.675H366.252C373.28 551.675 378.978 542.044 378.978 530.163C378.978 518.282 373.28 508.65 366.252 508.65Z" fill="url(#paint32_linear_58_8211)"/>
<path d="M360.891 551.675C367.92 551.675 373.618 542.044 373.618 530.163C373.618 518.281 367.92 508.65 360.891 508.65C353.863 508.65 348.165 518.281 348.165 530.163C348.165 542.044 353.863 551.675 360.891 551.675Z" fill="url(#paint33_linear_58_8211)"/>
<path d="M359.102 542.248C363.051 542.248 366.252 536.837 366.252 530.162C366.252 523.488 363.051 518.077 359.102 518.077C355.154 518.077 351.953 523.488 351.953 530.162C351.953 536.837 355.154 542.248 359.102 542.248Z" fill="#D8DEE8"/>
<path d="M360.184 541.383C363.536 541.383 366.252 536.359 366.252 530.162C366.252 523.966 363.536 518.942 360.184 518.942C356.833 518.942 354.116 523.966 354.116 530.162C354.116 536.359 356.833 541.383 360.184 541.383Z" fill="url(#paint34_linear_58_8211)"/>
<path d="M450.941 512.052C450.572 512.052 450.207 512.08 449.845 512.121L444.092 512.052L444.125 514.584C438.551 518.942 434.682 528.472 434.682 539.535C434.682 551.034 438.862 560.879 444.793 564.978L444.82 567.018H450.941C459.92 567.018 467.199 554.713 467.199 539.535C467.199 524.356 459.92 512.052 450.941 512.052Z" fill="url(#paint35_linear_58_8211)"/>
<path d="M444.092 567.017C453.071 567.017 460.35 554.713 460.35 539.534C460.35 524.356 453.071 512.051 444.092 512.051C435.112 512.051 427.833 524.356 427.833 539.534C427.833 554.713 435.112 567.017 444.092 567.017Z" fill="url(#paint36_linear_58_8211)"/>
<path d="M441.807 554.975C446.851 554.975 450.941 548.062 450.941 539.534C450.941 531.007 446.851 524.094 441.807 524.094C436.762 524.094 432.673 531.007 432.673 539.534C432.673 548.062 436.762 554.975 441.807 554.975Z" fill="#D8DEE8"/>
<path d="M443.189 553.869C447.47 553.869 450.941 547.451 450.941 539.535C450.941 531.618 447.47 525.2 443.189 525.2C438.908 525.2 435.437 531.618 435.437 539.535C435.437 547.451 438.908 553.869 443.189 553.869Z" fill="url(#paint37_linear_58_8211)"/>
<path d="M191.271 367.052C188.23 367.558 186 370.189 186 373.272V488.269C186 491.615 188.613 494.378 191.954 494.565L408.102 506.624V331.001L191.271 367.052Z" fill="url(#paint38_linear_58_8211)"/>
<path d="M529.993 335.101L408.102 331V506.624H536.546V341.879C536.546 338.222 533.647 335.224 529.993 335.101Z" fill="url(#paint39_linear_58_8211)"/>
<path d="M362.433 462.478C334.676 449.693 308.622 469.207 283.225 450.347C260.985 433.83 268.155 409.352 250.4 380.416C246.335 373.79 240.89 366.835 233.449 360.039L191.271 367.052C188.23 367.558 186 370.188 186 373.272V488.269C186 491.615 188.613 494.378 191.954 494.565L396.952 506.002C387.545 480.265 374.762 468.156 362.433 462.478Z" fill="url(#paint40_linear_58_8211)"/>
<path d="M601.482 451.06L592.474 428.404L592.206 409.673L601.306 407.853C602.189 407.676 602.745 406.803 602.528 405.93C601.152 400.406 596.116 382.162 588.281 376.134C582.759 371.886 478.032 370.615 478.032 370.615L427.627 373.893C423.669 374.15 420.589 377.436 420.589 381.403V493.096C420.589 496.027 422.83 498.47 425.75 498.724L460.35 501.725L467.198 508.65C467.198 508.65 565.266 516.503 604.402 509.366C606.429 508.997 607.904 507.243 607.904 505.183V456.056C607.904 448.92 601.482 451.06 601.482 451.06Z" fill="#F4F7FA"/>
<path opacity="0.8" d="M495.159 457.839C495.159 457.839 494.089 409.316 495.159 389.335C495.678 379.644 490.823 373.989 485.687 370.727C480.898 370.651 478.032 370.615 478.032 370.615L427.627 373.893C423.669 374.15 420.589 377.436 420.589 381.403V493.096C420.589 496.027 422.83 498.471 425.75 498.724L460.35 501.725L467.198 508.65C467.198 508.65 483.345 509.943 505.149 511.003V469.614L495.159 457.839Z" fill="url(#paint41_linear_58_8211)"/>
<path d="M606.788 518.07L602.91 516.712V508.852C602.91 506.733 601.192 505.015 599.073 505.015H477.629C474.699 505.015 472.324 507.39 472.324 510.32V557.29C472.324 559.874 474.472 561.94 477.054 561.841L607.093 556.839C609.539 556.745 611.473 554.735 611.473 552.288V524.673C611.473 521.7 609.594 519.052 606.788 518.07Z" fill="#97A6B7"/>
<path d="M591.99 477.714H519.981C517.557 477.714 515.64 479.769 515.81 482.188L519.777 538.724C519.976 541.564 522.388 543.737 525.233 543.64L587.098 541.544C589.8 541.453 591.998 539.338 592.195 536.642L596.161 482.2C596.337 479.777 594.419 477.714 591.99 477.714Z" fill="url(#paint42_linear_58_8211)"/>
<g opacity="0.3">
<path d="M606.788 518.07L602.909 516.712V508.852C602.909 507.177 601.835 505.757 600.339 505.233L592.949 539.982C592.068 544.12 588.492 547.133 584.264 547.297L527.508 549.503C523.439 549.661 519.746 547.139 518.413 543.292L505.148 505.015H477.628C474.699 505.015 472.324 507.39 472.324 510.319V557.289C472.324 559.873 474.471 561.94 477.053 561.84L607.093 556.839C609.538 556.744 611.472 554.735 611.472 552.287V524.673C611.472 521.7 609.594 519.052 606.788 518.07Z" fill="#97A6B7"/>
</g>
<path d="M511.215 546.323L497.711 546.999C489.327 547.418 482.122 541.11 481.43 532.744L480.888 526.18H507.922C509.74 526.18 511.215 527.654 511.215 529.473V546.323Z" fill="url(#paint43_linear_58_8211)"/>
<path d="M598.327 528.958L596.172 543.643C596.172 543.643 610.409 543.144 610.052 525.2L601.217 526.171C599.732 526.334 598.544 527.48 598.327 528.958Z" fill="url(#paint44_linear_58_8211)"/>
<path d="M498.248 458.147C496.128 458.147 494.027 457.462 492.315 456.208L486.759 452.139C484.697 450.63 483.466 448.203 483.466 445.649V413.303C483.466 411.825 484.114 410.431 485.245 409.479C486.375 408.526 487.859 408.122 489.316 408.375L494.762 409.314L592.497 409.308L601.854 451.056L600.801 456.325L600.507 456.33L498.423 458.146C498.365 458.147 498.307 458.147 498.248 458.147ZM488.464 409.031C487.465 409.031 486.492 409.381 485.714 410.036C484.749 410.85 484.195 412.04 484.195 413.303V445.649C484.195 447.972 485.314 450.179 487.189 451.552L492.745 455.62C494.377 456.815 496.411 457.449 498.41 457.417L600.201 455.607L601.11 451.065L591.914 410.037H494.7L489.193 409.093C488.95 409.051 488.706 409.031 488.464 409.031Z" fill="#808080"/>
<path d="M592.206 409.673H494.7L489.255 408.734C486.421 408.246 483.831 410.428 483.831 413.303V445.649C483.831 448.097 484.998 450.399 486.974 451.846L492.53 455.914C494.236 457.163 496.304 457.819 498.417 457.781L600.502 455.966L601.483 451.06L592.206 409.673Z" fill="url(#paint45_linear_58_8211)"/>
<path d="M531.596 398.434H523.3C522.044 398.434 521.026 399.452 521.026 400.708V404.187C521.026 405.443 522.044 406.462 523.3 406.462H531.596C532.852 406.462 533.87 405.444 533.87 404.187V400.708C533.87 399.452 532.852 398.434 531.596 398.434Z" fill="#97A6B7"/>
<path d="M580.298 398.434H572.003C570.746 398.434 569.728 399.452 569.728 400.708V404.187C569.728 405.444 570.746 406.462 572.003 406.462H580.298C581.554 406.462 582.573 405.444 582.573 404.187V400.708C582.573 399.452 581.554 398.434 580.298 398.434Z" fill="#97A6B7"/>
<path opacity="0.3" d="M561.7 432.686C536.539 423.062 512.87 435.056 502.027 421.982C499.095 418.447 497.911 414.048 497.637 409.673H494.7L489.255 408.734C486.421 408.246 483.831 410.428 483.831 413.303V445.649C483.831 448.098 484.999 450.399 486.974 451.846L492.53 455.914C494.236 457.163 496.303 457.819 498.417 457.782L590.89 456.137C580.437 442.047 569.821 435.792 561.7 432.686Z" fill="white"/>
<defs>
<linearGradient id="paint0_linear_58_8211" x1="467.994" y1="148.034" x2="432.374" y2="503.408" gradientUnits="userSpaceOnUse">
<stop stop-color="#AA80F9"/>
<stop offset="0.9964" stop-color="#6165D7"/>
</linearGradient>
<linearGradient id="paint1_linear_58_8211" x1="518.604" y1="197.225" x2="345.508" y2="197.225" gradientUnits="userSpaceOnUse">
<stop stop-color="#FF9085"/>
<stop offset="1" stop-color="#FB6FBB"/>
</linearGradient>
<linearGradient id="paint2_linear_58_8211" x1="-2.20032" y1="228.669" x2="427.81" y2="228.669" gradientUnits="userSpaceOnUse">
<stop stop-color="#444B8C"/>
<stop offset="0.9964" stop-color="#26264F"/>
</linearGradient>
<linearGradient id="paint3_linear_58_8211" x1="94.6888" y1="145.687" x2="125.822" y2="145.687" gradientUnits="userSpaceOnUse">
<stop stop-color="#311944"/>
<stop offset="1" stop-color="#6B3976"/>
</linearGradient>
<linearGradient id="paint4_linear_58_8211" x1="101.624" y1="139.74" x2="118.262" y2="139.74" gradientUnits="userSpaceOnUse">
<stop stop-color="#311944"/>
<stop offset="1" stop-color="#6B3976"/>
</linearGradient>
<linearGradient id="paint5_linear_58_8211" x1="145.783" y1="243.527" x2="176.229" y2="243.527" gradientUnits="userSpaceOnUse">
<stop stop-color="#311944"/>
<stop offset="1" stop-color="#6B3976"/>
</linearGradient>
<linearGradient id="paint6_linear_58_8211" x1="152.565" y1="237.683" x2="168.835" y2="237.683" gradientUnits="userSpaceOnUse">
<stop stop-color="#311944"/>
<stop offset="1" stop-color="#6B3976"/>
</linearGradient>
<linearGradient id="paint7_linear_58_8211" x1="313.602" y1="239.88" x2="341.842" y2="239.88" gradientUnits="userSpaceOnUse">
<stop stop-color="#311944"/>
<stop offset="1" stop-color="#6B3976"/>
</linearGradient>
<linearGradient id="paint8_linear_58_8211" x1="319.892" y1="234.25" x2="334.983" y2="234.25" gradientUnits="userSpaceOnUse">
<stop stop-color="#311944"/>
<stop offset="1" stop-color="#6B3976"/>
</linearGradient>
<linearGradient id="paint9_linear_58_8211" x1="265.428" y1="182.342" x2="294.293" y2="182.342" gradientUnits="userSpaceOnUse">
<stop stop-color="#311944"/>
<stop offset="1" stop-color="#6B3976"/>
</linearGradient>
<linearGradient id="paint10_linear_58_8211" x1="271.856" y1="176.628" x2="287.282" y2="176.628" gradientUnits="userSpaceOnUse">
<stop stop-color="#311944"/>
<stop offset="1" stop-color="#6B3976"/>
</linearGradient>
<linearGradient id="paint11_linear_58_8211" x1="96.0337" y1="145.687" x2="127.167" y2="145.687" gradientUnits="userSpaceOnUse">
<stop stop-color="#FF9085"/>
<stop offset="1" stop-color="#FB6FBB"/>
</linearGradient>
<linearGradient id="paint12_linear_58_8211" x1="147.129" y1="243.527" x2="177.574" y2="243.527" gradientUnits="userSpaceOnUse">
<stop stop-color="#FF9085"/>
<stop offset="1" stop-color="#FB6FBB"/>
</linearGradient>
<linearGradient id="paint13_linear_58_8211" x1="335" y1="135.219" x2="363.241" y2="135.219" gradientUnits="userSpaceOnUse">
<stop stop-color="#FF9085"/>
<stop offset="1" stop-color="#FB6FBB"/>
</linearGradient>
<linearGradient id="paint14_linear_58_8211" x1="266.773" y1="182.342" x2="295.638" y2="182.342" gradientUnits="userSpaceOnUse">
<stop stop-color="#FF9085"/>
<stop offset="1" stop-color="#FB6FBB"/>
</linearGradient>
<linearGradient id="paint15_linear_58_8211" x1="468.95" y1="419.867" x2="431.065" y2="483.851" gradientUnits="userSpaceOnUse">
<stop stop-color="#FFC444"/>
<stop offset="0.3138" stop-color="#FBA94A"/>
<stop offset="0.9964" stop-color="#F36F56"/>
</linearGradient>
<linearGradient id="paint16_linear_58_8211" x1="503.613" y1="421.421" x2="464.318" y2="487.786" gradientUnits="userSpaceOnUse">
<stop stop-color="#FFC444"/>
<stop offset="0.3138" stop-color="#FBA94A"/>
<stop offset="0.9964" stop-color="#F36F56"/>
</linearGradient>
<linearGradient id="paint17_linear_58_8211" x1="510.995" y1="470.767" x2="456.32" y2="563.107" gradientUnits="userSpaceOnUse">
<stop stop-color="#FFC444"/>
<stop offset="0.3138" stop-color="#FBA94A"/>
<stop offset="0.9964" stop-color="#F36F56"/>
</linearGradient>
<linearGradient id="paint18_linear_58_8211" x1="462.13" y1="470.967" x2="411.215" y2="556.958" gradientUnits="userSpaceOnUse">
<stop stop-color="#FFC444"/>
<stop offset="0.3138" stop-color="#FBA94A"/>
<stop offset="0.9964" stop-color="#F36F56"/>
</linearGradient>
<linearGradient id="paint19_linear_58_8211" x1="511.497" y1="499.018" x2="477.226" y2="556.897" gradientUnits="userSpaceOnUse">
<stop stop-color="#FFC444"/>
<stop offset="0.3138" stop-color="#FBA94A"/>
<stop offset="0.9964" stop-color="#F36F56"/>
</linearGradient>
<linearGradient id="paint20_linear_58_8211" x1="544.912" y1="498.731" x2="507.873" y2="561.285" gradientUnits="userSpaceOnUse">
<stop stop-color="#FFC444"/>
<stop offset="0.3138" stop-color="#FBA94A"/>
<stop offset="0.9964" stop-color="#F36F56"/>
</linearGradient>
<linearGradient id="paint21_linear_58_8211" x1="205.089" y1="522.549" x2="515.497" y2="522.549" gradientUnits="userSpaceOnUse">
<stop stop-color="#444B8C"/>
<stop offset="0.9964" stop-color="#26264F"/>
</linearGradient>
<linearGradient id="paint22_linear_58_8211" x1="383.127" y1="533.599" x2="441.807" y2="533.599" gradientUnits="userSpaceOnUse">
<stop stop-color="#444B8C"/>
<stop offset="0.9964" stop-color="#26264F"/>
</linearGradient>
<linearGradient id="paint23_linear_58_8211" x1="220.286" y1="512.362" x2="236.952" y2="512.362" gradientUnits="userSpaceOnUse">
<stop stop-color="#311944"/>
<stop offset="1" stop-color="#6B3976"/>
</linearGradient>
<linearGradient id="paint24_linear_58_8211" x1="216.776" y1="512.362" x2="233.442" y2="512.362" gradientUnits="userSpaceOnUse">
<stop stop-color="#311944"/>
<stop offset="1" stop-color="#6B3976"/>
</linearGradient>
<linearGradient id="paint25_linear_58_8211" x1="233.009" y1="513.488" x2="219.995" y2="511.737" gradientUnits="userSpaceOnUse">
<stop offset="0.0054" stop-color="#D8DEE8"/>
<stop offset="1" stop-color="#F4F7FA"/>
</linearGradient>
<linearGradient id="paint26_linear_58_8211" x1="239.181" y1="515.294" x2="257.441" y2="515.294" gradientUnits="userSpaceOnUse">
<stop stop-color="#311944"/>
<stop offset="1" stop-color="#6B3976"/>
</linearGradient>
<linearGradient id="paint27_linear_58_8211" x1="235.335" y1="515.294" x2="253.595" y2="515.294" gradientUnits="userSpaceOnUse">
<stop stop-color="#311944"/>
<stop offset="1" stop-color="#6B3976"/>
</linearGradient>
<linearGradient id="paint28_linear_58_8211" x1="253.122" y1="516.528" x2="238.863" y2="514.609" gradientUnits="userSpaceOnUse">
<stop offset="0.0054" stop-color="#D8DEE8"/>
<stop offset="1" stop-color="#F4F7FA"/>
</linearGradient>
<linearGradient id="paint29_linear_58_8211" x1="259.363" y1="516.712" x2="279.3" y2="516.712" gradientUnits="userSpaceOnUse">
<stop stop-color="#311944"/>
<stop offset="1" stop-color="#6B3976"/>
</linearGradient>
<linearGradient id="paint30_linear_58_8211" x1="255.164" y1="516.712" x2="275.102" y2="516.712" gradientUnits="userSpaceOnUse">
<stop stop-color="#311944"/>
<stop offset="1" stop-color="#6B3976"/>
</linearGradient>
<linearGradient id="paint31_linear_58_8211" x1="274.584" y1="518.059" x2="259.016" y2="515.963" gradientUnits="userSpaceOnUse">
<stop offset="0.0054" stop-color="#D8DEE8"/>
<stop offset="1" stop-color="#F4F7FA"/>
</linearGradient>
<linearGradient id="paint32_linear_58_8211" x1="353.526" y1="530.163" x2="378.978" y2="530.163" gradientUnits="userSpaceOnUse">
<stop stop-color="#311944"/>
<stop offset="1" stop-color="#6B3976"/>
</linearGradient>
<linearGradient id="paint33_linear_58_8211" x1="348.165" y1="530.163" x2="373.617" y2="530.163" gradientUnits="userSpaceOnUse">
<stop stop-color="#311944"/>
<stop offset="1" stop-color="#6B3976"/>
</linearGradient>
<linearGradient id="paint34_linear_58_8211" x1="372.958" y1="531.882" x2="353.083" y2="529.207" gradientUnits="userSpaceOnUse">
<stop offset="0.0054" stop-color="#D8DEE8"/>
<stop offset="1" stop-color="#F4F7FA"/>
</linearGradient>
<linearGradient id="paint35_linear_58_8211" x1="434.682" y1="539.535" x2="467.199" y2="539.535" gradientUnits="userSpaceOnUse">
<stop stop-color="#311944"/>
<stop offset="1" stop-color="#6B3976"/>
</linearGradient>
<linearGradient id="paint36_linear_58_8211" x1="427.833" y1="539.534" x2="460.35" y2="539.534" gradientUnits="userSpaceOnUse">
<stop stop-color="#311944"/>
<stop offset="1" stop-color="#6B3976"/>
</linearGradient>
<linearGradient id="paint37_linear_58_8211" x1="459.508" y1="541.731" x2="434.116" y2="538.313" gradientUnits="userSpaceOnUse">
<stop offset="0.0054" stop-color="#D8DEE8"/>
<stop offset="1" stop-color="#F4F7FA"/>
</linearGradient>
<linearGradient id="paint38_linear_58_8211" x1="369.615" y1="391.084" x2="41.3292" y2="604.405" gradientUnits="userSpaceOnUse">
<stop stop-color="#AA80F9"/>
<stop offset="0.9964" stop-color="#6165D7"/>
</linearGradient>
<linearGradient id="paint39_linear_58_8211" x1="589.119" y1="344.542" x2="340.031" y2="502.937" gradientUnits="userSpaceOnUse">
<stop stop-color="#AA80F9"/>
<stop offset="0.9964" stop-color="#6165D7"/>
</linearGradient>
<linearGradient id="paint40_linear_58_8211" x1="186" y1="433.02" x2="396.952" y2="433.02" gradientUnits="userSpaceOnUse">
<stop stop-color="#AA80F9"/>
<stop offset="0.9964" stop-color="#6165D7"/>
</linearGradient>
<linearGradient id="paint41_linear_58_8211" x1="420.59" y1="440.809" x2="505.149" y2="440.809" gradientUnits="userSpaceOnUse">
<stop offset="0.0054" stop-color="#D8DEE8"/>
<stop offset="1" stop-color="#F4F7FA"/>
</linearGradient>
<linearGradient id="paint42_linear_58_8211" x1="515.8" y1="510.679" x2="596.172" y2="510.679" gradientUnits="userSpaceOnUse">
<stop stop-color="#444B8C"/>
<stop offset="0.9964" stop-color="#26264F"/>
</linearGradient>
<linearGradient id="paint43_linear_58_8211" x1="503.717" y1="509.543" x2="464.119" y2="647.5" gradientUnits="userSpaceOnUse">
<stop stop-color="#FF9085"/>
<stop offset="1" stop-color="#FB6FBB"/>
</linearGradient>
<linearGradient id="paint44_linear_58_8211" x1="601.768" y1="537.687" x2="562.169" y2="675.644" gradientUnits="userSpaceOnUse">
<stop stop-color="#FF9085"/>
<stop offset="1" stop-color="#FB6FBB"/>
</linearGradient>
<linearGradient id="paint45_linear_58_8211" x1="483.831" y1="433.224" x2="601.482" y2="433.224" gradientUnits="userSpaceOnUse">
<stop stop-color="#444B8C"/>
<stop offset="0.9964" stop-color="#26264F"/>
</linearGradient>
</defs>
</svg>
