<svg width="738" height="615" viewBox="0 0 738 615" fill="none" xmlns="http://www.w3.org/2000/svg">
<g clip-path="url(#clip0_53_6470)">
<g opacity="0.26">
<path opacity="0.037" d="M596.483 486.362C596.882 466.549 562.921 449.797 520.629 448.945C478.338 448.093 443.73 463.464 443.331 483.276C442.932 503.089 476.892 519.841 519.184 520.693C561.476 521.545 596.084 506.174 596.483 486.362Z" fill="#141414"/>
<path opacity="0.074" d="M595.143 486.335C595.535 466.871 562.169 450.414 520.617 449.577C479.065 448.74 445.063 463.84 444.671 483.303C444.279 502.767 477.645 519.224 519.197 520.061C560.749 520.898 594.751 505.798 595.143 486.335Z" fill="#141414"/>
<path opacity="0.111" d="M593.803 486.307C594.188 467.193 561.416 451.031 520.604 450.209C479.792 449.387 446.396 464.216 446.011 483.33C445.626 502.445 478.398 518.606 519.21 519.428C560.022 520.251 593.418 505.422 593.803 486.307Z" fill="#141414"/>
<path opacity="0.148" d="M592.463 486.281C592.841 467.501 560.663 451.623 520.592 450.816C480.52 450.009 447.729 464.578 447.35 483.357C446.972 502.137 479.15 518.015 519.222 518.822C559.294 519.629 592.085 505.06 592.463 486.281Z" fill="#141414"/>
<path opacity="0.185" d="M591.123 486.254C591.495 467.823 559.911 452.24 520.579 451.448C481.247 450.656 449.062 464.954 448.69 483.384C448.319 501.815 479.903 517.398 519.235 518.19C558.566 518.982 590.752 504.684 591.123 486.254Z" fill="#141414"/>
<path opacity="0.222" d="M589.783 486.227C590.148 468.146 559.158 452.858 520.566 452.08C481.975 451.303 450.394 465.33 450.03 483.412C449.666 501.493 480.656 516.781 519.247 517.558C557.839 518.335 589.419 504.308 589.783 486.227Z" fill="#141414"/>
<path opacity="0.259" d="M588.419 486.199C588.776 468.467 558.392 453.475 520.554 452.712C482.716 451.95 451.753 465.707 451.396 483.439C451.038 501.171 481.423 516.164 519.26 516.926C557.098 517.688 588.061 503.931 588.419 486.199Z" fill="#141414"/>
<path opacity="0.296" d="M587.079 486.172C587.429 468.789 557.639 454.092 520.541 453.344C483.443 452.597 453.086 466.083 452.735 483.466C452.385 500.849 482.175 515.547 519.273 516.294C556.371 517.041 586.728 503.555 587.079 486.172Z" fill="#141414"/>
<path opacity="0.333" d="M585.739 486.145C586.082 469.111 556.886 454.709 520.528 453.976C484.171 453.244 454.419 466.459 454.076 483.493C453.732 500.527 482.928 514.93 519.286 515.662C555.644 516.394 585.396 503.179 585.739 486.145Z" fill="#141414"/>
<path opacity="0.37" d="M584.399 486.118C584.735 469.433 556.133 455.326 520.516 454.608C484.898 453.891 455.751 466.835 455.415 483.52C455.079 500.205 483.681 514.312 519.299 515.03C554.916 515.747 584.063 502.803 584.399 486.118Z" fill="#141414"/>
<path opacity="0.407" d="M583.059 486.091C583.388 469.755 555.381 455.943 520.503 455.241C485.625 454.538 457.084 467.211 456.755 483.547C456.426 499.883 484.434 513.695 519.311 514.398C554.189 515.101 582.73 502.427 583.059 486.091Z" fill="#141414"/>
<path opacity="0.444" d="M581.719 486.064C582.041 470.078 554.628 456.56 520.49 455.873C486.353 455.185 458.417 467.587 458.095 483.574C457.773 499.561 485.186 513.078 519.324 513.766C553.462 514.454 581.397 502.051 581.719 486.064Z" fill="#141414"/>
<path opacity="0.481" d="M580.379 486.038C580.694 470.386 553.876 457.152 520.478 456.48C487.08 455.807 459.75 467.95 459.435 483.601C459.12 499.253 485.938 512.487 519.336 513.159C552.734 513.832 580.064 501.689 580.379 486.038Z" fill="#141414"/>
<path opacity="0.518" d="M579.039 486.011C579.347 470.708 553.123 457.769 520.465 457.111C487.807 456.454 461.083 468.326 460.775 483.628C460.467 498.931 486.691 511.869 519.349 512.527C552.007 513.185 578.731 501.313 579.039 486.011Z" fill="#141414"/>
<path opacity="0.556" d="M577.699 485.983C578.001 471.03 552.37 458.386 520.453 457.743C488.535 457.1 462.416 468.702 462.115 483.655C461.814 498.609 487.444 511.252 519.362 511.895C551.28 512.538 577.398 500.937 577.699 485.983Z" fill="#141414"/>
<path opacity="0.593" d="M576.334 485.956C576.629 471.351 551.604 459.003 520.44 458.375C489.276 457.748 463.774 469.078 463.48 483.683C463.186 498.287 488.211 510.635 519.375 511.263C550.538 511.891 576.04 500.561 576.334 485.956Z" fill="#141414"/>
<path opacity="0.63" d="M574.995 485.929C575.282 471.673 550.851 459.62 520.427 459.007C490.003 458.395 465.107 469.454 464.82 483.71C464.533 497.965 488.964 510.018 519.387 510.631C549.811 511.244 574.707 500.184 574.995 485.929Z" fill="#141414"/>
<path opacity="0.667" d="M573.655 485.902C573.935 471.996 550.098 460.238 520.415 459.64C490.731 459.042 466.44 469.83 466.16 483.737C465.88 497.643 489.716 509.401 519.4 509.999C549.084 510.597 573.374 499.809 573.655 485.902Z" fill="#141414"/>
<path opacity="0.704" d="M572.315 485.875C572.588 472.318 549.346 460.855 520.402 460.272C491.458 459.689 467.773 470.206 467.5 483.764C467.227 497.321 490.469 508.784 519.413 509.367C548.357 509.95 572.042 499.433 572.315 485.875Z" fill="#141414"/>
<path opacity="0.741" d="M570.975 485.848C571.241 472.64 548.593 461.472 520.389 460.904C492.185 460.335 469.106 470.582 468.84 483.791C468.574 496.999 491.222 508.167 519.426 508.735C547.629 509.303 570.709 499.056 570.975 485.848Z" fill="#141414"/>
<path opacity="0.778" d="M569.635 485.821C569.894 472.948 547.84 462.064 520.377 461.51C492.913 460.957 470.439 470.945 470.179 483.818C469.92 496.691 491.974 507.575 519.438 508.129C546.901 508.682 569.375 498.694 569.635 485.821Z" fill="#141414"/>
<path opacity="0.815" d="M568.295 485.794C568.547 473.27 547.088 462.681 520.364 462.142C493.64 461.604 471.772 471.32 471.519 483.845C471.267 496.369 492.727 506.958 519.45 507.496C546.174 508.035 568.043 498.318 568.295 485.794Z" fill="#141414"/>
<path opacity="0.852" d="M566.955 485.767C567.2 473.592 546.335 463.298 520.351 462.774C494.367 462.251 473.104 471.697 472.859 483.872C472.614 496.047 493.479 506.341 519.463 506.864C545.447 507.388 566.71 497.942 566.955 485.767Z" fill="#141414"/>
<path opacity="0.889" d="M565.615 485.74C565.854 473.914 545.582 463.915 520.339 463.406C495.095 462.898 474.438 472.073 474.199 483.899C473.961 495.725 494.232 505.724 519.476 506.232C544.72 506.741 565.377 497.566 565.615 485.74Z" fill="#141414"/>
<path opacity="0.926" d="M564.25 485.712C564.481 474.235 544.816 464.532 520.326 464.038C495.836 463.545 475.796 472.449 475.564 483.926C475.333 495.403 494.999 505.107 519.489 505.6C543.979 506.093 564.019 497.189 564.25 485.712Z" fill="#141414"/>
<path opacity="0.963" d="M562.91 485.686C563.134 474.558 544.063 465.149 520.313 464.67C496.563 464.192 477.128 472.825 476.904 483.953C476.68 495.081 495.751 504.49 519.501 504.968C543.251 505.447 562.686 496.814 562.91 485.686Z" fill="#141414"/>
<path d="M561.57 485.659C561.787 474.88 543.31 465.766 520.3 465.303C497.29 464.839 478.461 473.201 478.244 483.98C478.027 494.759 496.504 503.873 519.514 504.336C542.524 504.8 561.353 496.438 561.57 485.659Z" fill="#141414"/>
</g>
<g opacity="0.26">
<path opacity="0.037" d="M403.061 547.134C403.46 527.321 369.499 510.569 327.207 509.717C284.916 508.865 250.308 524.236 249.909 544.049C249.51 563.861 283.47 580.613 325.762 581.465C368.054 582.317 402.662 566.946 403.061 547.134Z" fill="#141414"/>
<path opacity="0.074" d="M401.721 547.107C402.113 527.643 368.746 511.186 327.195 510.349C285.643 509.512 251.641 524.612 251.248 544.076C250.856 563.539 284.223 579.996 325.775 580.833C367.327 581.67 401.329 566.57 401.721 547.107Z" fill="#141414"/>
<path opacity="0.111" d="M400.381 547.08C400.766 527.965 367.994 511.804 327.182 510.982C286.37 510.159 252.974 524.988 252.589 544.103C252.203 563.217 284.976 579.379 325.788 580.201C366.599 581.023 399.996 566.194 400.381 547.08Z" fill="#141414"/>
<path opacity="0.148" d="M399.041 547.053C399.419 528.273 367.241 512.395 327.17 511.588C287.098 510.781 254.307 525.35 253.928 544.13C253.55 562.909 285.728 578.787 325.8 579.594C365.872 580.401 398.663 565.832 399.041 547.053Z" fill="#141414"/>
<path opacity="0.185" d="M397.701 547.026C398.073 528.595 366.489 513.012 327.157 512.22C287.825 511.428 255.64 525.726 255.268 544.156C254.897 562.587 286.481 578.17 325.813 578.962C365.144 579.754 397.33 565.456 397.701 547.026Z" fill="#141414"/>
<path opacity="0.222" d="M396.361 546.999C396.726 528.917 365.736 513.63 327.144 512.852C288.553 512.075 256.972 526.102 256.608 544.183C256.244 562.265 287.234 577.552 325.825 578.33C364.417 579.107 395.997 565.08 396.361 546.999Z" fill="#141414"/>
<path opacity="0.259" d="M394.996 546.971C395.353 529.239 364.969 514.246 327.131 513.484C289.294 512.722 258.33 526.479 257.973 544.211C257.616 561.943 288 576.936 325.838 577.698C363.676 578.46 394.639 564.703 394.996 546.971Z" fill="#141414"/>
<path opacity="0.296" d="M393.656 546.944C394.006 529.561 364.217 514.864 327.119 514.116C290.021 513.369 259.663 526.855 259.313 544.238C258.963 561.621 288.753 576.319 325.851 577.066C362.949 577.813 393.306 564.327 393.656 546.944Z" fill="#141414"/>
<path opacity="0.333" d="M392.316 546.917C392.659 529.883 363.464 515.48 327.106 514.748C290.748 514.016 260.996 527.231 260.653 544.265C260.31 561.299 289.506 575.701 325.863 576.434C362.221 577.166 391.973 563.951 392.316 546.917Z" fill="#141414"/>
<path opacity="0.37" d="M390.977 546.89C391.313 530.205 362.711 516.098 327.093 515.38C291.476 514.663 262.329 527.607 261.993 544.292C261.657 560.977 290.258 575.084 325.876 575.802C361.494 576.519 390.64 563.575 390.977 546.89Z" fill="#141414"/>
<path opacity="0.407" d="M389.637 546.863C389.966 530.527 361.958 516.715 327.081 516.012C292.203 515.31 263.662 527.983 263.333 544.319C263.004 560.655 291.011 574.467 325.889 575.17C360.767 575.872 389.307 563.199 389.637 546.863Z" fill="#141414"/>
<path opacity="0.444" d="M388.297 546.836C388.619 530.849 361.206 517.332 327.068 516.644C292.93 515.957 264.995 528.359 264.673 544.346C264.351 560.333 291.764 573.85 325.902 574.538C360.04 575.226 387.975 562.823 388.297 546.836Z" fill="#141414"/>
<path opacity="0.481" d="M386.957 546.809C387.272 531.158 360.453 517.924 327.055 517.251C293.658 516.578 266.328 528.721 266.013 544.373C265.697 560.025 292.516 573.258 325.914 573.931C359.312 574.604 386.641 562.461 386.957 546.809Z" fill="#141414"/>
<path opacity="0.518" d="M385.617 546.782C385.925 531.479 359.701 518.541 327.043 517.883C294.385 517.225 267.661 529.097 267.353 544.4C267.044 559.703 293.269 572.641 325.927 573.299C358.584 573.957 385.309 562.085 385.617 546.782Z" fill="#141414"/>
<path opacity="0.556" d="M384.277 546.755C384.578 531.802 358.948 519.158 327.03 518.515C295.112 517.872 268.994 529.473 268.692 544.427C268.391 559.381 294.021 572.024 325.939 572.667C357.857 573.31 383.976 561.709 384.277 546.755Z" fill="#141414"/>
<path opacity="0.593" d="M382.912 546.728C383.206 532.123 358.181 519.775 327.017 519.147C295.854 518.519 270.352 529.85 270.058 544.454C269.763 559.059 294.788 571.407 325.952 572.035C357.116 572.663 382.618 561.332 382.912 546.728Z" fill="#141414"/>
<path opacity="0.63" d="M381.572 546.701C381.859 532.445 357.429 520.392 327.005 519.779C296.581 519.166 271.685 530.226 271.398 544.481C271.11 558.737 295.541 570.79 325.965 571.403C356.389 572.016 381.285 560.956 381.572 546.701Z" fill="#141414"/>
<path opacity="0.667" d="M380.232 546.674C380.512 532.767 356.676 521.009 326.992 520.411C297.308 519.813 273.018 530.602 272.737 544.508C272.457 558.415 296.294 570.173 325.978 570.771C355.661 571.369 379.952 560.58 380.232 546.674Z" fill="#141414"/>
<path opacity="0.704" d="M378.892 546.647C379.165 533.089 355.923 521.626 326.979 521.043C298.036 520.46 274.351 530.978 274.077 544.535C273.804 558.093 297.047 569.556 325.99 570.139C354.934 570.722 378.619 560.204 378.892 546.647Z" fill="#141414"/>
<path opacity="0.741" d="M377.552 546.62C377.819 533.412 355.17 522.244 326.967 521.675C298.763 521.107 275.683 531.354 275.417 544.562C275.151 557.771 297.799 568.939 326.003 569.507C354.207 570.075 377.286 559.828 377.552 546.62Z" fill="#141414"/>
<path opacity="0.778" d="M376.212 546.593C376.472 533.72 354.418 522.835 326.954 522.282C299.491 521.729 277.016 531.716 276.757 544.589C276.498 557.463 298.551 568.347 326.015 568.9C353.479 569.453 375.953 559.466 376.212 546.593Z" fill="#141414"/>
<path opacity="0.815" d="M374.872 546.566C375.125 534.042 353.665 523.452 326.942 522.914C300.218 522.376 278.349 532.092 278.097 544.616C277.845 557.141 299.304 567.73 326.028 568.268C352.752 568.806 374.62 559.09 374.872 546.566Z" fill="#141414"/>
<path opacity="0.852" d="M373.533 546.539C373.778 534.364 352.913 524.069 326.929 523.546C300.945 523.023 279.682 532.468 279.437 544.643C279.192 556.818 300.057 567.113 326.041 567.636C352.025 568.159 373.287 558.714 373.533 546.539Z" fill="#141414"/>
<path opacity="0.889" d="M372.193 546.512C372.431 534.686 352.16 524.687 326.916 524.178C301.672 523.67 281.015 532.844 280.777 544.67C280.539 556.496 300.81 566.496 326.053 567.004C351.297 567.513 371.955 558.338 372.193 546.512Z" fill="#141414"/>
<path opacity="0.926" d="M370.828 546.484C371.059 535.007 351.393 525.303 326.903 524.81C302.414 524.317 282.373 533.221 282.142 544.698C281.911 556.175 301.576 565.879 326.066 566.372C350.556 566.865 370.596 557.961 370.828 546.484Z" fill="#141414"/>
<path opacity="0.963" d="M369.488 546.457C369.712 535.329 350.641 525.921 326.891 525.442C303.141 524.964 283.706 533.597 283.482 544.725C283.258 555.853 302.329 565.262 326.079 565.74C349.829 566.219 369.264 557.585 369.488 546.457Z" fill="#141414"/>
<path d="M368.148 546.43C368.365 535.651 349.888 526.538 326.878 526.074C303.868 525.611 285.039 533.973 284.822 544.752C284.605 555.531 303.082 564.645 326.092 565.108C349.101 565.572 367.931 557.209 368.148 546.43Z" fill="#141414"/>
</g>
<g opacity="0.26">
<path opacity="0.037" d="M264.634 542.729C265.033 522.916 231.072 506.164 188.781 505.312C146.489 504.461 111.881 519.831 111.482 539.644C111.083 559.456 145.044 576.208 187.335 577.06C229.627 577.912 264.235 562.541 264.634 542.729Z" fill="#141414"/>
<path opacity="0.074" d="M263.294 542.702C263.686 523.238 230.32 506.782 188.768 505.945C147.216 505.108 113.214 520.207 112.822 539.671C112.43 559.134 145.796 575.591 187.348 576.428C228.9 577.265 262.902 562.165 263.294 542.702Z" fill="#141414"/>
<path opacity="0.111" d="M261.954 542.675C262.339 523.56 229.567 507.399 188.755 506.577C147.943 505.755 114.547 520.583 114.162 539.698C113.777 558.812 146.549 574.974 187.361 575.796C228.173 576.618 261.569 561.789 261.954 542.675Z" fill="#141414"/>
<path opacity="0.148" d="M260.614 542.648C260.992 523.868 228.814 507.99 188.743 507.183C148.671 506.376 115.88 520.945 115.501 539.725C115.123 558.504 147.301 574.382 187.373 575.189C227.445 575.996 260.236 561.427 260.614 542.648Z" fill="#141414"/>
<path opacity="0.185" d="M259.274 542.621C259.646 524.19 228.062 508.607 188.73 507.815C149.398 507.023 117.213 521.321 116.841 539.751C116.47 558.182 148.054 573.765 187.386 574.557C226.717 575.349 258.903 561.051 259.274 542.621Z" fill="#141414"/>
<path opacity="0.222" d="M257.934 542.594C258.299 524.513 227.309 509.225 188.717 508.447C150.125 507.67 118.545 521.698 118.181 539.779C117.817 557.86 148.807 573.148 187.398 573.925C225.99 574.703 257.57 560.675 257.934 542.594Z" fill="#141414"/>
<path opacity="0.259" d="M256.569 542.566C256.926 524.834 226.542 509.842 188.705 509.079C150.867 508.317 119.904 522.074 119.546 539.806C119.189 557.538 149.573 572.531 187.411 573.293C225.249 574.055 256.212 560.298 256.569 542.566Z" fill="#141414"/>
<path opacity="0.296" d="M255.23 542.539C255.58 525.156 225.79 510.459 188.692 509.711C151.594 508.964 121.237 522.45 120.886 539.833C120.536 557.216 150.326 571.914 187.424 572.661C224.522 573.408 254.879 559.922 255.23 542.539Z" fill="#141414"/>
<path opacity="0.333" d="M253.89 542.512C254.233 525.478 225.037 511.076 188.679 510.343C152.321 509.611 122.569 522.826 122.226 539.86C121.883 556.894 151.079 571.297 187.437 572.029C223.794 572.761 253.546 559.546 253.89 542.512Z" fill="#141414"/>
<path opacity="0.37" d="M252.55 542.485C252.886 525.8 224.284 511.693 188.667 510.975C153.049 510.258 123.902 523.202 123.566 539.887C123.23 556.572 151.832 570.679 187.45 571.397C223.067 572.114 252.214 559.17 252.55 542.485Z" fill="#141414"/>
<path opacity="0.407" d="M251.21 542.458C251.539 526.123 223.532 512.31 188.654 511.608C153.776 510.905 125.235 523.578 124.906 539.914C124.577 556.25 152.584 570.062 187.462 570.765C222.34 571.468 250.881 558.794 251.21 542.458Z" fill="#141414"/>
<path opacity="0.444" d="M249.87 542.431C250.192 526.444 222.779 512.927 188.641 512.239C154.503 511.552 126.568 523.954 126.246 539.941C125.924 555.928 153.337 569.445 187.475 570.133C221.613 570.82 249.548 558.418 249.87 542.431Z" fill="#141414"/>
<path opacity="0.481" d="M248.53 542.404C248.845 526.753 222.027 513.519 188.629 512.846C155.231 512.174 127.901 524.316 127.586 539.968C127.27 555.62 154.089 568.853 187.487 569.526C220.885 570.199 248.215 558.056 248.53 542.404Z" fill="#141414"/>
<path opacity="0.518" d="M247.19 542.377C247.498 527.075 221.274 514.136 188.616 513.478C155.958 512.82 129.234 524.692 128.926 539.995C128.618 555.298 154.842 568.236 187.5 568.894C220.158 569.552 246.882 557.68 247.19 542.377Z" fill="#141414"/>
<path opacity="0.556" d="M245.85 542.35C246.151 527.397 220.521 514.753 188.603 514.11C156.686 513.467 130.567 525.068 130.266 540.022C129.964 554.976 155.595 567.619 187.512 568.262C219.43 568.905 245.549 557.304 245.85 542.35Z" fill="#141414"/>
<path opacity="0.593" d="M244.485 542.323C244.779 527.718 219.754 515.37 188.591 514.742C157.427 514.115 131.925 525.445 131.631 540.05C131.337 554.654 156.361 567.002 187.525 567.63C218.689 568.258 244.191 556.928 244.485 542.323Z" fill="#141414"/>
<path opacity="0.63" d="M243.145 542.296C243.433 528.04 219.002 515.987 188.578 515.374C158.154 514.761 133.258 525.821 132.971 540.076C132.684 554.332 157.114 566.385 187.538 566.998C217.962 567.611 242.858 556.551 243.145 542.296Z" fill="#141414"/>
<path opacity="0.667" d="M241.805 542.269C242.086 528.362 218.249 516.604 188.565 516.006C158.881 515.408 134.591 526.197 134.311 540.103C134.031 554.01 157.867 565.768 187.551 566.366C217.235 566.964 241.525 556.175 241.805 542.269Z" fill="#141414"/>
<path opacity="0.704" d="M240.466 542.242C240.739 528.684 217.496 517.221 188.553 516.638C159.609 516.055 135.924 526.573 135.651 540.13C135.378 553.688 158.62 565.151 187.564 565.734C216.508 566.317 240.193 555.799 240.466 542.242Z" fill="#141414"/>
<path opacity="0.741" d="M239.125 542.215C239.391 529.007 216.743 517.839 188.54 517.27C160.336 516.702 137.256 526.949 136.99 540.158C136.724 553.366 159.372 564.534 187.576 565.102C215.78 565.67 238.859 555.423 239.125 542.215Z" fill="#141414"/>
<path opacity="0.778" d="M237.786 542.188C238.045 529.315 215.991 518.43 188.528 517.877C161.064 517.324 138.59 527.311 138.33 540.184C138.071 553.058 160.125 563.942 187.588 564.495C215.052 565.048 237.526 555.061 237.786 542.188Z" fill="#141414"/>
<path opacity="0.815" d="M236.446 542.161C236.698 529.637 215.239 519.047 188.515 518.509C161.791 517.971 139.922 527.687 139.67 540.211C139.418 552.736 160.877 563.325 187.601 563.863C214.325 564.401 236.193 554.685 236.446 542.161Z" fill="#141414"/>
<path opacity="0.852" d="M235.106 542.134C235.351 529.959 214.486 519.665 188.502 519.141C162.518 518.618 141.255 528.063 141.01 540.239C140.765 552.414 161.63 562.708 187.614 563.231C213.598 563.755 234.861 554.309 235.106 542.134Z" fill="#141414"/>
<path opacity="0.889" d="M233.766 542.107C234.004 530.281 213.733 520.282 188.489 519.773C163.245 519.265 142.588 528.439 142.35 540.265C142.112 552.092 162.383 562.091 187.626 562.599C212.87 563.108 233.528 553.933 233.766 542.107Z" fill="#141414"/>
<path opacity="0.926" d="M232.401 542.079C232.632 530.602 212.966 520.899 188.476 520.405C163.987 519.912 143.946 528.816 143.715 540.293C143.484 551.77 163.149 561.474 187.639 561.967C212.129 562.46 232.169 553.556 232.401 542.079Z" fill="#141414"/>
<path opacity="0.963" d="M231.061 542.052C231.285 530.924 212.214 521.516 188.464 521.037C164.714 520.559 145.279 529.192 145.055 540.32C144.831 551.448 163.902 560.857 187.652 561.335C211.402 561.814 230.837 553.18 231.061 542.052Z" fill="#141414"/>
<path d="M229.721 542.025C229.938 531.247 211.461 522.133 188.451 521.669C165.441 521.206 146.612 529.568 146.395 540.347C146.178 551.126 164.655 560.24 187.665 560.703C210.675 561.167 229.504 552.804 229.721 542.025Z" fill="#141414"/>
</g>
<path d="M167.293 332.866L146.255 320.628L146.28 333.726L167.318 345.964L167.293 332.866Z" fill="#C5C5C5"/>
<path d="M236.021 226.993L214.983 214.755L203.528 221.355L224.566 233.593L236.021 226.993Z" fill="#EBEBEB"/>
<path d="M161.528 309.021L140.49 296.783C141.172 297.188 141.88 297.491 142.639 297.769C143.195 297.971 143.777 298.123 144.358 298.275C144.459 298.3 144.561 298.351 144.687 298.351C145.37 298.477 146.052 298.578 146.786 298.604C146.937 298.604 147.064 298.629 147.216 298.629C147.898 298.654 148.606 298.654 149.34 298.578C149.415 298.578 149.517 298.553 149.592 298.553C150.351 298.477 151.135 298.351 151.919 298.199C151.995 298.174 152.071 298.174 152.172 298.148C152.981 297.971 153.815 297.744 154.65 297.466C154.7 297.44 154.751 297.44 154.827 297.415C155.712 297.112 156.597 296.758 157.482 296.353C157.532 296.328 157.608 296.302 157.659 296.277C158.569 295.847 159.505 295.367 160.44 294.836C161.376 294.28 162.311 293.698 163.247 293.066C163.298 293.015 163.348 292.99 163.399 292.939C164.258 292.333 165.118 291.7 165.953 291.018C166.054 290.942 166.13 290.866 166.231 290.79C167.04 290.133 167.824 289.425 168.608 288.717C168.709 288.641 168.785 288.54 168.886 288.464C169.67 287.73 170.454 286.947 171.212 286.137C171.288 286.062 171.339 286.011 171.414 285.935C172.224 285.075 173.007 284.19 173.791 283.255C173.791 283.255 173.791 283.23 173.817 283.23C175.334 281.409 176.75 279.487 178.065 277.49C178.469 276.883 178.823 276.276 179.203 275.669C179.506 275.163 179.835 274.683 180.113 274.177C180.265 273.95 180.391 273.697 180.517 273.444C180.998 272.584 181.478 271.724 181.933 270.839C181.984 270.738 182.035 270.637 182.085 270.536C182.616 269.474 183.122 268.387 183.602 267.299C183.628 267.249 183.653 267.198 183.678 267.122C184.133 266.06 184.588 264.973 184.993 263.886C185.018 263.81 185.044 263.734 185.069 263.683C185.473 262.571 185.853 261.458 186.181 260.346C186.207 260.27 186.232 260.219 186.232 260.143C186.561 259.081 186.839 257.994 187.092 256.932C187.117 256.831 187.142 256.73 187.168 256.629C187.421 255.516 187.648 254.429 187.8 253.341C187.8 253.316 187.8 253.316 187.8 253.291C187.977 252.178 188.103 251.091 188.204 250.004C188.204 249.903 188.23 249.827 188.23 249.726C188.306 248.638 188.356 247.551 188.356 246.489C188.356 245.427 188.306 244.415 188.204 243.429C188.204 243.328 188.179 243.252 188.179 243.151C188.078 242.241 187.952 241.381 187.8 240.547C187.775 240.446 187.749 240.319 187.724 240.218C187.547 239.409 187.345 238.625 187.117 237.892C187.066 237.765 187.016 237.613 186.991 237.487C186.763 236.779 186.51 236.122 186.207 235.489C186.181 235.414 186.156 235.338 186.106 235.262C185.777 234.554 185.398 233.871 184.993 233.239C184.411 232.354 183.754 231.57 183.046 230.837C182.869 230.66 182.692 230.508 182.515 230.331C181.782 229.648 180.998 229.016 180.163 228.536L201.201 240.749C202.061 241.255 202.82 241.862 203.553 242.544C203.73 242.696 203.907 242.873 204.084 243.05C204.792 243.758 205.449 244.542 206.031 245.452C206.031 245.477 206.056 245.477 206.056 245.503C206.436 246.11 206.79 246.742 207.118 247.424C207.118 247.45 207.144 247.475 207.144 247.5C207.169 247.576 207.194 247.627 207.22 247.703C207.422 248.132 207.599 248.562 207.776 249.018C207.852 249.245 207.928 249.473 208.003 249.7C208.054 249.827 208.105 249.978 208.13 250.105C208.18 250.231 208.206 250.358 208.256 250.484C208.383 250.939 208.509 251.42 208.636 251.9C208.686 252.077 208.711 252.254 208.737 252.431C208.762 252.532 208.787 252.659 208.813 252.76C208.838 252.937 208.888 253.089 208.914 253.266C208.99 253.695 209.065 254.151 209.116 254.606C209.141 254.859 209.167 255.111 209.192 255.364C209.192 255.44 209.217 255.541 209.217 255.617C209.217 255.718 209.242 255.819 209.242 255.946C209.268 256.376 209.293 256.806 209.318 257.261C209.344 257.691 209.344 258.146 209.344 258.601C209.344 258.626 209.344 258.652 209.344 258.677C209.344 259.107 209.344 259.511 209.318 259.941C209.318 260.396 209.293 260.851 209.268 261.307C209.242 261.509 209.242 261.711 209.217 261.939C209.217 262.015 209.217 262.116 209.192 262.192C209.192 262.343 209.167 262.52 209.141 262.672C209.091 263.127 209.04 263.582 208.99 264.037C208.939 264.518 208.863 264.973 208.787 265.453C208.787 265.453 208.787 265.479 208.787 265.504C208.787 265.529 208.787 265.555 208.787 265.555C208.711 265.984 208.636 266.44 208.56 266.869C208.459 267.35 208.357 267.83 208.256 268.336C208.206 268.513 208.18 268.69 208.13 268.867C208.105 268.968 208.079 269.069 208.054 269.171C208.003 269.373 207.953 269.6 207.902 269.803C207.776 270.308 207.649 270.789 207.523 271.295C207.422 271.649 207.321 272.028 207.194 272.382C207.169 272.458 207.169 272.508 207.144 272.584C207.118 272.66 207.118 272.711 207.093 272.786C206.941 273.267 206.79 273.747 206.638 274.228C206.486 274.708 206.309 275.189 206.132 275.644C206.107 275.745 206.056 275.821 206.031 275.922C206.006 275.998 205.98 276.074 205.955 276.149C205.854 276.453 205.728 276.731 205.626 277.034C205.449 277.49 205.272 277.945 205.07 278.4C204.944 278.729 204.792 279.057 204.64 279.386C204.615 279.437 204.59 279.487 204.564 279.563C204.539 279.614 204.514 279.69 204.489 279.74C204.286 280.195 204.084 280.65 203.882 281.106C203.654 281.611 203.401 282.092 203.174 282.572C203.123 282.648 203.098 282.724 203.047 282.8C202.997 282.901 202.946 283.002 202.896 283.103C202.693 283.482 202.491 283.887 202.289 284.266C202.036 284.747 201.758 285.227 201.48 285.708C201.353 285.96 201.201 286.188 201.075 286.441C201.024 286.542 200.974 286.618 200.923 286.719C200.67 287.124 200.418 287.528 200.165 287.908C199.785 288.514 199.406 289.147 199.002 289.753C198.951 289.855 198.875 289.93 198.825 290.032C198.268 290.891 197.661 291.726 197.055 292.535C197.055 292.535 197.055 292.56 197.029 292.56C196.625 293.116 196.22 293.647 195.79 294.178C195.436 294.608 195.107 295.038 194.753 295.468L194.728 295.493C194.374 295.923 194.02 296.353 193.641 296.758C193.287 297.162 192.908 297.567 192.554 297.971C192.478 298.047 192.427 298.098 192.351 298.174C192.301 298.25 192.225 298.3 192.149 298.376C191.896 298.654 191.643 298.907 191.39 299.185C191.011 299.59 190.607 299.969 190.202 300.348C190.076 300.475 189.949 300.576 189.823 300.702C189.722 300.778 189.646 300.879 189.545 300.955C189.342 301.132 189.165 301.309 188.963 301.486C188.558 301.865 188.129 302.219 187.724 302.573C187.547 302.725 187.345 302.877 187.168 303.029C187.067 303.104 186.965 303.18 186.889 303.256C186.763 303.357 186.611 303.484 186.485 303.585C186.08 303.914 185.676 304.217 185.246 304.52C184.942 304.748 184.639 304.95 184.361 305.153C184.31 305.203 184.234 305.228 184.184 305.279C184.133 305.304 184.083 305.355 184.032 305.38C183.628 305.658 183.248 305.911 182.844 306.164C182.439 306.417 182.06 306.645 181.655 306.897C181.554 306.948 181.478 306.998 181.377 307.049C181.074 307.226 180.77 307.378 180.492 307.555C180.113 307.757 179.734 307.959 179.329 308.162C179.076 308.288 178.849 308.389 178.596 308.516C178.52 308.541 178.469 308.566 178.393 308.617C178.318 308.642 178.242 308.693 178.166 308.718C177.786 308.895 177.407 309.047 177.053 309.198C176.674 309.35 176.295 309.502 175.915 309.628C175.865 309.654 175.789 309.679 175.738 309.679C175.688 309.704 175.637 309.704 175.561 309.729C175.308 309.805 175.03 309.906 174.777 309.982C174.398 310.109 173.994 310.21 173.614 310.311C173.437 310.362 173.26 310.387 173.083 310.437C173.007 310.463 172.932 310.463 172.83 310.488C172.704 310.513 172.578 310.539 172.451 310.564C172.047 310.64 171.617 310.716 171.237 310.766C170.985 310.791 170.757 310.817 170.504 310.842C170.428 310.842 170.327 310.867 170.251 310.867C170.175 310.867 170.074 310.893 169.998 310.893C169.569 310.918 169.113 310.943 168.684 310.943C168.506 310.943 168.304 310.918 168.127 310.918C167.975 310.918 167.849 310.918 167.697 310.893C167.546 310.893 167.394 310.893 167.242 310.867C166.686 310.817 166.155 310.741 165.624 310.64H165.599C165.497 310.614 165.396 310.589 165.295 310.564C164.739 310.437 164.183 310.311 163.677 310.109C163.626 310.083 163.601 310.058 163.55 310.058C162.944 309.729 162.236 309.401 161.528 309.021C161.553 309.021 161.553 309.021 161.528 309.021Z" fill="#818181"/>
<path d="M132.676 335.951C135.078 339.213 137.961 341.843 141.273 343.764L120.235 331.526C116.923 329.604 114.04 327 111.638 323.713L132.676 335.951Z" fill="#999999"/>
<path d="M140.768 321.892L119.729 309.679L111.638 323.738L132.676 335.951L140.768 321.892Z" fill="url(#paint0_linear_53_6470)"/>
<path d="M212.96 202.87C212.934 202.87 212.909 202.87 212.909 202.845C212.15 202.693 211.367 202.592 210.557 202.516C210.279 202.491 210.026 202.415 209.748 202.39L188.71 190.177C189.14 190.227 189.519 190.303 189.949 190.354C190.581 190.43 191.239 190.505 191.871 190.632C191.896 190.632 191.896 190.632 191.922 190.657C193.085 190.885 194.223 191.213 195.335 191.593C195.462 191.643 195.588 191.643 195.689 191.694C195.841 191.744 195.967 191.846 196.119 191.896C197.586 192.427 199.002 193.059 200.342 193.843L221.38 206.082C220.04 205.298 218.624 204.691 217.157 204.135C216.879 204.034 216.626 203.932 216.348 203.831C215.286 203.427 214.148 203.098 212.96 202.87Z" fill="#999999"/>
<path d="M209.748 202.39L188.71 190.177L180.669 204.135L201.707 216.348L209.748 202.39Z" fill="url(#paint1_linear_53_6470)"/>
<path d="M117.252 304.47C117.201 304.318 117.125 304.166 117.075 303.989L138.113 316.228C138.467 317.239 138.871 318.2 139.301 319.11C139.326 319.136 139.326 319.161 139.352 319.212C139.807 320.147 140.287 321.058 140.768 321.892L119.73 309.653C119.224 308.794 118.769 307.909 118.314 306.973C118.288 306.948 118.288 306.897 118.263 306.872C117.884 306.113 117.555 305.304 117.252 304.47Z" fill="#8A8A8A"/>
<mask id="mask0_53_6470" style="mask-type:luminance" maskUnits="userSpaceOnUse" x="174" y="204" width="28" height="13">
<path d="M201.707 216.348L180.669 204.135C178.646 204.11 176.573 204.287 174.398 204.767L195.436 216.98C197.611 216.525 199.684 216.348 201.707 216.348Z" fill="white"/>
</mask>
<g mask="url(#mask0_53_6470)">
<path d="M201.707 216.348L180.669 204.135C180.619 204.135 180.568 204.135 180.517 204.135L201.555 216.348C201.581 216.348 201.657 216.348 201.707 216.348Z" fill="#949494"/>
<path d="M201.53 216.348L180.492 204.135C179.784 204.135 179.076 204.16 178.343 204.21L199.381 216.424C200.114 216.373 200.822 216.348 201.53 216.348Z" fill="#999999"/>
<path d="M199.381 216.424L178.343 204.185C177.761 204.236 177.154 204.286 176.547 204.362L197.586 216.575C198.192 216.525 198.799 216.474 199.381 216.424Z" fill="#9E9E9E"/>
<path d="M197.586 216.601L176.548 204.388C176.016 204.463 175.485 204.539 174.954 204.64L195.993 216.854C196.524 216.778 197.055 216.677 197.586 216.601Z" fill="#A3A3A3"/>
<path d="M195.993 216.879L174.955 204.666C174.778 204.691 174.601 204.742 174.398 204.767L195.436 216.98C195.613 216.955 195.816 216.904 195.993 216.879Z" fill="#A8A8A8"/>
</g>
<path d="M138.011 283.558L116.973 271.345C116.973 271.294 116.999 271.244 116.999 271.193C117.176 270.46 117.378 269.727 117.58 268.993C117.732 268.412 117.909 267.856 118.086 267.274C118.136 267.097 118.187 266.92 118.238 266.743C118.263 266.642 118.288 266.541 118.339 266.414C118.667 265.352 118.996 264.29 119.35 263.254C119.426 263.026 119.502 262.798 119.578 262.571L140.616 274.784C140.135 276.175 139.705 277.565 139.276 278.956C139.225 279.133 139.174 279.31 139.124 279.512C138.719 280.878 138.34 282.218 138.011 283.558ZM103.824 292.687C103.85 291.776 103.9 290.841 103.951 289.93C104.001 289.02 104.077 288.11 104.179 287.174C104.179 287.048 104.204 286.921 104.229 286.795C104.229 286.719 104.254 286.643 104.254 286.542C104.33 285.834 104.406 285.126 104.482 284.418C104.608 283.508 104.735 282.572 104.887 281.662C105.038 280.726 105.19 279.816 105.367 278.88C105.418 278.552 105.493 278.248 105.544 277.919L126.582 290.158C126 293.041 125.571 295.923 125.292 298.78C125.292 298.856 125.267 298.957 125.267 299.033C124.989 301.891 124.837 304.723 124.837 307.529C124.837 310.286 125.014 312.941 125.318 315.469C125.318 315.52 125.318 315.596 125.343 315.646C125.646 318.175 126.102 320.577 126.683 322.828L105.645 310.589C105.519 310.058 105.367 309.527 105.241 308.996C105.038 308.111 104.861 307.226 104.71 306.316C104.558 305.431 104.431 304.546 104.305 303.635C104.305 303.56 104.305 303.484 104.28 303.433C104.28 303.357 104.28 303.307 104.254 303.231C104.153 302.472 104.077 301.714 104.027 300.93C103.951 300.045 103.9 299.134 103.85 298.199C103.799 297.289 103.799 296.378 103.774 295.443C103.774 295.392 103.774 295.342 103.774 295.291C103.799 294.431 103.799 293.572 103.824 292.687Z" fill="#999999"/>
<path d="M116.974 271.345L138.012 283.558L126.582 290.158L105.544 277.945L116.974 271.345Z" fill="#DCDCDC"/>
<path d="M166.964 220.267L145.926 208.029L145.977 221.177L167.015 233.391L166.964 220.267Z" fill="#999999"/>
<path d="M145.926 208.029C146.457 207.574 146.963 207.119 147.494 206.689C148.328 206.006 149.163 205.323 149.997 204.641C150.806 204.008 151.641 203.376 152.475 202.744C152.577 202.668 152.678 202.592 152.779 202.516C152.855 202.466 152.931 202.415 153.006 202.365C153.639 201.91 154.271 201.454 154.903 201.025C155.687 200.494 156.496 199.963 157.28 199.457C158.038 198.976 158.822 198.496 159.606 198.041C159.783 197.94 159.96 197.839 160.137 197.737C160.719 197.409 161.3 197.08 161.882 196.751C162.413 196.473 162.944 196.195 163.475 195.942C163.627 195.866 163.778 195.79 163.93 195.715C164.006 195.689 164.082 195.639 164.158 195.588C164.916 195.209 165.675 194.855 166.408 194.526C166.636 194.425 166.838 194.349 167.065 194.248C167.293 194.147 167.546 194.046 167.773 193.944C168.077 193.818 168.355 193.692 168.658 193.565C169.417 193.262 170.15 192.984 170.884 192.731C170.909 192.731 170.909 192.731 170.934 192.705C171.718 192.427 172.477 192.174 173.261 191.947C173.64 191.846 173.994 191.719 174.373 191.618L195.411 203.831C194.273 204.16 193.135 204.514 191.972 204.919C191.947 204.919 191.947 204.919 191.922 204.944C190.91 205.298 189.874 205.728 188.812 206.158C188.584 206.259 188.331 206.36 188.103 206.461C187.067 206.916 186.03 207.397 184.968 207.928C184.816 208.004 184.665 208.079 184.538 208.155C183.426 208.712 182.313 209.318 181.2 209.951C178.798 211.341 176.421 212.909 174.095 214.603C174.019 214.654 173.943 214.704 173.867 214.78C171.516 216.5 169.24 218.32 167.015 220.267L145.926 208.029Z" fill="#EBEBEB"/>
<path d="M139.68 227.777C139.933 227.499 140.186 227.196 140.439 226.917C140.894 226.386 141.375 225.855 141.855 225.35C142.437 224.718 143.043 224.111 143.625 223.479C144.384 222.695 145.168 221.936 145.951 221.177L166.989 233.416C164.815 235.489 162.691 237.689 160.718 240.016L152.602 235.388L131.564 223.175L139.68 227.777Z" fill="#818181"/>
<path d="M111.487 257.969C111.815 257.16 112.119 256.351 112.473 255.541C112.852 254.631 113.231 253.721 113.636 252.836C114.04 251.925 114.47 250.99 114.9 250.08C115.077 249.726 115.254 249.346 115.431 248.992C115.507 248.841 115.583 248.689 115.659 248.537C115.886 248.082 116.089 247.627 116.316 247.197C116.873 246.084 117.429 244.997 118.01 243.91C118.668 242.696 119.351 241.482 120.033 240.269C120.16 240.066 120.261 239.839 120.387 239.636C120.463 239.51 120.539 239.384 120.615 239.257C122.183 236.577 123.826 233.947 125.546 231.418C125.571 231.393 125.596 231.343 125.621 231.317C125.672 231.241 125.723 231.191 125.773 231.115C126.709 229.724 127.67 228.384 128.656 227.044C129.389 226.032 130.148 225.046 130.932 224.06C131.159 223.757 131.387 223.479 131.64 223.175L152.678 235.388C150.629 237.942 148.682 240.597 146.811 243.303C146.761 243.379 146.71 243.455 146.66 243.505C144.814 246.211 143.069 248.992 141.425 251.85C141.299 252.052 141.198 252.279 141.071 252.482C139.529 255.187 138.062 257.969 136.697 260.75C136.621 260.902 136.545 261.054 136.469 261.205C135.053 264.164 133.738 267.148 132.55 270.182L111.487 257.969Z" fill="#EBEBEB"/>
<path d="M124.837 307.529C124.812 301.891 125.419 296.05 126.582 290.158L138.011 283.558C138.719 280.65 139.63 277.717 140.616 274.809L132.499 270.182C137.354 257.817 144.257 245.756 152.601 235.363L160.718 239.99C162.691 237.664 164.84 235.464 166.989 233.391L166.964 220.242C171.465 216.297 176.269 212.782 181.175 209.925C186.08 207.093 190.859 205.07 195.386 203.831L195.411 216.98C197.585 216.5 199.659 216.323 201.682 216.348L209.748 202.39C218.118 203.123 225.071 207.144 230.002 213.819L221.885 227.853C222.947 229.547 223.883 231.494 224.566 233.593L235.995 226.993C237.234 231.494 237.866 236.627 237.866 242.266C237.891 247.88 237.285 253.746 236.071 259.663L224.642 266.263C223.959 269.145 223.049 272.104 222.062 274.936L230.204 279.614C225.324 291.953 218.396 304.015 210.077 314.357L202.01 309.755C199.962 312.132 197.889 314.331 195.689 316.43L195.714 329.528C191.188 333.498 186.409 336.988 181.503 339.845C176.598 342.677 171.794 344.7 167.293 345.939L167.267 332.841C165.042 333.271 162.918 333.498 160.895 333.448L152.829 347.406C144.51 346.597 137.556 342.627 132.651 335.951L140.742 321.892C139.756 320.173 138.821 318.301 138.087 316.228L126.658 322.828C125.469 318.301 124.863 313.143 124.837 307.529ZM181.453 307.049C196.877 298.148 209.394 276.529 209.343 258.753C209.293 241.027 196.7 233.846 181.276 242.747C165.801 251.673 153.335 273.317 153.385 291.043C153.436 308.844 165.978 315.975 181.453 307.049Z" fill="url(#paint2_linear_53_6470)"/>
<path d="M196.094 217.84C198.268 217.359 200.342 217.182 202.364 217.208L210.431 203.25C218.421 203.958 225.147 207.675 230.053 213.819V213.794C225.097 207.119 218.143 203.123 209.799 202.365L201.732 216.323C199.912 216.297 198.066 216.449 196.119 216.828L196.094 217.84ZM225.223 234.453L236.298 228.055C236.197 227.701 236.121 227.322 236.02 226.968L224.869 233.416C224.996 233.77 225.122 234.099 225.223 234.453ZM182.11 307.909C197.535 299.008 210.051 277.389 210.001 259.612C209.976 253.342 208.383 248.385 205.677 244.997C208.003 248.335 209.343 252.988 209.369 258.753C209.419 276.529 196.928 298.148 181.478 307.049C171.49 312.814 162.716 311.879 157.735 305.709C162.564 312.637 171.667 313.952 182.11 307.909ZM222.745 275.796L230.078 280.018C230.129 279.892 230.179 279.74 230.23 279.614L222.871 275.391C222.846 275.543 222.796 275.669 222.745 275.796ZM167.925 333.726C167.697 333.777 167.495 333.802 167.293 333.852L167.318 345.964C167.52 345.914 167.748 345.838 167.95 345.788L167.925 333.726ZM133.333 336.811L141.425 322.752C140.439 321.032 139.503 319.161 138.77 317.088L138.492 317.239C139.149 318.908 139.933 320.476 140.768 321.892L132.676 335.951C132.878 336.255 133.106 336.533 133.333 336.811ZM153.259 236.248L161.376 240.875C163.348 238.549 165.497 236.349 167.647 234.276L167.621 221.127C172.122 217.182 176.927 213.668 181.832 210.81C186.51 208.105 191.062 206.158 195.411 204.893V203.857C190.885 205.121 186.106 207.119 181.2 209.951C176.295 212.783 171.49 216.297 166.989 220.267L167.015 233.416C164.84 235.515 162.716 237.689 160.744 240.016L152.627 235.388C144.282 245.781 137.379 257.842 132.524 270.207L133.333 270.663C138.163 258.424 145.016 246.514 153.259 236.248ZM125.495 308.389C125.469 302.751 126.076 296.909 127.239 291.018L138.669 284.418C139.377 281.51 140.287 278.577 141.273 275.669L140.489 275.214C139.554 277.97 138.694 280.777 138.011 283.558L126.582 290.158C125.419 296.05 124.812 301.891 124.837 307.53C124.863 313.143 125.469 318.302 126.683 322.828L127.062 322.6C126.026 318.352 125.495 313.573 125.495 308.389Z" fill="white"/>
<path d="M346.394 330.742C346.394 351.704 350.895 371.604 358.911 389.532C361.262 394.817 363.943 399.9 366.876 404.78C391.985 446.679 437.879 474.671 490.272 474.671C501.929 474.671 513.232 473.255 524.054 470.675C537.557 467.413 550.225 462.306 561.907 455.554C605.096 430.723 634.2 384.146 634.2 330.717C634.2 251.318 569.822 186.94 490.424 186.839H490.272C478.64 186.839 467.312 188.23 456.515 190.885C441.925 194.349 428.245 200.089 415.804 207.599C405.437 213.895 395.93 221.43 387.509 230.053C362.097 255.996 346.394 291.523 346.394 330.742Z" fill="url(#paint3_linear_53_6470)"/>
<path d="M634.201 330.742C634.201 384.172 605.122 430.749 561.908 455.58L564.689 438.663C564.689 438.663 568.103 436.716 568.305 433.48C568.508 430.243 576.27 430.016 578.774 427.866C581.277 425.717 584.286 423.264 584.286 423.264L590.355 416.664C590.355 416.664 590.355 416.664 588.838 415.046C587.27 413.377 584.286 404.78 584.286 404.78C584.286 404.78 584.438 400.33 584.286 396.562C584.084 392.794 584.286 390.696 584.286 390.696V384.551C584.286 384.551 579.204 375.119 576.27 376.788C573.337 378.508 568.103 375.119 565.625 376.788C563.172 378.508 559.177 374.336 556.977 373.122C554.727 371.908 549.543 371.402 545.725 369.885C541.907 368.419 538.973 363.235 538.973 363.235L545.725 359.619L552.324 349.353V340.3C552.324 340.3 549.543 335.749 545.725 330.717V320.906L556.244 316.557L560.29 314.104L562.869 306.468L565.6 297.87L560.264 293.572V279.639L568.28 276.377L565.397 270.89L555.435 269.575C555.435 269.575 560.264 261.029 560.264 255.39C560.264 249.776 545.7 241.457 545.7 241.457C545.7 241.457 542.817 242.19 536.318 241.457C529.769 240.724 528.303 241.457 528.303 241.457C528.303 241.457 530.199 233.29 528.303 230.306C526.406 227.322 520.338 211.797 520.338 211.797C520.338 211.797 514.623 209.546 511.007 211.114C507.34 212.682 501.272 211.114 501.272 211.114H473.761C473.761 211.114 462.66 208.762 460.409 205.829C458.21 202.845 460.409 194.678 460.409 194.678L455.58 193.591C466.377 190.91 478.59 186.814 490.222 186.814C569.747 186.864 634.201 251.293 634.201 330.742Z" fill="url(#paint4_linear_53_6470)"/>
<path d="M524.029 470.675C513.232 473.255 501.878 474.671 490.247 474.671C437.854 474.671 391.96 446.654 366.851 404.78H378.836L400.329 396.562L404.78 391.429L421.848 384.526L432.999 376.763L438.967 387.712L447.867 400.658H460.485L466.453 396.562H473.836L479.07 400.658C479.07 400.658 477.705 407.308 482.484 409.407C487.238 411.455 497.63 412.972 497.63 412.972L504.281 409.407C504.281 409.407 503.547 422.354 504.281 425.793C505.064 429.257 507.264 437.576 507.264 437.576L512.448 440.711H520.413V451.458L516.165 463.519L524.029 470.675Z" fill="url(#paint5_linear_53_6470)"/>
<path d="M435.25 330.742H415.956L412.973 340.326L396.638 345.155L386.22 340.326H382.554L372.869 345.155L369.885 349.353L366.851 359.619C366.851 359.619 366.75 365.435 366.851 369.885C366.952 374.335 368.95 371.781 366.8 376.788C364.702 381.769 362.78 378.988 360.985 384.551C360.454 386.169 359.67 387.914 358.886 389.532C350.87 371.604 346.369 351.704 346.369 330.742C346.369 278.552 374.184 232.86 415.754 207.624L427.79 215.488C427.79 215.488 426.324 220.672 427.79 225.906C429.257 231.09 430.774 234.807 427.79 238.524C424.807 242.241 418.89 246.893 418.89 246.893L416.386 251.142V261.054C416.386 261.054 420.356 268.766 420.356 269.6C420.356 270.435 416.386 274.885 416.386 274.885V283.053L421.09 288.236L423.34 293.622C423.34 293.622 423.34 306.189 422.607 306.518C421.823 306.821 419.623 307.782 419.623 307.782L424.073 316.582L435.25 330.742Z" fill="url(#paint6_linear_53_6470)"/>
<path d="M495.481 224.186H482.433V231.823V237.108C482.433 237.108 488.3 239.459 488.957 240.041C489.615 240.622 498.414 240.041 498.414 240.041L503.699 232.253H506.632L495.481 224.186Z" fill="url(#paint7_linear_53_6470)"/>
<path d="M462.66 310.716H449.612V318.352V323.637C449.612 323.637 455.478 325.988 456.136 326.57C456.793 327.152 465.593 326.57 465.593 326.57L470.878 318.782H473.811L462.66 310.716Z" fill="url(#paint8_linear_53_6470)"/>
<path d="M524.029 361.541L512.473 366.825C512.473 366.825 510.122 369.759 512.473 371.529C514.825 373.299 520.691 376.788 520.691 376.788L528.328 369.177L524.029 361.541Z" fill="url(#paint9_linear_53_6470)"/>
<path d="M544.334 268.791L536.343 272.913V277.009L544.334 280.549V268.791Z" fill="url(#paint10_linear_53_6470)"/>
<path d="M394.817 355.674L386.827 359.796V363.892L394.817 367.432V355.674Z" fill="url(#paint11_linear_53_6470)"/>
<path d="M445.465 265.504L437.475 269.6V273.722L445.465 277.237V265.504Z" fill="url(#paint12_linear_53_6470)"/>
<path d="M573.767 390.721L565.777 394.842V398.939L573.767 402.454V390.721Z" fill="url(#paint13_linear_53_6470)"/>
<path d="M540.338 447.64L532.348 451.761V455.858L540.338 459.398V447.64Z" fill="url(#paint14_linear_53_6470)"/>
<path d="M398.003 36.6902C381.921 30.571 367.154 30.9756 355.219 36.5132L326.494 56.2364C326.494 56.2364 328.896 58.1834 332.108 60.7373C328.492 68.9806 326.494 78.7916 326.494 89.8922C326.494 91.1565 326.519 92.4208 326.57 93.7104C327.935 140.894 367.634 224.338 387.231 262.849L371.883 279.74V301.916L397.978 283.356V283.331C398.332 282.977 470.473 206.208 469.462 144.308C469.512 99.9307 437.5 51.7355 398.003 36.6902ZM398.003 158.746C377.572 150.958 361.01 126.026 361.01 103.041C361.01 80.0559 373.981 71.6862 394.412 79.4743C414.844 87.2624 426.703 115.305 426.703 138.29C426.703 161.275 418.434 166.509 398.003 158.746Z" fill="url(#paint15_linear_53_6470)"/>
<path d="M300.374 108.452C300.374 109.716 300.399 110.981 300.449 112.27C302.27 174.929 371.655 301.512 371.883 301.916C372.237 301.562 444.378 224.793 443.366 162.893C443.366 118.465 411.354 70.2701 371.857 55.2502C332.386 40.2049 300.374 64.0244 300.374 108.452ZM334.889 121.576C334.889 98.5905 351.451 86.2762 371.883 94.039C392.314 101.827 408.876 126.759 408.876 149.744C408.876 172.729 392.314 185.044 371.883 177.281C351.451 169.493 334.889 144.561 334.889 121.576Z" fill="url(#paint16_linear_53_6470)"/>
<path d="M443.392 162.868C443.392 118.44 411.38 70.2448 371.883 55.2249C352.539 47.8667 334.99 49.8137 322.12 58.9672C334.763 51.0527 351.452 49.6872 369.759 56.6409C409.256 71.6609 441.268 119.856 441.268 164.284C442.178 220.495 382.756 288.97 371.579 301.334C371.756 301.688 371.883 301.865 371.883 301.891C372.262 301.537 444.403 224.793 443.392 162.868Z" fill="url(#paint17_linear_53_6470)"/>
<path d="M345.636 96.3398C337.746 100.967 332.765 110.374 332.765 122.991C332.765 145.976 349.327 170.909 369.759 178.697C380.025 182.591 389.305 181.428 396.006 176.396C389.532 180.214 381.087 180.795 371.883 177.281C351.451 169.493 334.889 144.56 334.889 121.575C334.889 110.146 338.985 101.346 345.636 96.3398Z" fill="url(#paint18_linear_53_6470)"/>
<path d="M322.044 503.522C320.805 504.053 240.142 456.692 240.142 456.692V425.843L343.967 485.645L322.044 503.522Z" fill="#4E4F4F" stroke="#332456" stroke-width="2.22138" stroke-miterlimit="10" stroke-linecap="round" stroke-linejoin="round"/>
<path d="M267.982 471.611C267.932 471.232 267.856 470.827 267.78 470.448C267.729 470.17 267.679 469.917 267.628 469.639C267.578 469.386 267.502 469.133 267.451 468.88C267.375 468.526 267.274 468.172 267.173 467.843C267.122 467.641 267.046 467.439 266.996 467.236C266.869 466.832 266.743 466.453 266.591 466.048C266.541 465.896 266.49 465.719 266.414 465.568C266.212 465.037 265.984 464.48 265.757 463.949C265.732 463.873 265.706 463.823 265.656 463.747C265.453 463.267 265.226 462.811 264.998 462.331C264.922 462.179 264.847 462.028 264.771 461.901C264.543 461.446 264.29 461.016 264.037 460.561C263.987 460.485 263.962 460.409 263.911 460.308C263.608 459.802 263.304 459.297 262.975 458.816C262.874 458.664 262.773 458.538 262.697 458.386C262.47 458.032 262.217 457.678 261.964 457.35C261.838 457.173 261.686 456.97 261.559 456.793C261.332 456.515 261.13 456.237 260.902 455.959C260.725 455.731 260.523 455.504 260.346 455.276C260.169 455.049 259.966 454.846 259.789 454.644C259.461 454.29 259.132 453.936 258.803 453.607C258.652 453.456 258.475 453.279 258.323 453.127C257.665 452.469 256.957 451.863 256.249 451.306C256.123 451.205 255.996 451.129 255.87 451.028C255.111 450.472 254.353 449.941 253.569 449.486C252.937 449.132 252.33 448.828 251.723 448.575C251.521 448.499 251.344 448.424 251.142 448.348C250.788 448.221 250.459 448.095 250.105 447.994C249.877 447.918 249.675 447.867 249.447 447.817C249.245 447.766 249.043 447.716 248.841 447.69C248.588 447.64 248.31 447.589 248.057 447.564C247.905 447.539 247.753 447.539 247.627 447.513C247.298 447.488 246.995 447.488 246.691 447.488C246.615 447.488 246.539 447.488 246.489 447.488C246.11 447.513 245.756 447.564 245.402 447.614C245.326 447.64 245.225 447.665 245.149 447.665C244.871 447.716 244.618 447.817 244.34 447.893C244.264 447.918 244.163 447.943 244.087 447.968C243.758 448.095 243.429 448.247 243.126 448.424L249.751 444.58C249.776 444.555 249.801 444.555 249.827 444.53C250.054 444.403 250.307 444.277 250.56 444.176C250.611 444.15 250.661 444.15 250.712 444.125C250.788 444.1 250.889 444.074 250.965 444.049C251.091 443.999 251.217 443.948 251.344 443.923C251.47 443.872 251.622 443.847 251.774 443.822C251.85 443.796 251.951 443.771 252.027 443.771C252.077 443.771 252.128 443.746 252.178 443.746C252.456 443.695 252.76 443.67 253.063 443.645C253.089 443.645 253.114 443.645 253.114 443.645C253.19 443.645 253.266 443.645 253.316 443.645C253.544 443.645 253.771 443.619 254.024 443.645C254.1 443.645 254.176 443.67 254.277 443.67C254.429 443.67 254.555 443.695 254.707 443.72C254.833 443.746 254.985 443.746 255.111 443.771C255.238 443.796 255.364 443.822 255.465 443.847C255.668 443.872 255.87 443.923 256.072 443.973C256.173 443.999 256.275 444.024 256.401 444.049C256.502 444.074 256.629 444.125 256.73 444.15C257.058 444.251 257.412 444.378 257.766 444.504C257.893 444.555 258.019 444.58 258.121 444.631C258.196 444.656 258.272 444.707 258.323 444.732C258.93 444.985 259.537 445.288 260.169 445.642C260.953 446.097 261.711 446.628 262.47 447.185C262.596 447.286 262.723 447.362 262.849 447.463C263.557 448.019 264.24 448.626 264.922 449.283C264.973 449.334 265.049 449.384 265.099 449.435C265.201 449.536 265.302 449.663 265.403 449.764C265.732 450.092 266.06 450.446 266.389 450.8C266.49 450.902 266.591 451.028 266.692 451.129C266.768 451.23 266.844 451.331 266.92 451.433C267.122 451.66 267.299 451.888 267.502 452.141C267.628 452.292 267.755 452.444 267.881 452.596C267.982 452.722 268.058 452.849 268.159 452.975C268.286 453.152 268.437 453.329 268.564 453.531C268.665 453.658 268.766 453.784 268.842 453.911C268.994 454.113 269.145 454.341 269.272 454.568C269.373 454.72 269.474 454.846 269.55 454.998C269.6 455.049 269.626 455.124 269.676 455.175C269.929 455.58 270.182 456.009 270.435 456.414C270.46 456.439 270.46 456.465 270.485 456.49C270.536 456.566 270.587 456.667 270.612 456.743C270.789 457.046 270.966 457.35 271.118 457.653C271.193 457.779 271.244 457.931 271.32 458.058C271.396 458.209 271.472 458.361 271.547 458.487C271.623 458.614 271.674 458.74 271.75 458.892C271.901 459.221 272.053 459.575 272.205 459.903C272.23 459.979 272.255 460.03 272.281 460.106C272.281 460.131 272.306 460.156 272.306 460.156C272.483 460.586 272.685 461.041 272.837 461.471C272.862 461.547 272.888 461.623 272.913 461.699C272.963 461.851 273.014 462.002 273.09 462.179C273.166 462.407 273.267 462.634 273.343 462.862C273.393 463.039 273.444 463.216 273.494 463.368C273.545 463.57 273.621 463.772 273.671 463.975C273.697 464.101 273.747 464.227 273.798 464.354C273.848 464.581 273.899 464.809 273.95 465.037C274 465.289 274.076 465.542 274.127 465.77C274.152 465.846 274.177 465.947 274.202 466.023C274.228 466.2 274.253 466.377 274.304 466.554C274.379 466.933 274.455 467.338 274.506 467.717C274.531 467.818 274.556 467.944 274.556 468.046C274.556 468.147 274.556 468.248 274.582 468.349C274.683 469.209 274.759 470.069 274.759 470.928C274.733 475.556 273.115 478.817 270.485 480.335L263.86 484.178C266.49 482.636 268.134 479.399 268.134 474.772C268.134 473.937 268.058 473.078 267.957 472.193C268.033 472.016 268.007 471.813 267.982 471.611Z" fill="#3F3F3F" stroke="#332456" stroke-width="1.78646" stroke-miterlimit="10" stroke-linecap="round" stroke-linejoin="round"/>
<path d="M253.569 449.46C245.478 444.783 238.878 448.525 238.853 457.855C238.828 467.186 245.377 478.514 253.468 483.192C261.585 487.87 268.185 484.128 268.21 474.797C268.235 465.467 261.686 454.138 253.569 449.46Z" fill="#555656" stroke="#332456" stroke-width="1.78646" stroke-miterlimit="10" stroke-linecap="round" stroke-linejoin="round"/>
<path d="M244.567 461.143C244.542 466.832 248.562 473.786 253.518 476.643C256.072 478.135 258.373 478.211 260.017 477.199C259.056 477.048 258.045 476.694 256.957 476.036C252.027 473.179 247.981 466.225 248.006 460.536C248.031 457.754 248.992 455.807 250.56 454.846C247.045 454.29 244.592 456.667 244.567 461.143Z" fill="#3F3F3F" stroke="#332456" stroke-width="1.78646" stroke-miterlimit="10" stroke-linecap="round" stroke-linejoin="round"/>
<path d="M247.981 460.536C247.956 466.225 251.976 473.179 256.932 476.036C258.02 476.668 259.031 477.022 259.992 477.199C261.534 476.239 262.52 474.292 262.52 471.51C262.546 465.821 258.551 458.867 253.569 456.01C252.482 455.378 251.47 455.024 250.535 454.847C248.992 455.807 248.006 457.78 247.981 460.536Z" fill="#555656" stroke="#332456" stroke-width="1.78646" stroke-miterlimit="10" stroke-linecap="round" stroke-linejoin="round"/>
<path d="M298.149 488.022C298.098 487.643 298.022 487.238 297.946 486.859C297.896 486.581 297.845 486.328 297.795 486.05C297.744 485.797 297.668 485.544 297.618 485.291C297.542 484.937 297.441 484.583 297.34 484.254C297.289 484.052 297.213 483.85 297.163 483.647C297.036 483.243 296.91 482.863 296.758 482.459C296.707 482.307 296.657 482.13 296.581 481.978C296.379 481.447 296.151 480.891 295.924 480.36C295.898 480.284 295.873 480.234 295.822 480.158C295.62 479.677 295.393 479.222 295.165 478.742C295.089 478.59 295.013 478.438 294.937 478.312C294.71 477.857 294.457 477.427 294.204 476.972C294.153 476.896 294.128 476.82 294.078 476.719C293.774 476.213 293.471 475.708 293.142 475.227C293.041 475.075 292.94 474.949 292.864 474.797C292.636 474.443 292.383 474.089 292.131 473.76C292.004 473.583 291.852 473.381 291.726 473.204C291.498 472.926 291.296 472.648 291.069 472.37C290.892 472.142 290.689 471.915 290.512 471.687C290.335 471.459 290.133 471.257 289.956 471.055C289.627 470.701 289.299 470.347 288.97 470.018C288.818 469.866 288.641 469.689 288.489 469.538C287.832 468.88 287.124 468.273 286.416 467.717C286.29 467.616 286.163 467.54 286.037 467.439C285.278 466.883 284.52 466.352 283.736 465.897C283.103 465.543 282.497 465.239 281.89 464.986C281.687 464.91 281.51 464.834 281.308 464.759C280.954 464.632 280.625 464.506 280.271 464.405C280.044 464.329 279.842 464.278 279.614 464.228C279.412 464.177 279.209 464.126 279.007 464.101C278.754 464.051 278.476 464 278.223 463.975C278.072 463.949 277.92 463.949 277.793 463.924C277.465 463.899 277.161 463.899 276.858 463.899C276.782 463.899 276.706 463.899 276.656 463.899C276.276 463.924 275.922 463.975 275.568 464.025C275.492 464.051 275.391 464.076 275.315 464.076C275.037 464.126 274.784 464.228 274.506 464.303C274.43 464.329 274.329 464.354 274.253 464.379C273.925 464.506 273.596 464.657 273.292 464.834L279.917 460.991C279.943 460.966 279.968 460.966 279.993 460.94C280.221 460.814 280.474 460.688 280.727 460.586C280.777 460.561 280.828 460.561 280.878 460.536C280.954 460.511 281.055 460.485 281.131 460.46C281.258 460.409 281.384 460.359 281.51 460.334C281.637 460.283 281.789 460.258 281.94 460.232C282.016 460.207 282.117 460.182 282.193 460.182C282.244 460.182 282.294 460.157 282.345 460.157C282.623 460.106 282.926 460.081 283.23 460.055C283.255 460.055 283.28 460.055 283.28 460.055C283.356 460.055 283.432 460.055 283.483 460.055C283.71 460.055 283.938 460.03 284.191 460.055C284.267 460.055 284.342 460.081 284.444 460.081C284.595 460.081 284.722 460.106 284.874 460.131C285 460.157 285.152 460.157 285.278 460.182C285.405 460.207 285.531 460.232 285.632 460.258C285.834 460.283 286.037 460.334 286.239 460.384C286.34 460.409 286.441 460.435 286.568 460.46C286.669 460.485 286.795 460.536 286.896 460.561C287.225 460.662 287.579 460.789 287.933 460.915C288.06 460.966 288.186 460.991 288.287 461.042C288.363 461.067 288.439 461.117 288.489 461.143C289.096 461.396 289.703 461.699 290.335 462.053C291.119 462.508 291.878 463.039 292.636 463.595C292.763 463.697 292.889 463.772 293.016 463.874C293.724 464.43 294.406 465.037 295.089 465.694C295.14 465.745 295.216 465.795 295.266 465.846C295.367 465.947 295.468 466.074 295.57 466.175C295.898 466.503 296.227 466.857 296.556 467.211C296.657 467.313 296.758 467.439 296.859 467.54C296.935 467.641 297.011 467.742 297.087 467.844C297.289 468.071 297.466 468.299 297.668 468.552C297.795 468.703 297.921 468.855 298.048 469.007C298.149 469.133 298.225 469.26 298.326 469.386C298.452 469.563 298.604 469.74 298.73 469.942C298.831 470.069 298.933 470.195 299.008 470.322C299.16 470.524 299.312 470.751 299.438 470.979C299.539 471.131 299.641 471.257 299.716 471.409C299.767 471.459 299.792 471.535 299.843 471.586C300.096 471.99 300.349 472.42 300.601 472.825C300.627 472.85 300.627 472.875 300.652 472.901C300.703 472.977 300.753 473.078 300.778 473.154C300.955 473.457 301.132 473.76 301.284 474.064C301.36 474.19 301.411 474.342 301.486 474.469C301.562 474.62 301.638 474.772 301.714 474.898C301.79 475.025 301.84 475.151 301.916 475.303C302.068 475.632 302.22 475.986 302.371 476.314C302.397 476.39 302.422 476.441 302.447 476.517C302.447 476.542 302.473 476.567 302.473 476.567C302.65 476.997 302.852 477.452 303.004 477.882C303.029 477.958 303.054 478.034 303.08 478.11C303.13 478.261 303.181 478.413 303.257 478.59C303.332 478.818 303.434 479.045 303.509 479.273C303.56 479.45 303.611 479.627 303.661 479.779C303.712 479.981 303.788 480.183 303.838 480.385C303.863 480.512 303.914 480.638 303.965 480.765C304.015 480.992 304.066 481.22 304.116 481.447C304.167 481.7 304.243 481.953 304.293 482.181C304.319 482.257 304.344 482.358 304.369 482.434C304.394 482.611 304.42 482.788 304.47 482.965C304.546 483.344 304.622 483.748 304.673 484.128C304.698 484.229 304.723 484.355 304.723 484.457C304.723 484.558 304.723 484.659 304.748 484.76C304.85 485.62 304.925 486.479 304.925 487.339C304.9 491.966 303.282 495.228 300.652 496.746L294.027 500.589C296.657 499.047 298.3 495.81 298.3 491.183C298.3 490.348 298.225 489.488 298.123 488.603C298.199 488.426 298.174 488.224 298.149 488.022Z" fill="#3F3F3F" stroke="#332456" stroke-width="1.78646" stroke-miterlimit="10" stroke-linecap="round" stroke-linejoin="round"/>
<path d="M283.761 465.871C275.669 461.193 269.07 464.936 269.044 474.266C269.019 483.597 275.568 494.925 283.66 499.603C291.776 504.281 298.376 500.538 298.401 491.208C298.427 481.902 291.878 470.549 283.761 465.871Z" fill="#555656" stroke="#332456" stroke-width="1.78646" stroke-miterlimit="10" stroke-linecap="round" stroke-linejoin="round"/>
<path d="M274.734 477.553C274.708 483.243 278.729 490.196 283.685 493.054C286.239 494.546 288.54 494.621 290.184 493.61C289.223 493.458 288.211 493.104 287.124 492.447C282.193 489.59 278.147 482.636 278.173 476.946C278.198 474.165 279.159 472.218 280.727 471.257C277.237 470.701 274.759 473.078 274.734 477.553Z" fill="#3F3F3F" stroke="#332456" stroke-width="1.78646" stroke-miterlimit="10" stroke-linecap="round" stroke-linejoin="round"/>
<path d="M278.173 476.972C278.147 482.661 282.168 489.615 287.124 492.472C288.211 493.104 289.223 493.458 290.184 493.635C291.726 492.674 292.712 490.727 292.712 487.946C292.738 482.257 288.742 475.303 283.761 472.446C282.674 471.813 281.662 471.459 280.727 471.282C279.159 472.243 278.198 474.19 278.173 476.972Z" fill="#555656" stroke="#332456" stroke-width="1.78646" stroke-miterlimit="10" stroke-linecap="round" stroke-linejoin="round"/>
<path d="M287.908 467.186C288.388 467.894 288.717 468.678 288.945 469.487L296.708 493.989L321.083 481.195L313.32 456.692C312.992 455.479 312.41 454.391 311.576 453.456L287.908 467.186Z" fill="#D82323" stroke="#332456" stroke-width="1.83779" stroke-miterlimit="10" stroke-linecap="round" stroke-linejoin="round"/>
<path d="M239.561 440.964C241.23 440.332 243.151 440.433 244.795 441.369L248.284 443.392L285.126 464.582C286.239 465.239 287.2 466.149 287.883 467.211L311.55 453.506C310.994 452.824 310.286 452.267 309.502 451.812L269.171 428.625C267.729 427.79 266.035 427.613 264.518 427.993L262.116 429.232L239.561 440.964Z" fill="#FF6E6E" stroke="#332456" stroke-width="1.83779" stroke-miterlimit="10" stroke-linecap="round" stroke-linejoin="round"/>
<path d="M230.357 452.798L248.31 443.392L244.82 441.369C243.151 440.408 241.23 440.332 239.586 440.964H239.536L238.423 441.546C237.715 441.951 237.083 442.583 236.577 443.316L230.357 452.798Z" fill="#D82323" stroke="#332456" stroke-width="1.83779" stroke-miterlimit="10" stroke-linecap="round" stroke-linejoin="round"/>
<path d="M317.745 496.569L317.771 507.163C317.771 509.237 318.858 511.159 320.653 512.221L358.127 533.941C357.622 533.436 357.293 532.702 357.293 531.868L357.268 519.604V518.39C357.268 517.733 357.369 517.126 357.546 516.545L318.175 493.964C317.897 494.773 317.745 495.684 317.745 496.569Z" fill="url(#paint19_linear_53_6470)"/>
<path d="M318.2 493.964L357.571 516.544C358.051 514.926 359.113 513.561 360.605 512.726L361.566 512.17L372.692 505.924L333.17 482.964L322.069 489.16C320.198 490.222 318.807 491.966 318.2 493.964Z" fill="url(#paint20_linear_53_6470)"/>
<path d="M357.293 518.39V519.604L357.318 531.868C357.318 532.702 357.622 533.41 358.153 533.941L359.594 534.776C360.277 534.953 361.035 534.877 361.769 534.472L372.768 528.328L372.743 505.95H372.717L361.591 512.195L360.631 512.752C359.164 513.586 358.077 514.952 357.596 516.57C357.394 517.126 357.293 517.733 357.293 518.39Z" fill="url(#paint21_linear_53_6470)"/>
<path d="M438.512 463.772L364.095 507.315V394.842L438.512 351.325V463.772Z" fill="url(#paint22_linear_53_6470)"/>
<path d="M234.175 432.392L364.095 507.315V394.843L234.175 319.945V432.392Z" fill="url(#paint23_linear_53_6470)"/>
<path d="M234.175 319.945L364.095 394.843L438.512 351.325L308.617 276.403L234.175 319.945Z" fill="url(#paint24_linear_53_6470)"/>
<path d="M372.768 435.224L406.55 454.265L423.441 509.237V558.064L372.768 527.064V435.224Z" fill="url(#paint25_linear_53_6470)"/>
<path d="M436.186 398.838L469.968 417.878L486.859 472.875V521.703L436.186 490.677V398.838Z" fill="#E84242" stroke="#332456" stroke-width="2.32227" stroke-miterlimit="10" stroke-linecap="round" stroke-linejoin="round"/>
<path d="M436.185 398.838L372.768 435.224L406.55 454.265L469.968 417.878L436.185 398.838Z" fill="url(#paint26_linear_53_6470)"/>
<path d="M486.859 472.875L423.441 509.237V558.064L486.859 521.703V472.875Z" fill="url(#paint27_linear_53_6470)"/>
<path d="M469.968 417.878L406.55 454.265L423.442 509.237L486.859 472.875L469.968 417.878Z" fill="url(#paint28_linear_53_6470)"/>
<path d="M424.554 499.426L425.818 503.522L482.206 471.207L467.591 423.618L463.722 425.843L477.098 469.285L424.554 499.426Z" fill="url(#paint29_linear_53_6470)"/>
<path d="M411.203 455.934L424.554 499.426L477.098 469.285L463.722 425.843L411.203 455.934Z" fill="url(#paint30_linear_53_6470)"/>
<path d="M411.405 542.109V557.382L418.915 561.402C421.747 562.919 425.136 562.843 427.892 561.225L491.512 523.726C493.003 522.841 493.914 521.248 493.914 519.503V507.062L425.742 547.217C424.301 548.051 422.556 548.102 421.09 547.318L411.405 542.109Z" fill="url(#paint31_linear_53_6470)"/>
<path d="M411.405 542.109L421.697 547.621C422.784 548.203 424.124 548.177 425.186 547.57L492.725 508.251C494.799 507.062 494.824 504.078 492.801 502.814L486.884 499.097V508.124L423.467 544.966L414.642 540.288L411.405 542.109Z" fill="url(#paint32_linear_53_6470)"/>
<path d="M482.206 471.207L477.098 469.285L463.722 425.843L467.591 423.618L482.206 471.207Z" fill="url(#paint33_linear_53_6470)"/>
<path d="M435.3 443.442L463.064 427.537L475.176 466.832L435.3 443.442Z" fill="#5B85C9"/>
<path d="M474.645 469.361L425.236 497.681L422.758 489.59L465.618 464.885L474.645 469.361Z" fill="#22487F"/>
<path opacity="0.59" d="M416.336 468.703L412.594 456.49L444.581 438.158L447.387 450.725L416.336 468.703Z" fill="#22487F"/>
<path opacity="0.56" d="M413.959 460.89L412.594 456.49L463.039 427.588L464.329 431.785L413.959 460.89Z" fill="#1C3968"/>
<path opacity="0.56" d="M425.489 497.959L424.149 493.534L474.595 464.632L475.885 468.83L425.489 497.959Z" fill="#1C3968"/>
<path d="M376.839 443.291V483.622L417.044 505.57L415.198 499.603L381.188 480.992V445.592L376.839 443.291Z" fill="url(#paint34_linear_53_6470)"/>
<path d="M381.188 445.592V480.992L415.198 499.603L402.15 456.819L381.188 445.592Z" fill="url(#paint35_linear_53_6470)"/>
<path d="M381.188 480.992L376.839 483.622V443.291L381.188 445.592V480.992Z" fill="url(#paint36_linear_53_6470)"/>
<path opacity="0.56" d="M382.301 479.172V447.488L401.19 457.577L404.401 468.122L382.301 479.172Z" fill="#1C3968"/>
<path d="M372.768 414.187V435.25L400.102 450.624C391.935 425.287 372.768 414.187 372.768 414.187Z" fill="url(#paint37_linear_53_6470)"/>
<path d="M372.768 414.186C372.768 414.186 391.935 425.312 400.102 450.624L463.722 414.616C455.58 389.28 436.413 378.179 436.413 378.179L372.768 414.186Z" fill="url(#paint38_linear_53_6470)"/>
<path d="M387.181 501.955L376.839 496.316V494.268C376.839 492.346 378.887 491.132 380.581 492.042L384.602 494.242C386.195 495.102 387.156 496.771 387.156 498.566V501.955H387.181Z" fill="url(#paint39_linear_53_6470)"/>
<path d="M423.441 537.709L434.39 531.842V510.198L423.441 516.064V537.709Z" fill="white"/>
<path d="M423.441 522.613L428.903 520.085V528.277L423.441 530.806V522.613Z" fill="#FFF200"/>
<path d="M475.935 508.807L486.859 502.941V481.296L475.935 487.162V508.807Z" fill="white"/>
<path d="M481.397 491.587L486.859 489.059V497.251L481.397 499.78V491.587Z" fill="#FFF200"/>
<path d="M472.724 510.855L438.537 530.477C438.537 530.477 438.537 509.034 438.537 509.515L472.724 489.893V510.855Z" fill="url(#paint40_linear_53_6470)"/>
<path d="M441.799 512.473L469.386 496.644" stroke="#332456" stroke-width="2.32227" stroke-miterlimit="10" stroke-linecap="round" stroke-linejoin="round"/>
<path d="M441.799 517.152L469.386 501.322" stroke="#332456" stroke-width="2.32227" stroke-miterlimit="10" stroke-linecap="round" stroke-linejoin="round"/>
<path d="M441.799 521.829L469.386 506" stroke="#332456" stroke-width="2.32227" stroke-miterlimit="10" stroke-linecap="round" stroke-linejoin="round"/>
<path d="M390.974 540.01C390.923 539.631 390.848 539.226 390.772 538.847C390.721 538.569 390.671 538.316 390.62 538.038C390.569 537.785 390.494 537.532 390.443 537.279C390.367 536.925 390.266 536.571 390.165 536.242C390.114 536.04 390.038 535.838 389.988 535.635C389.861 535.231 389.735 534.852 389.583 534.447C389.533 534.295 389.482 534.118 389.406 533.967C389.204 533.436 388.976 532.879 388.749 532.348C388.724 532.272 388.698 532.222 388.648 532.146C388.445 531.665 388.218 531.21 387.99 530.73C387.914 530.578 387.839 530.427 387.763 530.3C387.535 529.845 387.282 529.415 387.029 528.96C386.979 528.884 386.954 528.808 386.903 528.707C386.6 528.201 386.296 527.696 385.967 527.215C385.866 527.063 385.765 526.937 385.689 526.785C385.462 526.431 385.209 526.077 384.956 525.749C384.83 525.572 384.678 525.369 384.551 525.192C384.324 524.914 384.122 524.636 383.894 524.358C383.717 524.13 383.515 523.903 383.338 523.675C383.161 523.447 382.958 523.245 382.781 523.043C382.453 522.689 382.124 522.335 381.795 522.006C381.643 521.855 381.466 521.677 381.315 521.526C380.657 520.868 379.949 520.261 379.241 519.705C379.115 519.604 378.988 519.528 378.862 519.427C378.103 518.871 377.345 518.34 376.561 517.885C375.929 517.531 375.322 517.227 374.715 516.974C374.513 516.898 374.336 516.823 374.134 516.747C373.78 516.62 373.451 516.494 373.097 516.393C372.869 516.317 372.667 516.266 372.439 516.216C372.237 516.165 372.035 516.115 371.832 516.089C371.58 516.039 371.301 515.988 371.049 515.963C370.897 515.938 370.745 515.938 370.619 515.912C370.29 515.887 369.987 515.887 369.683 515.887C369.607 515.887 369.531 515.887 369.481 515.887C369.102 515.912 368.748 515.963 368.394 516.013C368.318 516.039 368.217 516.064 368.141 516.064C367.863 516.115 367.61 516.216 367.332 516.292C367.256 516.317 367.155 516.342 367.079 516.393C366.75 516.519 366.421 516.671 366.118 516.848L372.743 513.004C372.768 512.979 372.793 512.979 372.819 512.954C373.046 512.827 373.299 512.701 373.552 512.6C373.602 512.575 373.653 512.574 373.704 512.549C373.779 512.524 373.881 512.499 373.956 512.448C374.083 512.397 374.209 512.347 374.336 512.322C374.462 512.271 374.614 512.246 374.766 512.221C374.842 512.195 374.943 512.17 375.019 512.17C375.069 512.17 375.12 512.145 375.17 512.145C375.448 512.094 375.752 512.069 376.055 512.043C376.081 512.043 376.106 512.043 376.106 512.043C376.182 512.043 376.258 512.043 376.308 512.043C376.536 512.043 376.763 512.018 377.016 512.043C377.092 512.043 377.168 512.069 377.269 512.069C377.421 512.069 377.547 512.094 377.699 512.119C377.825 512.145 377.977 512.145 378.103 512.17C378.23 512.195 378.356 512.22 378.457 512.246C378.66 512.271 378.862 512.322 379.064 512.372C379.165 512.397 379.267 512.423 379.393 512.448C379.494 512.473 379.621 512.524 379.722 512.549C380.05 512.65 380.404 512.777 380.758 512.903C380.885 512.954 381.011 512.979 381.112 513.03C381.188 513.055 381.264 513.105 381.315 513.131C381.922 513.384 382.528 513.687 383.161 514.041C383.945 514.496 384.703 515.027 385.462 515.584C385.588 515.685 385.715 515.761 385.841 515.862C386.549 516.418 387.232 517.025 387.914 517.682C387.965 517.733 388.041 517.783 388.091 517.834C388.193 517.935 388.294 518.062 388.395 518.163C388.724 518.491 389.052 518.845 389.381 519.199C389.482 519.301 389.583 519.427 389.684 519.528C389.76 519.629 389.836 519.73 389.912 519.832C390.114 520.059 390.291 520.287 390.494 520.54C390.62 520.691 390.746 520.843 390.873 520.995C390.974 521.121 391.05 521.248 391.151 521.374C391.277 521.551 391.429 521.728 391.556 521.93C391.657 522.057 391.758 522.183 391.834 522.31C391.985 522.512 392.137 522.74 392.264 522.967C392.365 523.119 392.466 523.245 392.542 523.397C392.592 523.448 392.618 523.523 392.668 523.574C392.921 523.979 393.174 524.408 393.427 524.813C393.452 524.838 393.452 524.864 393.477 524.889C393.528 524.965 393.579 525.066 393.604 525.142C393.781 525.445 393.958 525.749 394.11 526.052C394.185 526.178 394.236 526.33 394.312 526.457C394.388 526.608 394.464 526.76 394.539 526.886C394.615 527.013 394.666 527.139 394.742 527.291C394.893 527.62 395.045 527.974 395.197 528.302C395.222 528.378 395.247 528.429 395.273 528.505C395.273 528.53 395.298 528.555 395.298 528.555C395.475 528.985 395.677 529.44 395.829 529.87C395.854 529.946 395.88 530.022 395.905 530.098C395.955 530.249 396.006 530.401 396.082 530.578C396.158 530.806 396.259 531.033 396.335 531.261C396.385 531.438 396.436 531.615 396.486 531.767C396.537 531.969 396.613 532.171 396.663 532.374C396.689 532.5 396.739 532.626 396.79 532.753C396.84 532.98 396.891 533.208 396.942 533.436C396.992 533.688 397.068 533.941 397.119 534.169C397.144 534.245 397.169 534.346 397.194 534.422C397.245 534.599 397.245 534.776 397.296 534.953C397.371 535.332 397.447 535.737 397.498 536.116C397.523 536.217 397.548 536.343 397.548 536.445C397.574 536.546 397.548 536.647 397.574 536.748C397.675 537.608 397.751 538.467 397.751 539.327C397.725 543.955 396.107 547.216 393.477 548.734L386.852 552.577C389.482 551.035 391.126 547.798 391.126 543.171C391.126 542.336 391.05 541.477 390.949 540.592C391.025 540.415 391.025 540.212 390.974 540.01Z" fill="url(#paint41_linear_53_6470)"/>
<path d="M376.586 517.859C368.495 513.181 361.895 516.924 361.87 526.254C361.844 535.585 368.393 546.913 376.485 551.591C384.602 556.269 391.201 552.526 391.227 543.196C391.252 533.865 384.703 522.537 376.586 517.859Z" fill="url(#paint42_linear_53_6470)"/>
<path d="M367.559 529.541C367.534 535.231 371.554 542.184 376.51 545.042C379.039 546.534 381.365 546.61 383.009 545.598C382.048 545.446 381.037 545.092 379.949 544.435C375.018 541.578 370.973 534.624 370.998 528.935C371.023 526.153 371.984 524.206 373.552 523.245C370.062 522.689 367.584 525.066 367.559 529.541Z" fill="url(#paint43_linear_53_6470)"/>
<path d="M370.998 528.935C370.972 534.624 374.993 541.578 379.949 544.435C381.036 545.067 382.048 545.421 383.009 545.598C384.551 544.637 385.537 542.69 385.537 539.909C385.562 534.219 381.567 527.266 376.586 524.408C375.499 523.776 374.487 523.422 373.552 523.245C371.984 524.206 371.023 526.178 370.998 528.935Z" fill="url(#paint44_linear_53_6470)"/>
<path d="M275.492 505.596L201.657 548.784V464.076L275.492 420.862V505.596Z" fill="url(#paint45_linear_53_6470)"/>
<path d="M127.796 505.596L201.657 548.784V464.076L127.796 420.862V505.596Z" fill="url(#paint46_linear_53_6470)"/>
<path d="M127.796 420.862L201.657 464.076L275.492 420.862L201.657 377.673L127.796 420.862Z" fill="url(#paint47_linear_53_6470)"/>
<path d="M211.038 466.149L231.191 454.366V476.491L211.038 488.249V466.149Z" fill="white"/>
<path d="M207.346 518.466L268.513 482.686V504.786L207.346 540.566V518.466Z" fill="#FBFCFF" stroke="#332456" stroke-width="0.505722" stroke-miterlimit="10" stroke-linecap="round" stroke-linejoin="round"/>
<path d="M170.833 508.503L156.825 500.311V522.411L170.833 530.629V508.503Z" fill="#E5BE91"/>
<path d="M214.35 469.639L228.157 461.573" stroke="#332456" stroke-width="0.505722" stroke-miterlimit="10" stroke-linecap="round" stroke-linejoin="round"/>
<path d="M214.35 473.685L228.157 465.618" stroke="#332456" stroke-width="0.505722" stroke-miterlimit="10" stroke-linecap="round" stroke-linejoin="round"/>
<path d="M214.35 477.73L228.157 469.639" stroke="#332456" stroke-width="0.505722" stroke-miterlimit="10" stroke-linecap="round" stroke-linejoin="round"/>
<path d="M218.649 479.247L228.156 473.684" stroke="#332456" stroke-width="0.505722" stroke-miterlimit="10" stroke-linecap="round" stroke-linejoin="round"/>
<path d="M251.318 492.725V514.471" stroke="#332456" stroke-width="1.84437" stroke-miterlimit="10" stroke-linecap="round" stroke-linejoin="round"/>
<path d="M226.336 507.619V529.339" stroke="#332456" stroke-width="1.84437" stroke-miterlimit="10" stroke-linecap="round" stroke-linejoin="round"/>
<path d="M207.346 524.054L268.513 488.249" stroke="#332456" stroke-width="0.505722" stroke-miterlimit="10" stroke-linecap="round" stroke-linejoin="round"/>
<path d="M156.825 437.854L170.833 446.047L244.694 402.858L230.685 394.64L156.825 437.854Z" fill="#FFECD2"/>
<path d="M170.833 446.047L156.825 437.854V459.954L170.833 468.172V446.047Z" fill="#E5BE91"/>
<path d="M334.358 550.731L279.563 582.769V519.933L334.358 487.896V550.731Z" fill="url(#paint48_linear_53_6470)"/>
<path d="M224.793 550.731L279.563 582.769V519.933L224.793 487.896V550.731Z" fill="url(#paint49_linear_53_6470)"/>
<path d="M224.793 487.895L279.563 519.933L334.358 487.895L279.563 455.858L224.793 487.895Z" fill="url(#paint50_linear_53_6470)"/>
<path d="M286.542 521.476L301.486 512.727V529.137L286.542 537.886V521.476Z" fill="white"/>
<path d="M283.786 560.264L329.174 533.739V550.15L283.786 576.675V560.264Z" fill="#FBFCFF" stroke="#332456" stroke-width="0.505722" stroke-miterlimit="10" stroke-linecap="round" stroke-linejoin="round"/>
<path d="M256.73 552.906L246.337 546.812V563.223L256.73 569.291V552.906Z" fill="#E5BE91"/>
<path d="M288.995 524.08L299.236 518.087" stroke="#332456" stroke-width="0.505722" stroke-miterlimit="10" stroke-linecap="round" stroke-linejoin="round"/>
<path d="M288.995 527.064L299.236 521.071" stroke="#332456" stroke-width="0.505722" stroke-miterlimit="10" stroke-linecap="round" stroke-linejoin="round"/>
<path d="M288.995 530.073L299.236 524.08" stroke="#332456" stroke-width="0.505722" stroke-miterlimit="10" stroke-linecap="round" stroke-linejoin="round"/>
<path d="M292.206 531.185L299.236 527.064" stroke="#332456" stroke-width="0.505722" stroke-miterlimit="10" stroke-linecap="round" stroke-linejoin="round"/>
<path d="M316.43 541.199V557.306" stroke="#332456" stroke-width="0.505722" stroke-miterlimit="10" stroke-linecap="round" stroke-linejoin="round"/>
<path d="M297.87 552.223V568.356" stroke="#332456" stroke-width="0.505722" stroke-miterlimit="10" stroke-linecap="round" stroke-linejoin="round"/>
<path d="M283.786 564.411L329.174 537.886" stroke="#332456" stroke-width="0.505722" stroke-miterlimit="10" stroke-linecap="round" stroke-linejoin="round"/>
<path d="M246.337 500.488L256.73 506.582L311.499 474.519L301.107 468.45L246.337 500.488Z" fill="#FFECD2"/>
<path d="M256.73 506.582L246.337 500.488V516.899L256.73 522.967V506.582Z" fill="#E5BE91"/>
</g>
<defs>
<linearGradient id="paint0_linear_53_6470" x1="111.631" y1="322.818" x2="140.76" y2="322.818" gradientUnits="userSpaceOnUse">
<stop stop-color="#818181"/>
<stop offset="1" stop-color="#DADADA"/>
</linearGradient>
<linearGradient id="paint1_linear_53_6470" x1="180.661" y1="203.265" x2="209.753" y2="203.265" gradientUnits="userSpaceOnUse">
<stop stop-color="#818181"/>
<stop offset="1" stop-color="#DADADA"/>
</linearGradient>
<linearGradient id="paint2_linear_53_6470" x1="124.837" y1="274.912" x2="237.888" y2="274.912" gradientUnits="userSpaceOnUse">
<stop stop-color="white"/>
<stop offset="1" stop-color="#DADADA"/>
</linearGradient>
<linearGradient id="paint3_linear_53_6470" x1="346.391" y1="330.776" x2="634.199" y2="330.776" gradientUnits="userSpaceOnUse">
<stop stop-color="#053F9B"/>
<stop offset="1" stop-color="#3084D7"/>
</linearGradient>
<linearGradient id="paint4_linear_53_6470" x1="619.705" y1="331.965" x2="436.63" y2="309.928" gradientUnits="userSpaceOnUse">
<stop stop-color="#053F9B"/>
<stop offset="0.995" stop-color="#044982"/>
</linearGradient>
<linearGradient id="paint5_linear_53_6470" x1="606.258" y1="443.677" x2="423.183" y2="421.641" gradientUnits="userSpaceOnUse">
<stop stop-color="#053F9B"/>
<stop offset="0.995" stop-color="#044982"/>
</linearGradient>
<linearGradient id="paint6_linear_53_6470" x1="620.345" y1="326.642" x2="437.271" y2="304.605" gradientUnits="userSpaceOnUse">
<stop stop-color="#053F9B"/>
<stop offset="0.995" stop-color="#044982"/>
</linearGradient>
<linearGradient id="paint7_linear_53_6470" x1="629.726" y1="248.712" x2="446.651" y2="226.676" gradientUnits="userSpaceOnUse">
<stop stop-color="#053F9B"/>
<stop offset="0.995" stop-color="#044982"/>
</linearGradient>
<linearGradient id="paint8_linear_53_6470" x1="618.99" y1="337.901" x2="435.915" y2="315.864" gradientUnits="userSpaceOnUse">
<stop stop-color="#053F9B"/>
<stop offset="0.995" stop-color="#044982"/>
</linearGradient>
<linearGradient id="paint9_linear_53_6470" x1="613.9" y1="380.189" x2="430.825" y2="358.152" gradientUnits="userSpaceOnUse">
<stop stop-color="#053F9B"/>
<stop offset="0.995" stop-color="#044982"/>
</linearGradient>
<linearGradient id="paint10_linear_53_6470" x1="625.426" y1="284.431" x2="442.352" y2="262.395" gradientUnits="userSpaceOnUse">
<stop stop-color="#053F9B"/>
<stop offset="0.995" stop-color="#044982"/>
</linearGradient>
<linearGradient id="paint11_linear_53_6470" x1="612.982" y1="387.811" x2="429.908" y2="365.774" gradientUnits="userSpaceOnUse">
<stop stop-color="#053F9B"/>
<stop offset="0.995" stop-color="#044982"/>
</linearGradient>
<linearGradient id="paint12_linear_53_6470" x1="624.406" y1="292.908" x2="441.332" y2="270.871" gradientUnits="userSpaceOnUse">
<stop stop-color="#053F9B"/>
<stop offset="0.995" stop-color="#044982"/>
</linearGradient>
<linearGradient id="paint13_linear_53_6470" x1="611.38" y1="401.123" x2="428.305" y2="379.086" gradientUnits="userSpaceOnUse">
<stop stop-color="#053F9B"/>
<stop offset="0.995" stop-color="#044982"/>
</linearGradient>
<linearGradient id="paint14_linear_53_6470" x1="604.148" y1="461.201" x2="421.073" y2="439.164" gradientUnits="userSpaceOnUse">
<stop stop-color="#053F9B"/>
<stop offset="0.995" stop-color="#044982"/>
</linearGradient>
<linearGradient id="paint15_linear_53_6470" x1="326.487" y1="167.079" x2="469.521" y2="167.079" gradientUnits="userSpaceOnUse">
<stop stop-color="#CC2525"/>
<stop offset="1" stop-color="#B72020"/>
</linearGradient>
<linearGradient id="paint16_linear_53_6470" x1="369.685" y1="51.7549" x2="376.667" y2="317.056" gradientUnits="userSpaceOnUse">
<stop stop-color="#E84242"/>
<stop offset="1" stop-color="#E25252"/>
</linearGradient>
<linearGradient id="paint17_linear_53_6470" x1="381.214" y1="51.4537" x2="388.196" y2="316.752" gradientUnits="userSpaceOnUse">
<stop stop-color="white"/>
<stop offset="1" stop-color="#E25252"/>
</linearGradient>
<linearGradient id="paint18_linear_53_6470" x1="362.984" y1="96.4281" x2="365.358" y2="186.643" gradientUnits="userSpaceOnUse">
<stop stop-color="white"/>
<stop offset="1" stop-color="#E25252"/>
</linearGradient>
<linearGradient id="paint19_linear_53_6470" x1="317.749" y1="513.938" x2="358.155" y2="513.938" gradientUnits="userSpaceOnUse">
<stop stop-color="#555656"/>
<stop offset="1" stop-color="#191919"/>
</linearGradient>
<linearGradient id="paint20_linear_53_6470" x1="318.195" y1="499.748" x2="372.689" y2="499.748" gradientUnits="userSpaceOnUse">
<stop stop-color="#555656"/>
<stop offset="1" stop-color="#A1A1A1"/>
</linearGradient>
<linearGradient id="paint21_linear_53_6470" x1="357.296" y1="520.372" x2="372.758" y2="520.372" gradientUnits="userSpaceOnUse">
<stop stop-color="#555656"/>
<stop offset="1" stop-color="#191919"/>
</linearGradient>
<linearGradient id="paint22_linear_53_6470" x1="364.084" y1="429.314" x2="438.503" y2="429.314" gradientUnits="userSpaceOnUse">
<stop stop-color="#EAB465"/>
<stop offset="1" stop-color="#C4791E"/>
</linearGradient>
<linearGradient id="paint23_linear_53_6470" x1="234.187" y1="413.624" x2="364.084" y2="413.624" gradientUnits="userSpaceOnUse">
<stop stop-color="#EAB465"/>
<stop offset="1" stop-color="#C4791E"/>
</linearGradient>
<linearGradient id="paint24_linear_53_6470" x1="234.187" y1="335.632" x2="438.503" y2="335.632" gradientUnits="userSpaceOnUse">
<stop stop-color="#EAB465"/>
<stop offset="1" stop-color="#F8DBB1"/>
</linearGradient>
<linearGradient id="paint25_linear_53_6470" x1="372.767" y1="496.649" x2="423.444" y2="496.649" gradientUnits="userSpaceOnUse">
<stop stop-color="#CC2525"/>
<stop offset="1" stop-color="#B72020"/>
</linearGradient>
<linearGradient id="paint26_linear_53_6470" x1="372.767" y1="426.557" x2="469.978" y2="426.557" gradientUnits="userSpaceOnUse">
<stop stop-color="#E84242"/>
<stop offset="1" stop-color="#E25252"/>
</linearGradient>
<linearGradient id="paint27_linear_53_6470" x1="423.444" y1="515.471" x2="486.871" y2="515.471" gradientUnits="userSpaceOnUse">
<stop stop-color="#CC2525"/>
<stop offset="1" stop-color="#B72020"/>
</linearGradient>
<linearGradient id="paint28_linear_53_6470" x1="436.238" y1="429.004" x2="451.231" y2="478.483" gradientUnits="userSpaceOnUse">
<stop stop-color="#E84242"/>
<stop offset="1" stop-color="#E25252"/>
</linearGradient>
<linearGradient id="paint29_linear_53_6470" x1="424.557" y1="463.577" x2="482.209" y2="463.577" gradientUnits="userSpaceOnUse">
<stop stop-color="#E84242"/>
<stop offset="1" stop-color="#E25252"/>
</linearGradient>
<linearGradient id="paint30_linear_53_6470" x1="411.212" y1="462.633" x2="477.099" y2="462.633" gradientUnits="userSpaceOnUse">
<stop stop-color="#053F9B"/>
<stop offset="1" stop-color="#3084D7"/>
</linearGradient>
<linearGradient id="paint31_linear_53_6470" x1="411.399" y1="534.767" x2="493.896" y2="534.767" gradientUnits="userSpaceOnUse">
<stop stop-color="#555656"/>
<stop offset="1" stop-color="#191919"/>
</linearGradient>
<linearGradient id="paint32_linear_53_6470" x1="495.915" y1="497.658" x2="423.99" y2="542.81" gradientUnits="userSpaceOnUse">
<stop stop-color="#555656"/>
<stop offset="1" stop-color="#A1A1A1"/>
</linearGradient>
<linearGradient id="paint33_linear_53_6470" x1="463.724" y1="447.415" x2="482.209" y2="447.415" gradientUnits="userSpaceOnUse">
<stop stop-color="#CC2525"/>
<stop offset="1" stop-color="#B72020"/>
</linearGradient>
<linearGradient id="paint34_linear_53_6470" x1="376.844" y1="474.429" x2="417.033" y2="474.429" gradientUnits="userSpaceOnUse">
<stop stop-color="#E84242"/>
<stop offset="1" stop-color="#E25252"/>
</linearGradient>
<linearGradient id="paint35_linear_53_6470" x1="381.179" y1="472.603" x2="415.207" y2="472.603" gradientUnits="userSpaceOnUse">
<stop stop-color="#053F9B"/>
<stop offset="1" stop-color="#3084D7"/>
</linearGradient>
<linearGradient id="paint36_linear_53_6470" x1="376.844" y1="463.453" x2="381.178" y2="463.453" gradientUnits="userSpaceOnUse">
<stop stop-color="#991717"/>
<stop offset="1" stop-color="#B72020"/>
</linearGradient>
<linearGradient id="paint37_linear_53_6470" x1="372.758" y1="432.398" x2="400.098" y2="432.398" gradientUnits="userSpaceOnUse">
<stop stop-color="#CC2525"/>
<stop offset="1" stop-color="#B72020"/>
</linearGradient>
<linearGradient id="paint38_linear_53_6470" x1="372.758" y1="414.393" x2="463.724" y2="414.393" gradientUnits="userSpaceOnUse">
<stop stop-color="#FF8D8D"/>
<stop offset="1" stop-color="#E25252"/>
</linearGradient>
<linearGradient id="paint39_linear_53_6470" x1="376.844" y1="496.845" x2="387.174" y2="496.845" gradientUnits="userSpaceOnUse">
<stop stop-color="#FF8D8D"/>
<stop offset="1" stop-color="#E25252"/>
</linearGradient>
<linearGradient id="paint40_linear_53_6470" x1="438.527" y1="510.187" x2="472.723" y2="510.187" gradientUnits="userSpaceOnUse">
<stop stop-color="#FF8D8D"/>
<stop offset="1" stop-color="#E25252"/>
</linearGradient>
<linearGradient id="paint41_linear_53_6470" x1="366.138" y1="532.297" x2="397.859" y2="532.297" gradientUnits="userSpaceOnUse">
<stop stop-color="#555656"/>
<stop offset="1" stop-color="#191919"/>
</linearGradient>
<linearGradient id="paint42_linear_53_6470" x1="386.218" y1="526.807" x2="357.617" y2="550.192" gradientUnits="userSpaceOnUse">
<stop stop-color="#555656"/>
<stop offset="1" stop-color="#191919"/>
</linearGradient>
<linearGradient id="paint43_linear_53_6470" x1="367.563" y1="534.719" x2="382.998" y2="534.719" gradientUnits="userSpaceOnUse">
<stop stop-color="#555656"/>
<stop offset="1" stop-color="#191919"/>
</linearGradient>
<linearGradient id="paint44_linear_53_6470" x1="370.998" y1="534.426" x2="385.515" y2="534.426" gradientUnits="userSpaceOnUse">
<stop stop-color="#555656"/>
<stop offset="1" stop-color="#A1A1A1"/>
</linearGradient>
<linearGradient id="paint45_linear_53_6470" x1="201.644" y1="484.829" x2="275.503" y2="484.829" gradientUnits="userSpaceOnUse">
<stop stop-color="#EAB465"/>
<stop offset="1" stop-color="#C4791E"/>
</linearGradient>
<linearGradient id="paint46_linear_53_6470" x1="127.785" y1="484.829" x2="201.644" y2="484.829" gradientUnits="userSpaceOnUse">
<stop stop-color="#EAB465"/>
<stop offset="1" stop-color="#C4791E"/>
</linearGradient>
<linearGradient id="paint47_linear_53_6470" x1="127.785" y1="420.868" x2="275.503" y2="420.868" gradientUnits="userSpaceOnUse">
<stop stop-color="#EAB465"/>
<stop offset="1" stop-color="#F8DBB1"/>
</linearGradient>
<linearGradient id="paint48_linear_53_6470" x1="279.575" y1="535.331" x2="334.355" y2="535.331" gradientUnits="userSpaceOnUse">
<stop stop-color="#EAB465"/>
<stop offset="1" stop-color="#C4791E"/>
</linearGradient>
<linearGradient id="paint49_linear_53_6470" x1="224.795" y1="535.331" x2="279.575" y2="535.331" gradientUnits="userSpaceOnUse">
<stop stop-color="#EAB465"/>
<stop offset="1" stop-color="#C4791E"/>
</linearGradient>
<linearGradient id="paint50_linear_53_6470" x1="224.795" y1="487.893" x2="334.355" y2="487.893" gradientUnits="userSpaceOnUse">
<stop stop-color="#EAB465"/>
<stop offset="1" stop-color="#F8DBB1"/>
</linearGradient>
<clipPath id="clip0_53_6470">
<rect width="738" height="615.009" fill="white"/>
</clipPath>
</defs>
</svg>
